<mxfile host="app.diagrams.net" modified="2023-03-09T16:14:41.532Z" agent="5.0 (Windows NT 10.0; Win64; x64) AppleWebKit/537.36 (KHTML, like Gecko) Chrome/110.0.0.0 Safari/537.36" etag="8cRL8QFrFuAHEYHpaxW3" version="20.8.20" type="github">
  <diagram name="Page-1" id="qEUTv5oWvQ6zvhSIaqp-">
    <mxGraphModel dx="1712" dy="385" grid="1" gridSize="10" guides="1" tooltips="1" connect="1" arrows="1" fold="1" page="1" pageScale="1" pageWidth="850" pageHeight="1100" math="0" shadow="0">
      <root>
        <mxCell id="0" />
        <mxCell id="1" parent="0" />
        <mxCell id="d-z6-dSJOa0beq1oyZxt-1" value="" style="shape=image;verticalLabelPosition=bottom;labelBackgroundColor=default;verticalAlign=top;aspect=fixed;imageAspect=0;image=data:image/png,iVBORw0KGgoAAAANSUhEUgAAAZMAAADnCAYAAADb2LsCAAAAAXNSR0IArs4c6QAAAARnQU1BAACxjwv8YQUAAAAJcEhZcwAAFiUAABYlAUlSJPAAAIi9SURBVHhe7b1pcGRZdt93sGQmkJnYl1qA2ruW3nt6tp6tp2ffOaRIipIoypYdVihshx1hf3LEfNBXR9gRlhQOWw5bmymTFkMyRVEcccghZ+EsPVvv3dVV3bUXqlAo7GtmYvH/d14mBlUNIJeXABJV99/9KoHMxHt3Pf9z7j3n3KbFxcU1CwgICAgIiIHm4mtAQEBAQEDNCGQSEBAQEBAbgUwCAgICAmIjkElAQEBAQGwEMgkICAgIiI1AJgEBAQEBsRHIJCAgICAgNgKZBAQEBATERiCTgICAgIDYCGQSEBAQEBAbgUwCAgICAmIjkElAQEBAQGwEMgkICAgIiI1AJgEBAQEBsRHIJCAgICAgNsJ5Jg0C7wT9k19ds+XiBZqamnT5j/eAt/zSP/qGNfurtAP901z8G34PCAgI2A0EMmkQwB2ra2s2nV+1mdyKLSyv2oreTLQ2W8t99iPkAVG0iDFa9UOrGITXhF4TLU2W1MVnEEtAQEDAbiCQSYMAS2RpZc0uTubsynTephdXLbe6KmJotub7yQSi0KuThwgDsmmFRPR7m1ilPdHshMLvfKdVNxAn+c+pItnwc4uuwDcBAQH1QCCTBsHS8prN5Vfsz6/O2Ysj8za+sGKLsk5aJPgl8zdFu0gFwmjSd/geRNEm1sgkmy0rQsn4zy2WTkYE06Gfe9tarIfP9B2+z5JYQEBAQFwEMqkSLEetrK1Fy1L6HWEumRwbk4srdmuhYP/6wrT92bU5WyysWUEPQdZvJe8T+sCfDaHo53XrQ9ZJStYIZJEQcaT0QZ9ee3V1pZqtW6TSIYLJQjQQi97rSLQ4AfG7/rfWQDIBAQFVIJBJlUDAs0nOK4SC9o/QjovrM3lf4vonb0zZH12ejXbS49y2SDIwUbNeh0UwB1TOtCySDl1dIpKe9lbrTbfaoWzChjr1mknYIb0HobTpu/FrFRAQ8LAgkEkZsI8xm1+xu0u6FpZtTNe4rIgjnQkb7krasIRxd6ql+O3a8Ys7i/bDWwv27y7N2l+NLLC77kQQD+pa3YPbdOifdNFyYZMeAkyJNFj+YiksqzocU12Ototk2lpFNM02oN/7UyIcvdcuMmJTPxBMQEDAZghksgE0BNYGVgcXm+JTuRUbEYFcnS7Yu1N5uzads5G5gr1wrMM+ejhtp0UogxK6tYJnrumfb16bdSL56e1FOz+Ri8gEy6JWlG68Hbg9TMOlZx1va7YT7KmoPgdlrZxQ3U6INI/ptV9k064ysXmP91jwFgsICNiIQCYbkJcVMl9YtStzebs6W7DLs8t2Xa8j8wWblGUyo2te31nSd//eYz326yey1i8tnmWjWuHLZrrnP7swY//H+UkbmynYlMgrNpmAcj173+079Ewu9lzaW4sb9iKRgUyrDYtcTuk61tkqqyzp+y6dMeodEBDwYOGhJRMqTVzH8qq51xQkMp5fsdGFFXtblsFbkzl7cypn10QmdxdXLF/QX0jwZ1jWyrbaf/dEr/32I52+/MMmfK2Yy6+69fOP35qyf/T6JOzCDr/IRB9iMewGaIyNVsyG3xMtbNC32FHV+VxHws72puyMriERzMF0wrKJiHjc3ZhlsF0qckBAQGPhoSSTSFau2cIy+yGrdkGk8aYI5LWpvL09XbC5hYLNiEBmRDKLEuw5kcgqrlt6fawvZc8MttuvneqwTw1nLCUiYdmnVtycK9hFPfdfvT1tv3t+WtaI3uR+uy2U7x8FRTKhOMSwtKtMHVzsr7Q1y0JJ2onulD3Zm7Sz3Uk7JJLtEungBRajOQICAvYpHhoyEQ+4Sy+eWIvS/qdLeyHzy7JE8nZ+fMnenMnbpdllIggj6wChiKqNRKWVdH16KG1fPpa15w6125P97U4kcYTnq3ru928u2p9embU/uzpLOHu0xNUI2GitQKbrbWJ2IJOwIVkqT8hKebwnZY90JexINuF7Kx7DonpEeyv+1wEBAQ84HgoyoYJsprOcNZlbtRuzskDG8/aLiSV7UUTCHsXCoi4JzyWEpv9FSQrq51ILiVh+40SH/c7pDjvT22ZHpZ3DNXHk5V/cnLd/dXHGXr69aG/eXYqIpBElcKkNigSTVMVTKibeYAPtLfY4VoqstidFLkdFLIMim3Qi8gILCAh48PHAkgmVQu4trqy6JTK+tGK35gv2tiyPS9N5uz6Zs3dmo9/zJUsECwTZB0OUwI1ERGkJRTacf+NUp/3OmS47jBYew4vLrSQ98w8vz9r/+saUXVWZ7qp8buY08jqRjxb9A+n6z+YxKUcyrXZclgoeYKd0YakcFqEcUBsRtwLpkL4lWCoBAQ8mHlgyYVmLDfYxWRy3ZXlclCXyiiyRb48t2ZWZgi0vLVtBwlzi29a2My9gJH3vUFuLnZSw/BWRya8+0mXd+j2ONxPpU2byK/Z778zY//jyuHuKkdgxtqmzm2DkqH0obqt+ZlmLiPvjHa32AVkqT8hSeVzXIbUblkppoz4gIODBQ+3SsEGBqy0eUiOyOlg2enFkwf7y2rx9+8ac/eD2ol0jiWLRxTev769VKNvYXCamBG07kyBRYvGDGjFfWLHLs3m7qXLmcyISLCPKsp9krZe3ydsQUl5U28+oXtfnlu1navu/VNv/++vz9t2bi/bq2KJdnsnbhNo+R10DAgIeKDxQZIKIQlCxuY7g+tntJfuehNmfXp6xb92YtxfvLNokMRy4ZpWWkyq0BCCTR3qkZWdbfMmGSPI4mCms2sWpggdAroj83JTauLy2X0CRKXdpr0fVICbn1Ymc/YXI+99cnbc/U9v/5Naip4sZlaW4tLxaWiELCAh4QPDAkMm8BBQBhmjA3xWB/MnVOfu312bth9KQL80v2yzxG8Dltf9THkg8BGWixdJtLXYgE7m/EldSa7ZdbokzgBOehOud+YKtcquY5NQwoF0YVSKW/NqazaqexOt86+a8fUt98u0rc/ZD/fzW+JJNLEZWCiuJAQEB+xv7mkyQQWxk46V1d2HF40V+cUfWyI05+0sJrG/fWrBXJLBvSGixrLWuRVcqt3VvlO32VLN1tbdGZJJsieUOzD4O+b7GpaFfQlMX0a1WU6ZGB/VwQmny+EvS6r8znbcfjork1SffEcGTe+zl0SW7MZf3g8Bw18YwCwgI2L/Yt2TiRCIJNLW0Yi+PLdlfXJuzb10SicgqeVHWyHUJ6UhCIaiLVzUSmz/V1SU2eUIkcjbbav0iFDaR4wAPLhJGXptdtot6Hc2v2koVxdpX8Can7dUV+nE0t2qvThfsz0Tyf3h11v7D5Vl7UT+z1DdXshwDAgL2JfYlmXjMiITPHby0ZI386Hak9f5wZN5eErFclKCekMbrhABcqBWvKtEp8jiTSdhJXeSpIhgvDiCTsYWC3RTZ3RIRTrPM42WroXD7AV6tJuf1afXZdVlkr03KUrkT9dmPRCZvjIv8ZaWw9Bc25wMC9if2JZnMF9Y8ev3HIwv2x+/O2jel5f5AwuldvTe5vBrtQZSskVpktMsz/aPWaU+2uGvrgUyLdYpMiKmIg9zymt2ak0UyX7AC8S2+YVBjOfcLqFupP/hFdcbj7o2pgn1PZPIn6sO/urFg56cib6+AgID9h31FJosSxAQfvo01cmvRvi8y+SGR4+yLSNOfkua7JNnsXFCUW7VhzVr0x2lZId1tzR5419vW6uerE3hXCygTFtWcCGREZWWvhDgXR83l3Eco9UexruQ7u8t+ymzBfja2aN9TX/75zQV7SVbKjbDsFRCw77CvyITsumzm/sWNefuDi9P2bQmgN/T7LBl9Qa2WyCYgjqQvKSJJtVp/G8fcNsdKYogBsiQBOi0BSnLHO4vLTi4PJUpWiq45KQh4231XluW/UJ/+MWfgjy74EmZAQMD+wb4gE7TUazMF+4k02D+8Nm9/JavkDVkjLHWR2beApK4jkQCyARP1foxU67o6ky3WHKO18DrDWeDG3LILT/ZLIg6sY6H3IaCMeZEqFieu3T9XH3/ruixO+lhWyl2RbvD2CghofOwLMiEI7o2JJfvTGwv2T6W9/kACZ3RxxRaQMOtabvHLdQJkcoQUKiKSQ9lW60iJTGI8BCsEa+SyBOY7Cys2IiYhAv8h55II9B9kIcXg/HjO/vjKrP3J5RkPOL0uK47lzRDmGBDQ2GhIMkFslDT5N6Wdfu/mgv27K3Outc5IIBNBzTbtjokXEUki2Wz92YQN6sIq4cz0WgU/hlPJJfiWhON8fsWWVyQeg3z8JWhbXVghM2zOy/L8jpQHCOUllr1kzRFPFNosIKAx0ZhkIoFBji00+ZdHF+3Pr8/av7k8a6+OLUUnEbI3W6NgrwRNIpOkCKS3I2n9Ha2W0c8kKKz1kWjVbLbfnV+xO7JMciKTsG6zCYpWJktfF6YK9t2Refvzq3P2YykTN9RuC+p7lIyAgIDGQ0ORCWJiWcKCbLocVvWDkQX7E10vTeYtJ03eWWYHlrTWoduTVP5QotlOtbXYUHurdbe1+nlVtYI6sedzR1bW6ELBxpeWQyxFJVCb45l3QSTyI1mk37kxbz+XYnFLFkrw9AoIaDw0DJkgXoloR/tE6L46lrMf3F6w748u+VG6kRvtDhKJY804y+lAstlOplvscKbFulPRUbQ1Q8XmaGASHLpLMOfJBzIpDzV5TsrDtQVZp+MaC7JSIJMrM3nfQ8NyDcZdQEDjoGHIBLIgkO2dyZz9eGTREwO+OLZks7llCeTdIJIILSKOXlkkh7LRwU5dIpZaY0sAJSfJJBr1ZRHJ9dyqp2oPKIPikheg/d6QdfpjkclfyUJ5/e6i3cUBYzlYKAEBjYKGIBMXuHncZgv2siySv7q14OdhvDNT8LQp0fJW9N0dhYRXS0uT9bS32EGRSY+skoxMlVq5BM7wDMEscRXdgcdVH3FmQCWg3XUtStG4KQvljQkpGhobL9/R2JjK2bgIJVgoAQGNgT0nE3iCTLocEvXz24v2bVkk35UGOiZB8UuLZDeYRIBMWputVxbJYCZK6tik92p9OoIODyQyBI+KKJc2brzvVp32O2gnmkqMPiEWflmEQi6271+ft4uTSzYjSy8sGwYE7D32nEzcIpEF8vLdnH3/9oK9Opnzk/rWlzB2UeZmZYUMppptKJOwQ04mtRMJQMjh5jo6H1ldC5gkkEngkepQJBSWB3FkeHs6L0JZsJdkoZyfWLKJpWVv1kApAQF7hz0nk9GFZXtJlshfjszbn44seIR4JBYQILskdZHvsoIGRB6n21vsZLZVZJKInSEYr61JkeV11fGy6rV+QFdA9dhgoYyKUH4qC4XlUCyUG7N5twLdkA0ICNgT7BmZYHmwKf3K3SX7pgTCaxIOdyUklnABBrvEI+uQIMJz64hIZECEQqBi3KN5ORiK5S28uG4tLvvaf0AMFAmFJJHTsvIuyEJhU/7nd3L29uSSW7kBAQF7gz0jE5Z/3p3J2w/uLNm/uTrngiHaT0Bg7DaTRI+ETA52RBvvLHHFzDbvlsjNmWUbWSjYndyKyCRYJrHhhBJ1DJmi8fj7vqzan4wsen6vgICAvcGukwn7CJxZcXEyZ9+/Nm9vyTIhvYjHkRQ1z11Fkb+sJdp4P9qZtKyskjjFYMmF2JKxhWVfguHQpxXVz+2SPSDKBw40oS5PEql2fVOKyPewUHRd1s84PQQEBOwudp1MOP+cAL43x3P23Wtz9o7IxCASsNtylseurbl8x4trIJuwY90JkUn8vRKi+MkndV3W1xwac2mHOHBJfUCnNTdZQS9vzxTsr0QkL95e9MwJ8yLy4ogKCAjYJewamSBLPV5gThP/+ryf/X1Vmvs0H3gSxb2Tsj0ikjNtzXYqI8skk7BMzI13IvmpK+e7v72wYpPLqqNbXXtXxwcaal7I+6+kmHzr1qK9JqsXx46H9ryYgIA9wK6QCVOapR+We1iG+HHxrPYR/T7HhGejew/lbF+i2U6LSI5nWuxgutVPWKwV1DXKfLvim+6XJdQ4cyVYJDuJNT/K+RU8vO4s2quyenHFxgoOfBIQsDvYcTJhLqOpz4g4XtVEZynijZmC3dLvJHXcU/B8lY2I9zMDbb5n0izroVYDAsEFaU6qbtem8nZ7tmCzIhQPqnPLpPjFgPqi1GG0/dyy/ezGvP1C4+yWiDwkhQwI2B3sPJlIjjKhb84X7KW7OT+T5Or8sk3rPYTv3kvYJutvb7WzvSITvcZZiSKSH+KYxCIRmdxRnRfzq9FySyCSnQXtq/YnlxsnNL52Z8kuTeZsQn0Bl/tQCwgI2DHsOJkgSG+KPF4dz9uPxpbslemCzZeWffZSW4fleHaLWb8skid6U9aX0i8xgNDi4C423i9M5GxcmnHA7mJBnXBjacXemsnbL0aX7KpeC6vhHJSAgJ3GjpIJa9ZTuRXXENEWL83mPTAxWnnYSyLRpTJwNG9PW6sdyLR6CpVsIl5zsMSFJ9Ho4qpdnCvYWC7slew28HWY1bjD+v2plJfXJ/M2Mrfs/RIQELBz2FEyISKZ5a3z0tLfKh6562tbCNi9FLJoqbo6RB4nOhN2OJ2wrlSzpVriNceyhNh0ceP9ooQZGYIj54LAKLsCt3Sjth6TEvMjKTE/vZuzN4vZFQICAnYOO0ImLCkQa0G6lPPjeXtLk/rSbMHm3SRpkOUGFaU/2WJP97XZcLbFWiX0kfu1gBpR59nCih8ve1v15mwWvLqCZbLLoL1FKKRcmRKBsMz1yp1Fj/ch64L3SUBAQN2xI2QCZxCFfH02b6/dXbS3pvMeUzLPGkQjoFiMgbYW+0B/mx3NJqI3agSGDttA5Iu6PFPwfFyrvMFz9nJf6GEF7U3br67aHY3Bl24v2KWpgmdeyDXKGAwIeMCwI2SykF+x2xKob0wW7EcTORvRJGYOr7lQ3WPJiizBBEk0W2e61U52Jaw/5sY7iVIKYhSPoxGZ3C56EAXsMdQHnIFChDzW8YViunqcQlAAAgIC6oe6kwlzlGy5N2WNvKIJ/OOJvJ9BEUFCfI+5BCnSpFq3iEA6Mwk7SmJHWShxwMrJsqqI4IrIZKXo9hyw15iSmfwOy61TOXvz7pLdFdHjKBESrgQE1Bd1JRM/DKqonf/0zpLdns3zpu9PNMRyD/JDV3drsz3TnbBznQnrTMRPNe/7QwsFuzazbDf0yib8Krfc6/o+zPD21z/FPri2sGw/lWLD3t1UOJ0xIKDuqCuZ+GFQskIuS6j+fGzJRmeXo80E1hQaRbAWyeSprqSdzrZYOtHkm+9xgGAi59hVkeedYtS1L+kVPYsC9gje/FEf3FpYsddknVzSmLwj64SxGugkIKB+qAuZMCmJ/mZ567qE6tt40ExLsBZklSCoG0moqsYdqWY73Z204UzCWupQNg76eme6YFek9SKkIo2Yq/iFgL0DfaC+IJh0Yn7ZLk3k7O27OVd6wt5JQED9UB8y0YTEABkXmZyfKkiw5v3goll23Z1Mil/cSxSLkmpt8lxcx7MJG2xvjXUAFnIIgYQX17uq8xWRqHsL0SBcbJzUcun/e67dQul5m5WpUS79X3WbqI+jgNIVuyjr5NXxJbs1X7AFWZAhMj4goD6oC5l4TipNVtKm/OjOgp+g6O5MTP5GgcqIA3BvW4sdlEVyQGTSmWoRwdTOJsghYmc4BIv0KVenRCb4RVN3SKXWixMZuVx4Fq/dAM9BK9isTA1zFdvF26ZY7kqgbs7r++dnCvaju0silcL6ZnxAQEB8NC0uLsaeTWh4Y4sr9qfX5+2fn5+Uhl7wZQS3SGLuR9QF1FBCoyvRbOf6Uvap4Yz91iOddqwjaW2yVGotIVrt9NKqn2P/T9+YtDdEKNyrlvut6V7INeRlXj+zdLaoX5b0M9zk2OGls67WZuvU1SYVI9kI/VYEykqJnwu6FkS05OCCCKIkmsWybldkb0P/x1Pn/ObJDvuMxsGzg+3uzdc4tQ0I2J+oC5ncFZG8NbFkf3J13n7v7Skbz63YciPtGVBDCZ9D7S32uSMZ+7SEyPO6BtKtsTbfS2RyZTZvPxhZ8JTnrS21RdKTioWjixckMafyK3ZjbtkzCIwtLft7bjXQpnEPpt8G57pTfh1ob7buVF2M1rqA6pPnDceGGZkXNxdwdij4CZbzGmve4BS3nJXJOBD5ULcPHUjbpzUWfvV41o50JGJZqAEBATHJJJqba3ZxOm/fFJF8R5bJD27O2zza4g4KvapRrOEJCY3fPtVhnx5K22P97dbhy1zRZ7WAamJBkLYDxwOEHem9apFL0cpWlIZmTur3uO7J8cYQFKSCmzWJIyf0DJ7rqEcT615YIhn11wvDWXvhSNYG9EZnsnH6T01iebXPEhaJt82q3RHJjopwb88X/CAsAkUhXYJHt+0ANV676no4m7CPH0zb3znXaY/1tFmnCCYQSkBA7YhFJgg1lhpevLNo/8urk/bz0QUbl+CTrtg4ZIJwAa3Ndq43Zf/tmS771OF2O+BLXPG1b24vOedEUHNDbgD3KC15sR9D0sjX7uRE0nP28njOXhdx+9IOQPjFaeboYX7S5FCyxf7mY932m+e6PXtyWyMpA0UUi6u2IejQ7PJM3s5P5uzPpMi8eHvBbot4K3H6aNJXWnSPZwfa7O891mMfPthuxzqTlmjAOgcE7Be0fOMb3/gHxZ+rBsn0RqUZvno3Z9+5MWcjswUr8EElSw67BQmOhIpyJNNqT3an7KMH2+y4BEc60SIrIn4ZqSa34V4smdXjIogyKcHG1SZTJy0roUdWVDtl1rMQpDMimgh6I0411D79bS12rCtpHzoY7SGgufPszcq211epbVKUUT9nk83eNn1trRxNs27d3bOXsglW1XztrU3uhEHG6GFZKtw3ICCgNsRSzXMrq3Zdlgjnuk/MLfupgmuuLTfQpIRM9HJSAvPJjlYbTLdaUkK5WYKo0YHgxPvsXE/KPn20w75wNGOfOpS2k50JJy93HUBV1/81wf92zTKySg50pawn3WJpCViE9n4AG+dnVe7PH83aXz/daZ9Q2zyitknTNrRJmXYhEp5z49+Ziby6am3GgICAmGSCt9Fbk3l7cypn8yz6N5IMcmGif1SmVmn3fe2tdiiTsA4JTrTa/SEuIxBYiRZ9pCNpzw2l7YMD7faELIm+emySq4mwTJ7pS9khEe2+gzoSi2KgvcU+LDL5xFDWTnUnrVsWhxsamzEE76vp2NsjJuqSLvaoCGwMCAioDTVLo2UJapZaLmgiXpwu2CK7pI1kkQAVCYFCoOJAOmEHs63WmWgmYXDDFXU7YCggMA9mWu3p/nZ7WoI/IpN4CSqb1AhYOH0ik8d6ky6Q9xvoRiw4yOPJ/jZ7/4E2O6224XiBqDabsYmgv2HMkgbn+mxhPQ1OQEBAbaiJTFiOnsmtupcRhw9xmmIOK4C7NZiQJpEjGvfhjihQkU13vHb2EZesg+Wn9kTkiXROgjNWtmP1F6Sa1T0GyZ6se3bJatuvoE+JGTqgvn6yN2UnO1rNHdK24BIHY1aEMrlEVuG8e4QFBATUhprIhPgKjkW9Jo0OQpleis4raSwJvebF6Uk12zEJy4MSMgjfpATOfiQS4FaWCKVfdTkp7bsr1eoadtUVoq90tbc02yFZO1xYJeyX7FdgabJ8ibX2SHfCN9QrcrBQO+DazdG+nBUPvwQEBFSPmsgE4sC3/4KsEpI7unBi3jbS2hFlkgk1IOHChvWBdItlZaW0NlIZawRLdVhaGSwT3JupUrVScNWsW1bO4yKl4yITSKoi4dugiIZfk6WTzTbUmbSBjqS1sgxInTClt2oefcx+yatjS3Z9puCKUiCUgIDqUTWZMC/zK6ueh4vkhrMbXVQbBQgDFadJggRvKLRU9gVYIiKoMA64NcKm5iu6TSy0i0yoD1ZXh6yJBARZw41Z1nqsJ6X2iTIB1KMHKcam9d7iYjwhwF3ec0W3qQmUn3p0ql5ctNO2sSO0m74/t7xql2Vlk5x0cnHZj5wOCAioDlWLViY+fvw35gue0HHOg8SKHzYCkEZIJQSFLJEOvLgkLLukpabFJHFTzkcCEOFX+xVHYAICCrulgQ9IWA6SS6uWKqnPutpb7Gxv0oZEtvWI/qZem9V3u4vxVMqxVQ+rAEMEQqGNojxjZeqljxfEHaO5Fd/740yaWaztgICAqlB1BPykJh2pQ/7Jm1P2x1dnbQaXykby5KI2kkgdxWC2XzvZaV86mrGz3Sn3hqoVCDwOwSJDMIGakfArflgBEHD9Et69ba2exoX1/VpBWfA8+t9fm7Q/uDhtIyrTNBZiOcEJ1DYs9WVERCQ6/K+e7PF8XLRVrV2o4tiirFX2zkY0Nkj8WSn4W47QJU/aUDZpaQggxt4N6W3IFffH1+btf3tr0m7K4lgkfxeV2+y23of6R/9/+WjWfvuRTntioM3OyGILCAioHFWTySVZI2TH/b/OT9ufXZ+zNUkDv0GDkckxCafTski+KDL5pMiETLEIzFpBapOZ/Kq9NLpgP7u9aIv6neW+StEuIfnMYLud7Ut56g4ir2tFzWRC2+hv2Wg/2JGwL0p4/v3Hu+2ohHgccuP4gQkJcM4K+eGNebsjsq0GWCNPHUjbx45k3KUXN99aUSKTP7w6b//zmxM2JjJZo222IhPgjLZmHz+Uti8dy9onhzL2/gPtxQ8DAgIqQdULVAhUvF7YeF/VBHQiqctqe31BfqnDIpAD7a3u4RNHWALIhJiE1ybz9t07i/aDsSX70d3c9pe+82NdL+lvLs4v26wU5BaVg43iOGCZkX4YV5nGltcsF3VCZdB3My3NdiabsFO6siI5/R8LWGw4ZLw2nrOfqW1+NKq2qaR9uPQ3P57O24jGU1ptgwUXB/A7ex5LyxqfahuUnbLgkeoTCPqW6sEZ/lielfxpQEBAhKrFCEsZTLh50rj6ZNNMjDf/dwSZZLMdkrAczEjTlbYbl0wQNAS3vSar7IcSlD8dF0no5+2vvL0kgcmBTDdysmR0n6QEeUx56WSCwBtTH9yV9OTMk2r6IJtosnNdSXuko9UyYpK4+0iQCfFGr0OcY6q3CMLrvmmb3Hu9PKU2nV22cQl+libj9hMKzoLaZklts8ZGekWEoGfqf6yaWyoLS7dYW+zpBAQEVIaKyYTNUSbYdI7U3wVf5mk4MPeRRbJKOmWRDHcmnUiIkG6ukfHQTn1ZKbdit6VBzy0tR2+6ACpz8S29DBNI15mwoXSLdahscbXvGTaLZR3OS+j5aVEu88rc078jiEja1TZHulJ2qKM+mXIhtysSwjhkcGiVF8Uv/bPVBTSE+kUg7+9J2slMqxNtHGKjWygLcSOzaiMsE3/Tn1n80jZYVFtOLC77MtmE7uF7gQEBARWhYjJByWP5YGqJNenlKI8RE7T2uV9fMO9FeAhqNpf7JMCHO1vdRZQN51plFCRKvXEZvS1hOStBsy6YS/Xf5sI9+XB7iz0mS+CQyISyxZXfs9K6b8jamROx+7oO5Sl7zzXvbDIP96htjnQRexPvcDDAchCutQSwcmDVEsKbe5YE+FYXUNs6mRCxnm2NSL/0WZWgCbAksC7uLKq/RAarFbdNBP6WE0Pv6G/v6oKYAgICKkPFZAJ5jGuiTUvjm8+tSlvn3Rpn/g6iR5L6MVkjZyCTbEKWQO2buYB6j84v2w1p3px+OM3yXjkggyTYkIxNEJssgaPSvHEAYBkn7rLShKyjy1O5qCwVat2UCRfi0yK0J9UuB9qaPQ4jjkswvEEZbs0X3IuL4D+W8iIy8a9sjg0ymqwE5Bs7Kiuy9pJEze2OAPkVe2s2b1cXyARc/LBCzOkeN0QgN0kVJOUBcgkICKgMFZMJGYLR1tDaxiVAInfg4oeNApWns7XJTsoSOCYBzuY7gYpxkFe9xyWY8Ji6KgEzWamE0teIceiWZUTae1KWsMSF9l2r/MYK4DTBuwsrdp0lNwnOivtA3cX5H8fVJmc7Wq23SGzI/VqBJXBHbXJ5uuCv7CupROXLpL+D4tvUHgMqz+mepB3UaxyOpSy54hh9hz0qyASGqfSe+h755aY0rscY52pjT14aEBBQESomE7S0UU3Q67JOrohM5phoTNZGgJeDi3QaEt4dCevLtLj7bdwNXbRdYmtGJCwvSchMUO+ymnfUNr0itjMitiERSXcmYcmYblMQCUK7dJSvO0FUCpWXvGRH1Takl8GLK15pWAK0aON9fMkdM9Ytsu3g34mIjRxjh1Seg2ojNt/j9BRlmdcYZb/jymyUBbgiYgN8ByajbKurtiDLb1LWVq4R9wUDAhoUVVgmqzYhbW1KAmxmZdXyLjD1AVcDICGJ0CniIM3I4c6k9UrTjbOkxBJOyQV3dF6aKkt8Ei6+J7AdNnzcIwHJXgBZiyG2uJvd84UVuzGb96DREQlv3+yuoP15KnEuLLPh4XZQxMbvcbIn82iWAK/OLdvbU/no5EduVskN9bcEJ57qSvi5/OxrQS5xAOlzbC8uyhN6JXAyooIq76s/whtsUmTNK84X5bo8ICCgCjLJSXBMLuLFJX2P2VVOA91ltKkmg4lmGxaJHJHmTaqQOGDjndgSnA1uzuV9A35VbbCtZPGPip9LOHaJ2I53JW0QLy4RC0tccYAX15XJvF1jj0L9sG4dblMkPmvSd7rUNmRO7heR4OmWkJUSpzgFPXu+sKayLNtFWQKztIuTZWU3pTxPdafstMgkLpGAvPrmikjt8kTOlkT8znYoEtXcmnZUW3Fi6JTqxTELWIOMhYCAgO1RlkyYRxyEhaaHh4x7cZXmVrWTdQeB1k/iQzyUOO+Dc0zigLPEcQf2PQFp33f0M/KpLPQd9kr6EN4S2oc7kk4qca0kYjmm2RiW5s2ym36MhBy33O62+k6zvnZA5IrgHmhvtrTKFtcJYEZaO7msbqttiH7PUchy40FfcagtMirPiS6STCZikyztwH7NOyI1rgW8uGIAYiKBKfdk3DPkAwICtkdZMiFvEqY+WvqkhMaSXiPtvIzg2GUgkLolvH2zW6+dsgTiAAEyK+3/9sKKvcMehaT3CvWtoM6cQX5Yzz+cTtghWUmdyXhur5F7MmSy4p5lczDJeh+UvyktgcV2tkdWkoR4qjW+e/KkyOTyTN5Tp8xKyWCMlG+bIpuIzNrbWu1ol9ong3ty9HYt4I6Q/Kw67IKI5ILIbZGyxCAomherjyVO3J5RpgICArZH2WmMUM0V1kQiuiRAVipSz3cf7AGwN8G5JZzzzjG3tSASTqqrKs4SFxu5WGRoqJXKFDLW9qkMB2SRsLSUielRhpcS7sCjEpQjEt5zlW68U16RTbPapkckckTkRt4ryhc3SzAebu9M5GxK5fKkOpW0jb7DsfWcn3JaJNtXJLZ47slr7rJ+bXbZxtQ+WJPrpF/jbSGPJVk3ZMRGicJKDQgI2B5lyYSJhCcX0cF4tzQumTR5qnn2J9IS3nGWTiBQ6owLLmSCwIRcKq05wrpXUpPTCwdFKBBdHOQk2MYXCr7BTF40lpjKgsJKKDarLAkRWy8WW7bFzzCJ4xLMbZGtd2UhvSsyYR/HUcn99HdtIo5HMgl7tCu57p4ch9dY0bqj/rk6U1B/sWmOe7JuGKP/Mb7ZK4FIIjIpfhAQELAlylsmEgD4289rRs3rtVKleFfgAlOXBAfLJsOdKRuQoIqzH4D1EeW+IhhP2q4EVIFG4Dncd6t78zn/6PO0hOTBzqT1SwPnHJW47slLej5u2Td13VC5ZishdCoiqX8g2WxPdLbaEbVLVm0U16MMrz6CE2/LGrit9pmnbVxwV3BffSWVaLbjskpOsfzH3o1GYJwSYUVcEZG8MSliq4RkK8C07nlLbTylujIWwgZ8QEB5lLdMNJE4q8I1NV0eCNYoUFmoQMntlfQpBMHFOX42Cn5b9f0JPJWIhMZzybHdbYtlYasGN+CD0rxJ6UL6lFqtJJ5K+xM/MSYraVRluYu2XMWyy4AK9Fg2YYdlsVGuuOlTnNhUDoiEeBd3T+ae5W6rr/FssjkT63JMF+7BcYifZsAxgbxgb5ERAJOiDqB9x3VflrkYC1U0d0DAQ4vyZKKZxOYvhELUu+ZW40CTvF01OCkCeVTCaRi312RLnBUOFxwsbSAwL0hgXl5Svfmggnu268EHJCCH2lr89EIOwYoD9yiTJYJbMsttaN5rJTJ3Kyn68T3Y8B0SXSK8WXLzCPyYlgnLWlcluCHaEQ0GJ7bS87aCvtOsC3dg8pPh5darforrxUVsCfEtV+YL7p7srtLUL95tfVyRuj63HGUfDnsmAQHlUZZMIA/2D2YKazatyUrKiYZAsRi44Z7ItPqySZ+0cPZOapUlVI2UJeyR3JIlQNT7uAS4uDQS3mXgUd0ikMOySI50tPrRunFA25PUkRQ21yW8x3MbtOStisPnutjzz6gtOMsFV2k24NtEdCS9rAXclmdDaNdmCk6202oYBHpZ6Cu0xIDKckyEPygNAG+7mFtJ7rrLclu0HFlyTy5+GAe6DWSC5yKOFyFwMSCgPCogE86HWLUJSTaS4M02mGXS1tJsR7uSrn0jLOPAvbhkgflG90zeFiWofDcWVCCk8CDrltDmeOCjEuDsl8QBS4pTev7NhVU/XGvUyaQyqZZRuwxJ+8fDrT/batlEZAnUuqrEcxGqpHe/obZhGTCySHTDCm7KgcnDapdz3Um3kmirmIaJb7xfYHlL/WXsl8SV+JTHCyXy0L1Y0sPaWVqN3IMrbPqAgIcSZaUvApZkhyx1saTRUHsmKn2bNFzIhKj3Wt2BS0BYsqxEhmC8g0inUczJURE4u3ywPYp1cRdc/V4rkIus199dKMhKKkgDX/YlnTWXeOXvi1VyCGJTWThfnUBF5GStJWJvgmDJUVkAnKuOCy5kXhZ8Rw/FPZl2OS7Sp22cTGouTQRI/83JvLtNV1SWKsByIl50WCbUnaWuBhr5AQENh7JkglBjA3pFEyu25lcveDH0j7TvtrYWOyYiwTJJxRDeAKGBwL40F0VSs3dSDdhQPiztu7+92YVlrZvLVA9N2PduRGy3Z0nnsuKeVGvcsoLbsvGPhVQ6thgLLg5wwCDi3fOCzS378ltZUBGUD4hDpN+n8gyrn8hOwGZ8rVZSCSxvvTGeE8mpLDHvdT8oNvE9KBQoUxoaqg4VCggI2AwVkImskaJm5tKBWbbXUBlYNkHrPtmRlPBuiX38LLXi9EiC8W5JWKL1LvEmLbTdbfUdytKl5xN5f0JW0oFMIhKW0TeqBk2NJTgl7Z9z5+9IaBLjw9LLtih9rAe3S3gfyCasP92yfo5KHNA2tMtNleWmylWRe7KPF7NeERsJL3GQ6C0uccUpDW2De/L1+RV7V6Q/w+aSm13x6ng/GPslHapR9KiAgEZFZZbJ6qovdzUMVJSEVHQ23h/tTrqwjCO8Hbon54PcdSIpRCftUWWE1LZYs6T+JcnkUZHJ6Z6UHUgn9Ge1lwYhVornuCFhOSqLYBmpVrYL+IIuPZtlrQNuJdUnFT/5rsjDdV0kS6zLTCVkwlc0gA4lowO5hnFPJrVM3LKobVj6uyqivazLySTeLbdFsVX9CggI2BxbkklRDvhyC14yHvmuOdsoII/jSQmox7sTbhXEAfXEKwkr4PxkLjry1cmTqwz0FcltT31PnqkBCUwyBJfloG1AeVheIQL/yuKKjeTXLA85laum/i6jBw+nImIjNxipZeLIWT+WV1YJy2yQLBvv0f6BHkaZtrp5qelUnu62KLakV21EdoK4SSbZu3lnMm/jspI4mte7aruy1ABuKQPIxz4u8SyBNpI+FRDQaNhaPGnisAmJ4GAiofz5bGqACYXcYKnkREernetKuvCOA3cykFDiWN43RSZk562onnxHV1IFgkQOZkUmbVGgYq1yjVvS5qWMxVdFbKMS5gVuWIEQble7HBGBOJlko9iSOECH4BCucZWF3GAzKk9Rem8tvL1dIlcBtmqwHI+I+CET9rXibN9wa1y3L4pMJtl4p4DF4tQbjHki4LESmQPqloCAgC2w5bRm3jBP3zOBmLR11gIrBmWRkCINx+FMQsIyaYOyBuIu4eDFtVBYs3elfb8igTnBkpKbFpXdF5fkI51JOyztO7ZHmRrdPcpUDpa4FnMbBGYFoC1wT6ZdOCQsbuAkQvQuxLaAZ1l0umOFRbGsynJYxDYkYjsIsYn0o+zJtbURVhKCnRQ3lyF9EdxOAb5EwcCjjvGxolpXWu+AgIcR25CJNLFNJ5AEQTx5GQMqjf5H0z0mTRcB1SNLIBnTUwmvHVKqExj4ri7fD+CWldRT38E9eUgW0pDIJM5+AG1diuq+oXJcdzIRscHofLgd+FyPJgsvp0ziDsyFlVQrvDxqi3FZAKOLBRuT8GbJq1xRSsAp4jDLfyrHYDrhsS4scdXaQiXX7bsitpuzeU8Rv1OgjiWrHN2CLggICNga8aTwboMJrVmN++2jfSlfUmK7pEZFdx3sAxBXMiON1zNZuowqc9OScFEBUhKYh7PSviUwY6cIkfCaKUTExkWSzbLwr+gfNUQ7VlvRiysVwwrgllgCHBWMUwLuwDeXVmwKyUrbVHDbbEKWCUt/IhPSusS12tw9WX3kpKZ+glx22kqmHVCp1tPYBAQEbIotyQT9MfqvsdAk4cFpime7Uy6g4mi6JYxJSL4+kfPzS1wNRXCUu6m+wwISAXicqY4HV1eKFCG1l4ZNf4Lk7i5yimGUZBJyKQ9cpZt8WalfbUIsR5+sE8pSa3GiZZ7ISro1X/BrUj9Dbh7rUg7qlwxLXCI29pPIBhCHTGgF2oaTJnHbnhSZsDG+GwOUtihdAQEBm2MbMinmzNuFyVoWTGJmMpJRmveABNTJ7iiFeT3Amerfu73gArxiqDgpvZyV5v0MKUIkxFMtzTW3F0o2PDaRX3ErYEQCk70Kz4XGPcvclzPwh5LNnvSSc+chkzjuyTgl4ILLwVPXZbWRaHIZ9yb9vy1K5dXg6ZDlyF4ScTck4KR9agGPhGixkkZnCzaifrqhtpn18lRQpoCAgB3HlrOb+elztFEmqgRtR2uzDcsqIZEi1kncXFy+Bu+a94qdnyKSeiViz3IyuNg4LGmdkKB8VAKzW8Tm5Bt9o2qwlIIbNkGT14l4X+JALvathApIgbIQ6c7+BC7KxJbUWhYAuZW8uK6qTKNqG0+lU0HbpPSdXvUNJ02yj1Ra4qrVSmLvgkBFXLZxShhT2zRcap+AgIcc20pjtMGGmK6ufa7ZQKLJnpZwwu2VlBxx1+BZJpnA9VbCkoA8zg2JWmSb+9IgLsTWMJLsiCyTU13xNroBwps9ijFp3dem8jbvLrj6gKJUUE2WtDpTzdabbvGlLs4NiWNVEm0/LyvpjiyTyyrLCHsUFZaFWJdjspKOi9iGOqNYlzgQ3/tmO+ffX5vJ24QIzrvAy6N/YtQzICCgPthSAvqmo782CFQQlm7YeD+YiZIoxkzF5Rvvb0/nfT8gX1hzD9yywtuJLfJU4iCuIx1JG5J1EiepI8CLi3xXlyUw35D2PQmx+S0ruy/PP6yyHFJZOCwsDs96pmhJcA7AGpkr2KzIhP2TSpNMcmxxf1uzDba3eBsRqBgHWJAT6qsbIrZ3FlZsDHZxxLvvduDOHLKGwoLVx89xyDkg4EFHPHV6l9Hf1mqP9bWtx5bE2RMA7E+w8U7CQDcNnEzK37NJhMJ5HHhNDXe0eg6suIkUSSbIpvIFWUivzkAmKkwV1cOL60hX0g7LEmiNwSQ0QWnjvRTrssTynzOtUMGtCUzEMYGsAKRzIQFmHBB7Q2ZgJxMR2x0Rf7E0OwaGQVLlhphx9+YcmNpbNSDgwceWs5wYbiYQWhnamcsDF7Saxjs9kzdCz2Iyd0gwkXWWNfiuBKcpxtcUOZvjbZEJkea+oF/J/VSeJl0ETT7ak/Sobvcoi1mWcQnsd6dzNrmwbCsS5NEyTpky6Tt0ix9bLAuAlCXsJcVxT+a5pVgXXJNvqDzunswty5TF/1hlTqt/DrlHWeSeXGv6FG7JPhKOABMqx4z6qUDbQPzl2qZe0DNYQsTw3I3HBQTsV2xJJsxVJpGTiX7xc9VLswmhwUzfafAMPSuK6o7iFdhczsoq2FicasFt8VYi39RFkQkR1d4SFQo93JNxAjjXk7IekQlliQsCAy9MkWpeZWGJywVz8cMtEZ07n022+Dkqw7jh6jUOmQD2kshY7GSia92jbFv8Mn1KJtUsiy1p/RCb3qi1ODyWJS6PdVlYsSn101rFbRMfPAKlBSKhXhUOj4CAhxJbkknDQLKjR5r3k51J39BlryJOLAfgnJBrswW7gguuhOWsfq9I00WIIVQkXQ51Juxsb9K6Ym4u647u6IA78C9GlyJiqxQrZind4CRBnF1YSc1OvLUKParHfglebTdVHvaSsJjyvkVR/qacgT+s9jjZnrDjah8i8eP0FIQ/m4v2bi6LaKPsySokjbbDoNyQiPQWt4x9zyT6KCAgYBOUJRMEk08kBLgL3F2cUkg3oSfRbGclnIYzrL9H1lIcsGxyVWQCoWAREFldnkiii3PeO6R5s19yTNp3XC8u3F6xBCC1N8dznnbey1JJFdU+pL8nFT/t0yNBTtvU2jokSvHNbllHN+cKNqqysNxF81RyU5a0DslSO67yEF/Cvkmc4YIRMq3n3yZ78kze7ugVstst0JaQM30eNuADArZHWUnIvkla6hmbkXVZz6kURSKhhFkJpWNZTg0khXmULDAOSMVxaZoTAwseKFgRKI8E2aDK8pSsgGFp3WzCI2jiACIjIJCoblK8c25IJLUquK++l1R7HFN5TvXEJzaE95L+uT0buScvsPFeafsIbLxzNC/7JQRxxsmeDNgvweOOTABXRGxkT16mbXZBqvMI9gpxHoBQsFKCbRIQsDXKSh80MoiEtW+fYbswkUtWQELPIsqduAksAZI6QiS1ym/4AM17Oh9puqMSUmSDrVhG6KsDIpMnulN2kNxXkjAxnbhsVmW5LAsJjzJiKXxJqdw9i+2DkCNNCfsT7JfEDuKUhQTRXhepXZzNR8t/lYDyCCSZhEgOyYLEeqN8tYLVLBJwYiURB0Q2AE53XOWWuzAE2RdDUaBOJW+ugICArVFW+jCHEJjNfJNrt+aUhElazzsua4QMwf260jH3J1iDJ6p7bHHFrs0UPAeWi8sq6sSm8rm+NncGiPKCxWsQorlfHluykfnCulCOSLv482ZQPZpEilhGh2SxHZbwJgYnrpVUkFUyrfJcxD1Z1xQSvdwI8TLrH5WZo4IPdSY93U2cfS1uyTkiMyLasfkVmxDR4sXl7ts7CW7vz4iWtHCxjqySSIHhvYCAgM1RTlR48FubZhJJBLv12raLEwqX12HcgXV1yTqpR2AgG8ojElA3pPESZ7JS/GxbSL5goZFqvl9C+3hXwrr0M21Tq4BBZEFut0VoP7275C64TiCV3E9/3Ky/ZdnvlIQ38RwECtYqvykLVhsWG0t/RJqTuoRTBsuXKTqPv1t9c1CW41GRG20UR5OnLLkVEZvKQ5bg2+oryGVXofJDiBA0Bp+7ohc/CggIeC/KkonvmUhQ9WpSDWs2ZYvv7yiKAqyUTp18U5wYGHevhGUcPIOuS2COSECxuVtW2fXP13z9nMSF/SI2DsEiRUgcAYMHF5vJN0UmL07m7Zpeq2EndiOIvD/Xk/Q8XLGgOlIeNv8vyWLzQ6ewBJDqFZQHgTskQjutfmJvi/0SyLdWEJLoSSZVHpwkIvdkfVD7LatDsRsYb/Q7FmjMoRcQ8MCjvGWiWYRQJ9cT+xdx1sErQkm46zltqWbf0CWKmufHOnhK9yVx4i0Jp5HZvC93seEcCagy99X3SOSIx9QRkQntEKcsgLLgpUQurllp3zmEN7csd1vaR33SrDJAaqdFJl36OQ7w4kLxJ1Pxq5ytLiHuDVbqi+2g77C3dVD9dAR3YBEueze1lohH4oMwrTLcnotS8XNEQL5CYouNYh/4nonq0S6LK+yXBASUR0VkkpQWznp4JhnfLbc8ihKspdmfSxAeG/B41cTZE0BgcuQryziciZF3JikKqG1vq+9IkPVJYD8pYXks3eKxLgjQOEDzxkK6K2G5ivBGmpe7J02DUFWvNRX3J850p2IfzcstWXK7LnJ7aSpndyhPpVAzsvpImnkcAVj+Q+GotXk4hMpjXWSpjczlRXAFG8+TsVgfxmvy8uD+Ph5Ufo21lPq8TWMwjpUVEPCwoCyZsF6c1T8IUDTOuBp5JWBf5riE0hmRyEFZAlm9ugNAjUBOk0SRE/oICpyRsFyFSyqCCiNh0qkynOxKeroS9nJolzjAc+vCVMHzXyHIK4O+p/8HJeAel1UyLIsNb664BE+cC9YI3m0ET0J0JaFaFmoHNHispOHOqG3iAAON5xN3w+mXeJetFXl/V6C+6FK1D4khUSCyWCYx+zog4GFA2WmCiZ/RhMIqIedS3OjzSsCG//FUs6/Bo/Fmi/sTtYL9ANKDEMsxJu0bQU4MQyXgsa2qPwF4xyUwWXbzjMU1tgNPZZ+GYMCLZCyW5g3ZVYTiHx8Q0T6psgyJTDIJrMXo41qBxUZ+sjsS4HfVRuu5uCoA/YJjgie91IW7dBxEZ8ys+ZLbVZYjfe+m+OFOg+fo6lDfHlQ9etW2HD0clrkCAsqjrBjCEGHZgj2LnpixA9vCJ7L+0f8IahIXDko4kSyQ4Lc48pI1eD9YSVr3lSVp3/lSipBtQHkk2LJ68HFZJUdEIj1OJPEkN0s4eCkhuO+ITGYWV6JjcKtoVrImPz7Y7q8edxNz/Qci+cWdJV/+c6YDCNDtbqvvNeviDBXypXEuf18xDigO8NqaUvu8q/Z5W9cs5WEVL95tqwKb7oy5rJSndhSZmHUKCHgYUAGZNHmaDJa5WFJx99wdmVtrno2Xoy+whAYknBCW3dJ62QStVTlEFrlLsDTdm2y+i0xI777sbFEG+kpadT8qEmHjHYJri2kGeLoSlpREbLclvInwjsikfAU96aAE3WA6ygvGZnecjMW0APw9KkL7+d0ltwbWm6XcPfW9ZhEynlvH3GJr8biXuPElnKPCciQb76ScX6ADa61gjSgpTwReZlp3xxoPCNjvKCsZmce+lCGBjrAgIjia3JrkFS4VVQrmLEkdhyQkWTYh5Tzr8XjW1AqIZE6a7ug8V8GWfNmEcuue5e6rj0klM4R7cibhxBbXMuPcEkjkqq4bIrYpmU2rlKPcbVVmd08WoUG0uAUj8OKAZuDoW2I5fjyRi9yT6YRKqqi/bdHfHlM5Hu9NxU94qfuxHEnEO6lcZtU27m5XzoLcAbBUh+KE1ZVNhj2TgIBKUNE0QdZBIuwbdOqVAEb3ZkImc9UJLNcgsA+2t7jw7pNFwLJJJbJtK5BrilP6yHtFDixSdDgquanq2J6IUrkcwItLZYvjUcaTKc+t2ejQqQkR26LIrmwT8gUJVSw2LCSWlfBwq0cQJ5YRgZNsdrP8Fo2Iyu6Ll9NwttXOddfBPVlEAnewr/X2VC6KdcEqqecAqxA4ERAkS2wTP9d6HktAwMOEiiUAewVYCgc0yQ7pZ5Z/6g1umZGGyyb34WLwW6zYEl1zEpZjskg44519inUy2Q6oyUDPZnMZjzJiXXAMiBWMp/uSyPG6ysPGO0teFYHy6OqXcCPJ5FGVxeMfYvaBp+LHPVnEtoZVQtuUs5IoMuXWd4h1wWo7rTLFPeedR0O0V9VHL8syGVO/7Tqot9qUZKI9Upx4ZfM9cElAQHk0LS4uIh7KgkSEeNf8x0uz9u0rc3Z1adnG2MUuJ3wqgZdgzdItzfaRwTb7xMG0feFE1s70tNWcJoRbIrzfGl+yV+/k7I8vz9qLo4s2IYG1iHDeTkJIWGKBdEloPzfYbn/7VIc9NdDmcRS1CnA/m0Pt9dZEzv6/C9P2w9uLdh5vJfec2uaeUUX89Tm1zdeOZe0jh9P2/gNpQnFiac2XZvL2Y5Xjm5fn7I/embY89ypn7VAWdXu08Z6w/+bJXvt1tQ8aPMtwtWJabcMS1z97e9p+T+0zpfGFV1fFy25xQTvzHLXB145k7MvDGfvoUFpjMOUf7zZmRaZ4IF6elkWNlVYJ1FYEGJN+iPP3SWsTx5KuBjQfLt3vTufdrXsJj8mtlCUVieVilDQOdSOWjHLvTkmrA1WYk9LF6sYlKV4TKF149GxRtXWoMtQJJXSwTfXEeUd13q2YJY62IDAbd/93pJy5V2Q5UDSVD2caFER3QKli9aNiMmE5hI3jf//OjP2HSzN2UQPmln6PTSY8HQGlSrCs8CVN4M8NZezjmsxHO5M1EQlgECDAf3Zr3n50a9H+6Oqc/eLukrvhRplnt7gx5dEfd6kRH5Ug+bgE99dOdNip7qRnLa61PHgpXRZ5vDK6ZN98d8ZeUlmuqf2WqPt2hMDnQN/5ktrk757ptMf62+xkdyr25PvF2JL9a5XlhyML9pLaaBk7tRwhRA1rp3tT9oTK8XfOdtnnjmS9XeKUBwFE+/zzN6bs/xWZYJes91OcG1cCmph2pu5i6L+h/v5rxzP2dF+7xmAi+s4uguJcncrZG+qf378w44RfFrSR5g+Htn1Wc+hjB9vtA1KE4u5lVQqWKVE4/4X67i9uzNsdkeAiyuZm0GDplpB9gXIearcPSXmEWOK4/+8UIMQrstxfllL6+1K6XlGfGHIPQXI/KD5v86o6Hsy22gcOtNtH1BcfP5R2+VGNcI6DRZHHiJTF799csP/7/LSnJdoWxTLjAfUZzee/q3l9QmMJsq8UVS1zcd45g7Me53jcD1xwB3VfYhWGOlojd+AYj/Csszkx88KKe3ERWwI5R8N7uxtrNOhjop/JCXZE5en1ZaV4mhODEq2Go3BvajCOqzBlY134WAVmSfGwLAGOCva4G5UtbllIL39zoWBvTebci2uVkVC6Kc8tc9E2z4hMCOJEBscpDyDF/Ovjed8zIYea99NuEMkGEF8yTL9rnJfiiXYb9A0a/sWZgr14N2cXNHZJSlrRJc35mgTIpUlZB7PRkm65IVZPoGdwPg8ndZKcc9Mycmncsbx6QYRzZX7FFtTfpaHVaKBMKKUF1SsnGTKruXtbVvN76lR6r/Q6X/A8d69O5OxNWQbklyML9k6D8rJ8Th+8omf/TEorFtU9Zd3uUjmvagy9qzJ7WqUqUDGZYJaSULBbQo318ThLGpuhq1lEool8VML7sCySuPEcZJ0lDceIyOT63LKbfD6zKPZWRedzekNChUOn0JYOp1usr7h+HkdxYkCOq7NuqmNv6pXNd/YJykJ/l1F5jktDwEW5R8QWt20gVSzNm3Mrdl6DxsnknnahHba6om8cTidEJinrV9vUA3fVJq+M59xN2bFdP+0QujSmT0qhOaK27pcWGbedawHDdL6wZm9J0P5IgmC0oPaA1DT+pMFtffG5/s/rb+9IkJHzLe9CuthhuwDmB3ICZx3207Yst95HT76Vk/DS2Ftk2ahBwRBsVhOy2NmnuvURJLxZnXivdDFu9N15CfV3pAy8PVXwk10nJY92ujeYovQ7ytmLUs5+rvk9x5vEXNxf5o0X5Uam63+WnFmuJIC5GugOlYOG7ZRwHepOWbpOQqQEPKXw3iKtOgIqLlnhAjytxriiiXVer9MMWGeD7e/LY3v0z2GVAUuAoEliO+Igck9WB4vY6CCsJh9Uftsy91aZO9Q2pHJhLdyzJ8dtG5wARGrkvfKycDvfgNGFOVj62S/9zntuJZAJoVnWUeRRRnJHcqbFASRL0kviSn4xseRaX/S84hd2EVif9Deeclxx3cBrQUF946n3NW45NI10MtVgSWPtXRHya9IuX5dmyln+tPGegObbpgkp1V4VrRpQBYqZU2HJXo0Fti0reL2b3MokLIH9P+b9QpV9WQsoFmQypWfh6EN2dORPxfCvrvmyZRV/5ahaEhC4N4T3joQtc83lcx2AkBrMJPzQKVyQY7ngqhVIETIhYYl30EUnE71JbcvctkVf6JVQGVIZWMqhvnED8RCW09Iw0b6xTujs0oDbtjx8pjJzbPFxtfnhDglvyCRGeQAEwnISWQFQSDzaW88gbc36xe+lS31D//A9hO3xzoQN4W2Xir8UhJXE5uBNEe2bkznPEByNynj3rQXt0t4Yf73tUYDuXpDJosbKhIQP+w8sz85rHEdjJfq8HHA1J17oTSkLb07mdZ8qjqYO2BTMYeTxktqR9kXQFqXu1lB/Mc0hEMgEWYRnKRvjO0mgOB0xhnDeYMXhjsbCLnCYo2oy6ZagOS5BclST7UCiJTosqw6N059O2Im+lCdUZCOuVpJCG3AikVBieWsOTReJ5Q1a/qYo4z0qAx4NB1RPXERjxRmobehYlrdwTSa1ekUuwaWvqEAplceFnF6x2OLGPZDRgOOHn+xO2leHs/abxzvst05sdXXab53k6rDfOJ61Xz3WYb+i7z/Zm3KSiWtBornhVTYmwbmWo59U8XIku0Ng+fZIZ9I69brboLsRUnckdF67k7NxvXpb+DiotDGK39Pf5dWWuMSjMDAndlKAPcjwfqE9xQwQO/s7kEQ1IKvDjdllP5SP0109keoOgbLdXSzYzZmCLaGYldbSK5UZMeZdDWTC6YfRgVX9KQkTL2TtIxXFlvgNlk5OSPtmIseRlbQdlgCddl0CigzBmk0qoj6o4L647rHhfigbJXVES6/VMqFVWGIg1xQbom4NiFiWKxqNa942COxeiDvzywzBNRZnHdxjQHV8vCdpnzmcti8fydhXjqS3vo5m9J2sf+/zw2n3wnlEfZVWAeMmQWR99uJU3rMCrNFPzLOY9asaPE/1YE/wGGSi190GwxPuQJt86e6iKx7rDFBpe5S+pxstacyNqU1x+kC5qjimKeA9QNvHosDzkgzb1TblrOTRFfUrjge4GLMysFNAcSDz95XpvC3oWVUXVuBPKGJkgVWOqsmEZRYEEQGMHboStS5zUE4VNivBNiyBfQIy6Ui4p1gc0JhoEJAJDUpsR6TpblPOYlmYjS3StDlPHTKB2FjqqFVe0hmsV05qIHGOChvvY9JSWHutBBk9+1G1y2PkvlKZ0q0swtVYmA1gaYoYkbO9bfbsgXZ7drDdnunXNbD19b7BNnv/wbQ9MdDmpI8jQBwLsgQ2JV+ezNk1tZG3SvzqVQf6gmdqXHdLeTjtOc92n0xKuLawat8Zz9l1lKDNxi3lLTd89B0CQMlxxsmieFZVFGcQsCOYUtu/qX64urBic7nl4llK9QckAFHhAfjKVM4meU614lT38L0e5FSVpFe15GYvg7VzkjAelEByjxeeWd1zI6iunJXiWWfTsnYkMNtZZ4oBtH4agmCddyXA2YiqSECp/JKP1qO64cXFRT2xSmqVb8xf/L0nNIhGZ/OulcypfCXLc0sUP6ctjkvAnXT35CjJZK1l2QjqhPbdr3tzDsmQrkPZaFN9q4uUMnwP12T2kdxVOkZhGPhoeazpnmdtX/21pnLtKpnQzrqwjCEQ6kZEP/tDuw2cIsbVFrhr+9HJDJ7NiqFGxwGDsbnlEqPqxLr5iN9v2d3jmRMBuwy6Rxf7LBw4h0xiz5RlLsY/w6+eyBedN8j7967GUBQQrQ+qnFPIJ5bz8lUWsKZZw9IGnkWnO5PWwYCuZZyiYalFSaQ42JWSpRMl1ou7Bk+DzqrDWC4gsNLZuQLw1H4JyFMSlMSWDEi4Jmu1uorI6dmQGRoiyxYsvzk20zhL8K/wDy6WLP8lnNh6ZCW1q23iCPBGQikv2K35FQ9WxJVxjb7f7QpqeHSp38+JKI+rnaON990nkykJG2J+bksISCWM2NbHSfELgJ9FfJx6Sq44vPy2EhS4pV7Rfa6IUMhJN7dD2nBAGdCHTGe1/wKOFXMrLvBZdqx2GakcUBiwQm/NLbuzT+Tos8UA2Qb8Gc4G1Tpu1DRrmGvsmZwQmWRYX66FAGhHXWx2n+tL+QZznP0A5h4dxBr8zVkJb00gAhXdLY57VnBfznY/qPIQWzLQ1hpbqOCezBIXgYqX9TpbmtDblmXNj+8gAn9QbUtQYJ/KBLHsViqG3QAWG8FRBNlNSeB5zrQK+6luKCo0vRLKT/akPIkmWn9MfaYm4MX2s7ElD+bbdClLv5NclWVglpmPSMnA63FdWGz8vt6jOUlHM5GTZaLxh+MHyxYIioBdBm2ucYbC9NZ0FCSMdVJvfsfyuSArH+UVxbXWvi4Wt2oboTYy0WAlxuBYV8LS0uTdv5QxXS3T6vsIzGf6kzYYc526FK+AGYl3EK/eIhSpAnbmK1hJfSISBDg5dfB6igO8OO5KOFzSZH5LAtPdkysAQuOA2vQYSy+6OFejHhvvjYRZaWdvjefskrTxAksw1Y6dOqJXVt9TvSkb7mjdVS7bCDTKH44uupXmHf2eMbum8SjrWf8Ma86dKHoaRt/l4+JYB/67rtVVm5cAw7mhtLwSNuL3Dizp/nQiZ1dmo9Neq4r/qADEjr16d8lz3LnsWx8Qu4OayIRxzpo5AveMCOWUNLp2PoDKKik/32ESJFqsh+UyNnSZGDHAXGKioOG9Pp2P8oZVCQ6bOtKV8v0E3ythUtYAiA0tMErvvuyuweuaQgU3pWm6JDQgtcFMi7tjx4l1aSTQRzhHlNKFkOwytxcCrtQXGsddaufT3UkRd+V5iOoFxgR7R7jwYqXx6mSwsbspqy4cMk6lE/asLPnnD2fsfbKmjmqcdG5mSvlbTb7Mel7z4cpctF7P0mtAFVC7MzxxD17D3Fsfq5u0OeDj0ldKKPYnKYzIkTUla3FZ/cA964nbC6v2liyTSfV5JGfuK2OpbNs9Vp81qVzNK6vWVKWCVxuZ6GJvo09C7onOpHsbZSh8JZq3V0b/8GRp3V0y10/qHgjPOKBfyOl0J7dmr0tQjTApXWu7r0G3AN8iAh9ri2yZccB89VgXkcithRWblxbuC5DUvYLiYPnhkkx5COTskpB7UJa4IJORxSig7ofSot6YLhSTXRa/sGsoPlPjDq/EE+p3lKPdRsminlxatVsat+ST23TM6u3OlmY7o7n23ECbff5Ixj7c32anNYe6t1qX09vjEiyv6r5syBJ3grUcUB0Q+h5syMSGUMCW41WfM56LX1uH+pRlR47CIL/XqsuD+78UDyiu59XP7rxxf/l4lJerdEVv34PidyCTFpWPY7mrQSwJTsTwY70ik762yAOGCmxV0BL4XEKfszne35O0ExKYCM84pykCP3RqoeDnmLNP4Scqcs9yt1VxcCIgfcrxbEJkwtkc8YgN1zoS3hHV/fpkLkqY5m2yTcPwEZfK3KK2wdMK910/3VLli1eivQd6xqj65Y3xnH3/2oK9eHPe+2nNByydFK//qwKPVJeQ6eA5aflPySrh+IP6+MpVB6zWlyeWJOzzklMU7D74W/pHA6BdxOcedRobeFHisNKvMcs59VuBTVhirVjuymlOrFSi8AXUhGhFIfKS9OwJW3TnZRHKj8dyvpcaZ2+jBGLXLrAaQ1ydCAWl+h7Zp1/ZiSBrSRtjhV8QKFs8F+LEfbnasRJLRuG6erorZedECpz9QQ6rqPxlCqGPB1ShD+jvjmV/GaTIX9V06R9iS64TZSoyoUHXN3S3Q/GPOTmS9ClHJbyPZiVYVLb1e9dwoX3jWYFbJokUicYvS7JA38ECwQUYiwR3XWJdsAJjcu17yrgbFzxRWvIj0p1U3r+4s2Q/uDFvL99esDn1k7cLdYtZv+qgZ6pwfWrn53rb7AlZJXHiieKAZajX2DsSmXB8y3shTVH/Ev+EswvxT1islLeDPTWRC95dWwHBQtvPSODMyvrJre6MW2oAZNLkDkUH0xLa6p+tWvmKSIQlXvLRkZA2rlcXyur5iZx7caE0+L5YaSz7rYtHfmv8oJC0atx7uv8tZBKWGPuYu0omUbxCs8cgnO1hAzNhvuq8VRlK76tivfqbp/rb/SxzKl/rheZF1lH8uF+dzHu65ZIlWh76ou7hpzuKFLvTzeu5pjZ7VqUXm2uQGmd03FqMUmxHmkKphzcHn/arbU5CbGqfQdyTfVDWDsYLAh1rabOy7uTFJjs5pn52Z9H+6PKc/d7FGfuDyzP28lTO7qqT8l7CePWrGj429EwJ4A6N18cHorNh4rZzrSCYECJB8ZDKsWlz4HxBHAwehsy3NilxDKUBvfeEyt6/jWVSwnUR9/dFWhdmCq7cVBuQFlAeMhbdI/AMIRMS2O8BfauOG5fAp88nc5FDhP6PBby4fjq2ZLdIHYV5tHEMFZ9JJmeSlx7QWOGkXDKR1xuxyITykDWWVCgeGa1GZOBvSSZ8QB00cRP6O1KFsPmIB0uciyCvC7IAXp1Yco8GXy6opK2K5WwVgbSpoSX3PeUJ99jsOZVe78jkZCOMdC5EeJPJtZKWpun61SbH3fVTwqMdMonVRR53M6dBSyT0ZmXdiYuJQhu8MZmzn2uQf29kwf7j1Vn78xtz9oPbi3Z5vuBZnDX0K+unekJjA32BTfehzoQ9IuuYOJ64+c6qBUMUbx5S7VxRe7EE6PJ9k2IQKIy34yFpvCyjsMTFGgDZtc/1RHs9KHaMn63AHuLPpL1enZOFomf6UkhARWD6lk3QqLZH2yf5KXFqpJ2i394ze/U9HHM4ewZHFJQJFL1awV+O6T6vS1HA9TgaP78cCIwJt2JFbowX5AtZ0aWT1B0Vn7S4HfBrJt31n1yds9/lyFUq5VBNflmvX0I1xHvmuQFOgoufUp2+GJGAQnBxlgOZOn2bcbvZBai5/nhYQuW4iPCYNFWivblfnEYhkpnycCbAZV3rHbxdcfTAVv3zof42+/iBdvvSyU57arBNA6EZ7q0ZuIXelIB/eVLl0c+7AbIQ5DVJ8Ky7rbHAsiOxJFPLIra9FmJ6PhOdE/BeOJK1rx/P2lH1O0pQjGauGp5mR+3zFzfn7R++OmFvi3j9MCsKsZHYJME4T+cDfW32PKeQHqO8kebrAboa6//TKxP2LzXviN1h2eTev+das3bdo1ME+vfPdNlfP5axgUzClz3qBZZqsMQ5dvmb1+bskpQ7gvPuKUsJlEfj+pSI/PlDGftPz3XaYz0pF8a72QeVgJWP127P2w9vLtj/c2nWXp7QfGZC3l9Q/Y5iTR47HIp+dHvB9zHoYxeHG77P6g2ZNn7nXLd9RePvrKxLsnFXC8htVR38uxdm7B+9NuEKo7sF0+bF56VVVgKeh7OtXi6CY0k6S3aEX5JPEcWxgjL7lObEr5/ttr/+eE/0WQWoC5ngvw7LMoj+zzcn3f3NvVJgv/sHE7/qPVyBD6NRbTbYasBsAQFeijLn0n3L3dprvubaHoGBrHMmmuNTNu3BWvi8yhR5z1RSljUXaJ8/nLHPDWfsBQ1Klg5rBYTIBD8/vmRv3FmyvxxdFKFEC0s7jeVVCbWChKWEyYTaYQ0Coa1p2nIEv4NoUhloUZYivnKiw14YTtv7B9vdJXy3i4WbKBbct67P2//1xqQfnuTYIAhKw/iwLFSOs/6kxsaHD7fbYDrhQax8Da32H78+ab8rIY6QQOt9zz34RxXkwLf/UgLib57MSoEiv1r94moeRDJhDkHQv7g1bz+4sWD/Vsrya6rXpmQikOLmayIH6kI2AxQEzl+fQQZsbAfNB/Zpv3S8wz5/NOtHgx+TQltt3fEYRc7+y4sz9g9FJgtqb97zwhVv1qsynRKRsGp0Qgr8DY2zt6X4X5e8Hl1X+otgrKhvjrJ8KuvqV6V4/Ppj3W5hVRKa0PKNb3zjHxR/jgWRcnQQjAbUggTJmMz2aFBvXogVtNQlCV1VarIOF0diSm79UrMrX/foO/ouJixlpmPqUR4mdJSplfKUKUuxA/lOqybYB0ioqAvtE5KrFazFLmrQXtCA5tzqXxDToUG0WXnrfaH9MIF4Pm27TiK7LbE3QsWgNXtl35/qStonhzL25ECblIhoX2q3S8Z45VhVzuF/S6/RuSUqRakgjAsngWbPDoG1+nRf0oY1LnAQKTUlX7s2w5KJrD+1+zR5MPiwdB9eua/GWLNkxzkJlCO6B9HzLDPjRVn6ahxQDgjy5XEJ0HWNXO/y7E3g+0BSJo+pLJzYyZJuvcpSLxD/VNrTok5v67rrSrJKuUlBGUeP97bZcdWJfG8ram822df7tgT+XL9D7hwPTpwdhwLynWrqz2F756dysoIW7Sdjiz7n3V2jdBP1OftpT8jKOCfr55TKRpzRuMqE+7CT3MbvF4FnY6cE+jGNlaMqG05B7p1WBvHVcIH1ZoIYSbHylMzx4yo87orOZj4p7oPeox7kCyLFSD0uBBdyqxboz30Tn07f7N7VXp4kTYVhLlUKEl4elKAjvT/unwiMOOD5kDtxLu9I2JBeBuuNCb9Zmet5zck6pA0KRZLcbMDuKrwf1qINUmlcj0tzRBPsS+0NkQCPiZpb9uN1EQKOewoSpdXpTjR5FgSEbaeIjyVhplUJlJ7I/Sc171i+iyq7ycDTW6RSv6Vx8Pa0yEcKD8tq9c4P9SABRYiVjukcaWnwhFNbbTNYsHzpgs5kk8tAxlgbb0Ak9zUzNgFLTR7/I+IllKDavuDAvXcn8zY6X/DxVBpGDn7Wc/EMPagxjxLCGU2sCLFn6NJli8fhsIM8hWxYXfAcXxXA7xkXDG6IgwGPtndCk7UrHeWTcq17s7LQKbAdf1yvS//XBP6ODt/snrVe3E//VwrcVM+os0/R8briHofL4CL1NXmAOIea/QovV73bfLOr9AxvA65iofYCjL3iGEQbRgt8tr/NJ1ZGgnq3N95LYHmK+I/ZpeXIetsELAEf0rg4IQHQ0xZpse7SuQH8ijv7UwMpt7K2EhD0Aef8XxN5Eddyg71FjQm2WAI2B32EKzUCFfdbjJJIVvjH90LtTsQ4R62zn3VUBI8A97gO5gJf2EAWCOw7siYvqz/wxuJ45mr7gpMbr05zkNpytCZXun3pOXpuSmOnv1OWn8rD0Roo/eUAd0CcBFmyXE9G60pQFzIBNBeBi2xmn5V59IzMqorybZU6J+5VL2x272qvGkBwIlpzv0i4I9FCppmawDBiXCEoSJ+Bdxpup2g+69iszPW8Ggqqt/7Hk+W0xiaOH8e68baJDhrbbS5BiLAERHAth1eRgHErMoGTPReXxsRge4uPkZb7ZizFZ8kKF/u0XlWp6N333LLJ3xrV8y6xpykhsVH+BGwObx/9461HY282XopfatZ46hGhk1Gdfbge9V2f+qxTDHNvQCx3a3JHFZSJK7JOrmgsYA1UAixZ+o+Dz7Bs51nfvw+QWr+U+cMa5wS5smTu28Gblf8+wEVcWEqMzcpKVUcyAWjTnHHCuuxz/SnfOAyoDJy1fkiaDPEEsU4w9IEQHRA2trAiMonOUfB124cRzARNiMNq16ek4GCZDKmd2S/Amq6xlWsGSt7YQsH3OTiWYFbq7laKH1YTnlzDEgYcjkYA62aWVJRJuNWPd3Yy8a+8VwQgIFjeuirlYs79sgMqAco8yVc31e9oZhpWjd6k8dQvEhmWpYgHFSRCLFCX+gTFYB38zCXy4GhdvD7fmcl7Fo9KAJngMTu+GJ2BsxmZpHT/wyr4MRHawfZmyZcoEBsFYqdQVzLBBGfnnw3Ds30pO6OJe1Is3enLXcUvBdwLH1gSGhp0CDpPKx4DaL7E7qC1XOa0tcVCNNYBgojnPSzwOa4KazIPyOo729fm+1EeA3DP7N490D93JUBYbrpeWLG76qt7It/5mQ5TuZslDIh6Z6+E2BKEGtXZDHDIEVkwJ7OtlmG+3Q/e4o95ngQRh7Xd0IW34fr4CIgFmpeNapZPUVbYQ362V3JQygty8T3QWxychQvxhWmWHSvrCJyFrs7pb+bzdglS2cSiIRvJgGQvXntkTeheX+rYuc6uM5lEeyeszT2iiXtWwvERVYRzQrwSYdC+B95m6vh+2syXX+J1CeMKMsGb7p3JnGsu6+rIJuP5gQVVlpSkbVn+OaxJdaZHE0sTPKvxWC+X9GqBFcL6O0uPt6VRTqlv3mMkqOwsmZD2IiMiybZHgYpYJVuVOqnPjqdFmNKKM7DOZnONP+Z5eu7IbMGuSoDhrcRyxmZfD/glfDhFP24JmpfpywoNhDKovnuyO2mnpMBEjh739Z5+9aBtWanvTuXdIamc5cDHLGFfm1325cprIpOpTcgERw3S7kAkByVbyDfI06tVHKr5el3JpASWaThk6mRXwh4VqeDP7gt2XpvoOwGCepagIk7NO4L3R1dKnR7PMsEExmPrqkjk5xpwN/MiExjrvnH8sGBYgvj5/jZ7nzRE/Ox97RihvEftgdhezq9ZXoSyqn76JdHfWyDSyh+SAMD7Buvk/r2S+4Gzy9P9KXvuYLuv0/s822yu6TFEtFwRmb09V7AZBFj0ScAWoJvwTKy0nehJRHe7lAFSIg1iGbhCoE+Q5qV+UZ9zT+JDphejgEPm7laEwts4BRC/Nj6vvlMfrmLNcE8fP/ysF1dEWqxLykVXu5QQjaVawK1QfsoRXAk7QibkDmK5hgy8kAm5u1jXZVMoKmKAN4M6Ci2ZyHvOHmd5kAFYKxhTuPER5zKigfnOnAYoayje7rUNqP0K5i1EfUym/of7UnZOVh+b1DiJ7BWRQPS4mnIkwfxSdKZFJAiKXyiCX4mQPiKF7IAUMZIH4iywHVhGOdWZsMdkfWW3U0h0m7yeeV2C6F1ptiQkRVhQjID3AqUfz6YFXSxRVgrGGNYBG/LsZ7HnxVy/X/zR9gT4sgdyQ/OVeKFNs0cLPN8Dolmm1HfdeQNpz/eLw4OtfQ718300jf0eyZRKAg43ArflnO5DvaMQh8rqvSNkQsXQ/ji//DFpS+/TAH+ig72TnXncvgQdpJE6qIn/Pgg3E88iYVCiPRFbcltCYlqDbQ2rhNnAyK5uPO1vqB2IMD6uiXw6m7RzskpIkxPLsaEOIPUJcR4Q/Zh+dlfTTUAJByUMcBU/19Xqyka5uCPmG26fEEkrZFL6/iZyAO2WXGAIL+KrAjYHUwdhygmp41ICtuqvrYBBQFaNgVSTPSIyOYAiU/zsfqAAvjq+ZBenclvmTfPYpMUVu6Z+u6H+I7sE834jWvSEQY2DR6TMP6LxM6Tnbrpfsw0WdI2ornf0POLGZEhXhB2R7hSdOcuSAss3T2oyv6+3zYZwe5XVEk9sPlhg451AT4RdHLB8ghsfPvEXZ/J2S2bwKpovo626sbS/URz45Hx7pIts1klP24GXDdp9lfOqrigl+Lu2sGK3nEy2mKWaPKxx49KJVouVX84yYb7xHdbqyfPE3IuWxu5/RrS0gtIxIesIRw1+DsGL7wXdwyoSLrtRUHR1bYRFwP4V1uVZWY24d286F/Uey42kYLk8K8tki3HBchtZDvDQJHHnhN64n3cgsB6NnUN65pDGD/IFvYLH8hlXQj9vJ/hRSmd1EXhMYOtWruv3Y0fIpAQYkUl9VtbJBw6m7bGOpK8D47b20NvVzH71LJtkT/bhRk0X1w6aE+5Ac/k552NIaN0/0B54+JjSpbbt1mR6YqDdHlXbnuhKxUpNUw9QMs4UuTmzbJdkmVwVmbB08h4wNzQr2XxPShA0s15XBdCEj0sxYXmPlB7vgb+lfzRWlqRqcwYQzgBo4AH3giSK1Sxt3Q+sYLy6yEpNuMRBzfHoEEDdk/tya35VP82vmL2rvsDigDQ2A+eMEKjo8WPqu2lNeMq4Edy+XYpTV5b9khbPF0Y6FJ6Le3OqeG07rLilysCJi00iE14rwY6SCWOZFOqH0gk705v0NPUn1ah4pjgqK+ODBw0k1jUhEuJyDuqVTo8DiAQN8460lkuzeT/fhYjnSHg8PEATxD32iZ6UPT2Q8vxC7JPEzUxdD+CGO5lbtmkRCXE/aL33dBC/86vKmkrIik+Wt0g2gq9mNN9OSJAc05jy5Y1t5hhlwC2VOAc/TC7gHtAikcyvrW0Q7CXrpEeCnRgyvDWd5DfeUr9C5riMs/R4eS4fnc5aBF8lzxmBihz7O0p8kuY6f7N+m+IPeC9yJAiZsBk/pVgqxgL7KL1SqgZ0tZcZGw4+r4JMd5RMAHMYrZDKPTHYbmf62y2d0mNp6RI7P0ygvhL8bA4flenLaYpszMWNeyisrvqyBXl6GHAMvDUGDNdDhG615bMiko9orD2tC+ePRmkBBAIBZr7xXtL2SoXjV+aD5kWTCCGtid+leZKsIos1Xc1YOqm5dkz1jlYAos/uAe/r4jiAN6Zynqur0ujrgOrh8XfqF/rzsKwGd92+DyxtzRVkuWr+vnQ37xZKCQwLEscyv6/OFTw7NEcwI0dcjtKZxbHTorHDwXqnu0UmkceTA4sVMsNz9DCxSCivLn/r1+87TiYAOUnhT0lLfLY/ZR8WoZDaIhKgVCj63kMDdSCpFp6U0DuujkX7/GW3V49osK1pkC370Z2LEliVrnM+EFBVmTc4M5ztStgHWVLtS7oXVCXZTncaxBKw1k3MD94664JgE3RqLAxrrpA9YlDWRXuFy1x8i+1d3E/JO0ZyvwQb8dR/s6EgwcOeDV5dN1WusMy1c0iqT3rVn4czCSd65v79oPWlD9psbsWuiuBx/S2BvRq87kiFQ3/d1mu0SX9vn+F0QkgGSSZPdCQ93qUEOIc4JYaT7x3y5lZdzmDiqhK7QiaApa0TqiQp1j99sN2DeaJTBBnsqtVWFXtAQfzAM31tfmBNHHlHs7FuyhIKKTrQWgosWWwhrB5MrLkWPtTeYo91peyDB9rsbE9btF7smtveAq1yTEICYcCpeH7mxBZjvltT4pRm/DHVhSXQShLzlUBVccsnMHMw02IJCZZocPGs+x6mt8lWD5EgnAKZ7BzoQ9z+Sf54RsoOqVbeA5pffTSvvhgRmUwtrKwPD6YyGXxH1VecQ8KBc7h3348OPYe0QSc7W+24lPVYS+cMpiqnzq6RCeXC3EOIcoLghw+k7YN9KTuChwMDeZPGeeCgKjK3CULr1+A6pk4ndw/tUitoNlnH7sV1frZg784vRwNt13p2D6F6NmvsdLmikrSPDWXso0NpX9oiXmdrR8zdBctbeHLdkqAgYnm70yYpN1os53Wzvl2rZcWe3IDuRV6oLYeCD55VT6/CfhsxDFuX7CGEGsM5VtI82oSmL6rvDzbAUaaJOSH/Xlav6y5W9zU4J2X6uTTqEw7mIjaJbmK1gbiS6RznRZW8uIpl4Qv6Hp5bvlfCveNC92R1AyWjIby57gcys1MT5Gxvmz07IELpT9kJmeRJNcre+trsEtRBLMd0qdOJwSHVPOSqsVYz2IJjAI7nVu2iLJNrMoNzfBDjnvsGGuMtuiBk8pp9+FC7PSsl5UAajX7votzvB2TCWe9YJrh0brc/wTJVX5qU87j31raXRr3b9XcH9Pc9GnBbkirFEIHkiKiWxksadORSQARkKIJ0Rf3lsYG8uUVT0uae5GOTz+lClIJO9SkhAJ1SoJMiF1LmeINvaHOWRDm1dhJvLV0EubKfgifghOY2xxZg2WKt3FMW3QMyOaF5EDeLhpdHD3AyUcUr5JLd11/RwpkwbD5/YjhjH9TkxwebiF+n2woLvu9AvXSlNYDOSHtgz4icZdVGp94PKSl2e3HZl7g412BRgw4Xwgca3pb6R02XSDbb4/1t9kmNpTM9KT+9r9b0/TsFtDs23vHAQWBvetgQwwANVoKgV1YrhxrVAoYTY6pX7XKuM2nD0oJbaLBthsSkxsxrk3lPgx7HFfZBw8qqhLkm2LiuMV0I+q3akQ3uTg287QIEPeYk2+pLmKdE9J2bdPG85vNVPevt2YK9Ob7ocUkcWXBjljkeJebcCgS3ckorVm1NoOglNtQ4YCwwVvc2An4b0NZsAA1Ie3xyQJqkKv+MrJTDTCB95s3woI5n1YtNMQ7A4lxmPG9Krnu1go04zt6+MpuXeSyrZH2pIs5d9wOaIi9BkfIzg+32wYPt7sWCid8I+ySAfoDXEUhTi6tOJGiVPjkp4v3F1O+sc/fLaq31pE2qzvwi0PEUbucSLNsuo+oz8kG9PZXzA7M247mHFWyIF6SZk4BxWhaCnxy6hXDCgmQ+b9dtZHMmgPEIS9zqF/Y41sdB8SKLMMRFX3CK4m3N6wmR/VX9zkFa85u4cNO/uL6TkunRnrZ4mcdLQwUyUVlYZmMMV4JdJ5MSaHyWvM71p+yLJzvcjZOI3zQlovQVVmDfgE5S3dA4yQowJDLB9I0r99B6r8ws28ViBlh/EPeMed+GBGOiJIjVdk/0puzrR7L2HKd7qk3jHnVcb+CFw2RkieK2NExycnn5vY82dJC/J4gEWE/nGN5aN08RLIwrUo4fzsrKkfBq1u9bDjS9TaQzCsndJZY0HrSJVzvIc9Wi9vBAwzLdgUXC0up2Kw2MT2QcirN76tHHG/ul9LPGzKLGyrisk8mFyAPwHfXPhYXle/fb+FHlI8lnp/qZA7lw/90rD8Y9m33Ul0qTfA/N8llZKU/7caoJy+h9Ty7yoIxr1aNZF5oI6/uHVEfS9Md1CWZcQSAEOV3CBOYN79G9GUy7BSbMoz0p+6DGzPOH2tfPgdluiWEvALfTP2SDvaU+isik+GEJ/K6L6ORsS7OfTnqsM+kBZrWAFkCgpRPRsQakViE1y6YCpvgWbuU3VEb23SrVQh8G0Dyc6+7N5L/ww+bAMZU+3MgN94P5jvXCUuwBnETo4/v/wMdDtCw6KgXkuiyTK1N599Icl1LynhQ8GmPsu56RYoUHXzlC20nsGZmUgAaGcP3QgZR96WjWtU3W/DzgioZ7EAa3BkdC16FUszsckKMnK80RL49aQbP4xi5kMlPwsw08PQeDc2/G0s5C7ee1Vv0e6UzYrw1n7AURCfslRBc3IiLHiBUbJRcXSxRuOW6OtKpAIsCjGh+nRCaxliqEVkm3LNqqrkPSWLMsqWyBeY0j8oXhvhzIZOfBigxp6duTUplLJO/jW+BXjXGWHokpOT+Rt9fHlmxioRBpj/6dDX+jDuMkzucPttuwxs5eYs/JBBaFTY92JO19g21+HsMHZKng6dSh9x+IPRSVH62EYLKTEoRoizghxFEgGEespV6XxnIX83dpxVOqPHBEQt8X+x9vlff1R9HtHzvY5hvunJVDbEUjgjO+FwsS0rJILkvzn9pkvbuk8fLRkgQDh1a9envBfnJz3n5wfa6m64e6fjIyb6+MLtpVKRrzuu/yVpNIgglvIc7UYKOXI54RZAE7B5KOnulO2jFZErhv48Z9P9ijuby4Yq/LMnlZlsk4QUElwgGlH/W3pGP6oGQnh2CVw5r6exUy4plcJWKqAxpmFqJdnpJw+MThtH1WWudZNTZ+9gla7QFQlyBNlvBw3fPIbJFJnEUuttnx4np3umAzGnSutWwcbA8MqJMuDfojUjC+MpS1zwyl7ZkD7Z5AD5JmTjQiGLZEu9/Jr9qF3OqmJ+I5VLdFfTSq774oIvn91yZjX3/wxpT9uwvT9iPd74bGx+yWzy6+ShOZ0XhiuXRCpBKwc2Dckkn9UY3nY8mmaJ/4PkzLqn3XyWTZXpJCcBeCv0fwMyf0IssGD7Fn+9t9H6Yc1vSsFf3NKhYR18ZbxkTDkAkeOFgoeCQ8ORCRyoclMPDQwYWW4LR9KSwpsqRdC2ulxY03lhzIKHrP2KgSNAXrqOcnczbDWvyDBirofU5K7Rb7sDSvTx5K24dkkZzqTvkyIU4cdZwLdQcu2lgnZCTISxh48Bedvkmh2fjmu2TwfVF9+pMYF3//i6mcvVb00GK5Dc+kLaFicc3Kiroi4UVMTADTNpq3TXXWVlCA2IxnOZ9sBVGWg3ufAfcTfIw78lLJA7CEYn+xRUCeLQ7e2nJf7D5QJ+bNThjzDUMmAEIhMvxcb5u9MJy2Tx7OeLoRj+JlMuw369s7Xf9AJursEpngxYGlEmeIIpeuzy3bmxIc7Jv4zeKwU6OBvmZG6X82pT9zMG1fkMX6fikYwx1RXrdGcQHeCnQ9BLLG+iN9RJ22KrK+S6fekQXzKktdMa/XdJ0nw6ysDILuKlHESNlxTeTD8mmApi1KnxSZepMJw5b5z0b8QCZhKcmDrceF+o3Jvkn3sZl/vCPpZEKcSyXzQfq65wrz/dryX68KDUUmJSAoSFv/zIE2++rJTvvckaw91p2w/pSKS+P6VfxyI0PlxIuLIKVnRYr4l3ekorTQccCa9ogm/VUJjGuyTtyLqwKtZF+AfuXSgOdMhudFIL+iMfAxWaokCkWLa/Sq0h14SLEM+cZ4zjffKwZ1QyjU66pCYrAkN6ExtZCH9QI4XG5ZxOonltIm3iyVt+d2QJgPZlptuCtpaSLWva8Exn4l0Pf69Xfv603ZUVknWBylW9QFKEEayKsaE2uQWQVoSDLBDOSsj7NqqM8czbiVQlLEI2p88vD70av7hFCaVM5hadZPdnIGeWSOUr84IG6BjXcuBJV7cXHPeg6mPQJEgc4A6Q6JPJ4fytgXNQawSI6KkCMyaeyKsiTBcbgcjXuewDORSlWgevW8KgRnkU9oPC3KOgpAnq7ZCsJUV+TdonlWRXtuB8Y5VglBt7iBE3SIG3IlQo0isDtCmMFTPW3uxVXX6U8RdEEmXv/9TCYl+AFSajDcPwls/PRw1pNDHsQV1AUKNa6sorsK74yoXJjIxEUMF724iICPu155R0Lqjbs5j19oyPpXC+pQvHrVPmc1yb54KG1/40SHx5GckvZWTfbcvYZ4xA+bYvnxpoifI1n3A4j2xqtr03QvDztokjo2CwoR0fCnpSBx1v+wCKWtkiGuMqBs9UuW4JDySE/Cj3beCcAheBlWyCWNTSYsB5Eeg5wzHzqUsY9KsHzsYNqPwBxQY65vXNWxk+sGlYnysz+ClUUm2y6ZpXhxYZLWgqhz12xMZHJxIudZROs9yHcdxfJzlCh7YyfwTJFF+imRyWcPpz3uiKhhlj73C9BoSZA3LU1/JB+l4iiLUj/uxFUhGE7jKu+krlldIS39zgFLgiPNiYY/KdkwLHlW7mRMh8YWG+3sveKsRLhBrQGu5UBRGMuVjoKGJpMSaDy0+8f72+0LslC+cCRrLxxo9wycbi8iZ1TpRkNWxMHB/hAJhxVxfKyvbRY/rxYQybwEFBleR2bznjZ8X4M+K/Ybni1PdafsE0MZ+9IjnfZBKQ6kSIl1JsNegWpJEJOHa1R9tKVbbgmldkB48916XtyTq/QM/b8VZvW9yxpf76CsTJPrLWzE7zQ8CwhL4LJQ3Btrm/7xz3Sx1D8s6x0li7+pVTmtN/bFTHUNX4LZD+bvbbMPiUheOJyxDwy0ezwKa4fplm3ObdgjdMsS4SRF3P+iU//inbBBOmpiAEZEJlc14Wc18fclipMCLQCCxVx/ShbI87JEnhOJPK3+PdbRmClSKgHaHAk3WTIiuSOZCrbqeMYsR/P2aqyc0vg+rfFSz4uMC0RIY/VFm/LRc+8B7+ni6IIpEcro0rLdQFlhryCgIrBsFcU8bdHRWwDPqmOSYcdxLvE+0pvvUQA2XAIKFodfDWUIfm4ch5R9QSYl0FmZRJNvzH/qaMa+fjxrXx3O2mMEAkoocVZIqcEbAb2pZl8TPZgmP1KLH/YfB6TjwIvrsojkncVtguAaGRS5NFHUHoPphH1ksM0+dzRrX5NFEp1H0uq5pfYrcAcmVTiHG/nmLfXdTJCrDVCUsoyTroR97mC7fUmEWs/r0yLmD2m+DMnK0wSKyuGCqViGEkpCUGVlA358ftnjGwIqg8eOSLCLG6pCuxTMU1Kc3FOxrTVa/6LZN1qXpYtxJKCAsY/IQVicWxMnLVM90fKNb3zjHxR/bngw3mF+NHz2S2BylpLoyKTeL8lq0lI4p/g/enM327r4SAp7tidlz/a3eRI2JjMOBbWapFTl1kLB3p7I28/uLtnrk7lfnltS4z13FcWiMtm61W9Ya490p9y6/MTBtD0zmPJgRA6EaiTTvRpQRaySyaVVe4egwbs5e308F21ob1EfP+NCbYG34mdkbZ/WmCFLQr2uwxJUREgvr0X5nvDQwTnAy7NZkfTekfZWO6oyEc/D0cGVgLpz/5dV33em856aJbLINq83c5Y4CyzQZ/pTvolMdt7Nv703wGuSVEU/Uz+y7OeCfov6HJAFSEooDv07IQWyUlBn2oIEjnfVZp2aIEfaWtxzlYDto3h86SKsAAv+qJQOEuJ+RIrHMf1Onq9qvBtvSxm9PluwCzMFuzq3vZfhsPrkOPMUT1qNpXLYV2RSAm0HG7PxxFo7B/R3alJSXYhkTJoV0cTO5rRzFY0dC8wopH5UQN88/tBgux1XRxyUBs7JarWUhFsipK7O5O3lO0v2lojk6qwGN3fbrbrFQaldhDa1wTEN0CclNFnWev5wuz0nMjmiiUgQFv26D2q0Kagiyvxtkf6r43knknfVZxgnLog2AcKAI4c/qrb48okOOy1BcUxtU6/rcGfCDokUliU35iQYWbqayqtAjJstGnpI/cPGMGTEJm8loHcfZjIZzsq6UHs9pbpAApWC22GdEu5ALsJTavdz6q/HpVg90ZPU64ZL8uTJ/nZ7WoR1prfNk3j60nkVjbaTZLKvlrk2gvZjQLJ8RMrupwfb7ONDGfvMcMY+Jw3v6b5ogKYxV9DgmemM+F1Ah555tK3ZPTQITEL79HFY/LxacCYGE3VsgY33gg/y3apLzaB8tDuX0Ko2eEQDEivkheGsn4xIUs9zmjS4TLMnFqeNGgHUlBgTDjC6tbhi44WVrePcvH2K7u+qPw4maSlHpNmo5+UZajUPDrc3u8aLwNoWKhfLc2y++/Gw+j3qwYDtgEDHmq6FDvkLFOPHRP4f0Jz48FB6kytjH5bC8SF9/qiIBCWaqPdqiGSnsW/JpARcRjlP/dG+dvuYBNQXj2Xt13R9ZKDd3eYyMLcLNX15lwgFU/URdTZLBQNpCQlN6jjARXNK1lZEJnmbhUwaGbRxsa2bpJ0y4JNqg8c1WT43nLYvHM/ap9RHBCKi/XrsTSPNilqhOhNjwsl8tySMJwr6nfe3qpraR0a1C4ZO/QCZ1hsoXGzYkj3ikJ7DWUFbgn7TWONkyAmRIVH8WMS7MWcedmCVY9lw+uwzhzL2DAqxXksXv/M+hwielpXizimQSfHvK8YOTrN9TyYlSB5ZVuxO6vqnD7TZp49m7DdOd9mXJbQ+eijt68Y+W5kcmN87OEkQjqyDoxH2q9PRIOIALy6iqfHgurC4ane3W/PeS9CeTtxRwyIkyY76FWlVf/dUp59XA4Gc1KThs/3oqbUd0Fc8nbtIBK8736OgilsRpcZgl8bKEz3RSZEsd9QbPBqNOZmQ9ac2b0Wx4TnbPCovMpyTwgKhsI6/BEMGPBDgnJuMxkJCr77JzDiokxx8gMgk0sCwUtj4fk4E8qUTWfusSIVAx5PdKetuiyyVJG3oDah/6tSQDjpGF44BlAOrBA3C/cdrBMVjueHOQsGuz4tQNLmnS3tBDQaKRCwu5ElAFsGm7x9oc2vkN45n7PmhdnusP0rUyPntOyE89xp4cuEFNVl0C95SDBeVGYJyz3RFm6yeJqjO4I40c6us5XSq1YVJubFDplos4XGNtbtLy9Hex0MGaky10dvcOntAwJzjhEeWna25KP7rpFg/MGSyDk0UNDHMRjYS2Uv5/LGM/a2Tnfa3T3V4wkD8ujmcymc6I6aoSccGk1STNS0N8KAEZjfatwRrHA8uNN25woqNzi3b9OKyraEl1qu89QBFoTxqR0iaaP+nRCC/eqLTfvORLvv6I532EbX5SRE8x8iyN/JALGltA+8zCWIOxtpUDpXeU1skNE5Z4sI7cSebBccGCIVMuIxRH6tbCMlJlf+SCNGj90UqD1t6Ffa9CqrztOrPufiLjTTfGhgPHJkwR5iUTE6sAlI0Pz3Qbp8ebrcve9LIjH1wsN2tFxIvclaKn3TGeNl41QA0S1yV+6UBcs4A2jeCs1YFnEGNljidW7HbskqmpSXi2rmVENgVbGyj4iQjSR3LVhw3i9sihP0FtfWnZJFgIeJ5MijNG2cJ1vBrbY9GR0T8qzYjAew5rqTWbt5T7CNFwp29pDZdNa1/VwHIBAUKMl9PV7554Wxe+sqoys6Rw4y9hy2tCtXF6YWU/JySucico3Me0HG7FZA/WKUoE7RHuWHw4Fkm9wEBz+Q5kE7YE31t9mVZKb9ztsv+i3Pd9rUTHXZOWjSeNG6hlC6EdbUCW9/PqDWPi0CIZD4uwcpB/3GAic1kviMiGZnJ2+QiZ3RXWa56otQutJE0Vy+gJlhW1shHhrP2W2rXv/tot/36yQ77oEexJ9z5AAJ50MFEwwvq6nTOrqmv2OfaEhqTGAesXe+W8wH7UwS79ak/BiGVzR7Je6WyqELUx4+Dpr8fItCXKAZYJrelwLll4mN45/upkcAYJmaKJc9ZXRDKdnjgyYS5UdpP4eCt011JDyR8figduREfzdonhzIeBHSuJ+kb51Fag+LAof3ub8Mt2hQ35KF0i6eE5jzmuHml0AjYyL25EKVPGZeWtLrTKlKpvptdAsRMahi3+NSOn5Dl8fkjWfvskYzaUZaISOSxnjY/ohjL7EG2RDYCGwQtbkR9dUt9VU6bx1JgKZYjCeKpHJUB6xEyYcO/Wz9vmWCA91V0cotxOiSR/OSE2ymUhlZJT6HZ0Ih36uL+etkWfMz38qur7uaN3vQwgjE8uyIiQalQIzz0ZLIRLoZFEgh5grHw8vo7pzvt7z/RY//10732lZOd7prXI0EoBor+iJFXuvz30nvRr+vQfVmuID0IhNQlgUvenDggJfhdWSWcW3J5cdm9uCLvoOjzumO9bptcfKg6dookT/Ym7XmRx2/Luvvv1W7/g65fOZqxR3tSfm5/FMHud3yoQCzgeH7NrwJvbNUGak8cFbol3DuTLU4sOw13EdZ4ZBk262SyzTPpbwkOnAkQKGVkSCxAwtw/EvSRwEdo7dQFMfIc/R9QBhjXS2oozkvifB4/dnobNC0uLj70zTojKTCVW/Eo1wvTBbvACYa6ppcKHtMxLxMPk4/9i0VpK36y4f2SQr8SR/E1CVU09I8cytTsxcXdMbMJUPzBzQX79o15+9OReRtXOWITSam3S/e5p/f1i1etybm0U+XnvHo0WtyuEXxHOpOeLuJkh0ilI+EpHgZEng8zaDIm2mX117+6OGN/qf46P7Hka+7rFu5G6Lt4uz0hy45TRH9bCg0u7TsJxvj40rJ969Ks/eW1WXtpSmNcFtRWrC/Osc/LWv/s4Yx96njWzvW1FT/ZHAjoESk+/+ztafvmtTm7NJW3aVnSm9ZfDabq+7g505W0j8maJbs2jioI+dV7B2VdQdR9f7rFjmWjVYjNLGef5+q779yc09xbsB/dXvTjsb0u91eHoqrQzwy2yypP22/g5KN2a1ScVz1eGVuy378yZ/9xZAGNNVq23li3Yp1OqH3Oap5//mSXfVJyjawI7ENvhUAmAoTLZGDu58TAnJt9U9bAO5oQpDC5IYIhrcKErtv60m3sXv6o1HJ0gjqDfYL/5EyXfVivZDOuda+AW8/rGZdFbn92eda+JyJ58c5SdC5GjQS1DmYrYPDwY+n3jcAjLdFkp2RdEXhJfqZjXQmPYOeVFBhJkQzr8Cwhxi3SfgctiNb79lTO/smbU/bdm/N2c3bZtblNhakmb1+q2S3jz4hMvn6iwzNi7yQYU5Txz9+dsb+4IkKRQHlL5Lcpmei7lOazB9rsM5RRAvLR/u0FZFVkIvAuYonnpIo/894mo7GuOCsCf1KC/0vHMvYRCX8cEu6PdwpkwlU9mTxUy1xbgbHk/tcaWGjfh6UlnZXg/LAGxaeHM/bVkx321VOd9hUC745l7QvS1oiwf0LfeYTNdn3/jKf8TkhrT7hnU63uwABTH4uIPDqX5pbt1tKqebb5crf0QVDmAj5wyHLaZIc1OE6qDudkbTzbl7LnVecvH8nYr53otK+rvl872ekR65+QtfXkQJsTCQMKiwXL62EnknWobdExsB65CpuRNCj2Ax6EaMYHpCXvxsFfPsZ1JfQP7sjNPPM+IboRLD9NS6Cy/3NnYcUmNR4ho3qBO/kyiu6JkjShZ43r4nXHLjbUF5fthuYVHne4/27VTQHVI5DJfWB+sSnKnsrTMu1xJf6atI2/drrTfvVsl/2afv61o1n7tITuB3pT9mhHwo/dfFxCllT4J/R3eIdtM0/LgiUT8m/dml+xS9L2bshSIq1jWTJhijI7ihfnz99z6XNIjoSTCJNsQua+iJA6PCVL6qMiyC8MZew3jnfY3z7dYb8lK+tXdX1RmvNzhzKe5bdP32eNPwZXPrCAQDilkKvcpm1S1h/JPw+KUHYzeJO+bxGZNEEm2zwWGUs9bohMbuoiEr7u8SY8n7o7y0kU7eTFuq2ew/r/hObWggiMeYZFFVAfqIUDtgPHWTHZ2TMgbfqZnpR94FC755b6yiOyWE532Zce6bJPSwA/ORClUC8zT7cFVgleQaxvj0qDmlgo2KIG/yoTGQHF4L/niv4umpjFSaPJk5H1gEfZIyKKp1Xmj/Sn7DODbX7GxddlefymrI3fFDF+TST51VNRcOEXT2btk/rsfQfa7BFZKhw6th6TELAtkIm+VAOLrAvdTdrN+0mWiQQbJ4VCJrthmTj0GIaHB9JS4FK/lopbAm/rs5zen1N18GgipUq9uSTgwUIgkzJgvhGrgidMn4QrGYof72+zDx1K2wtHO5xUXpBg/tiRtGfzJHYgjvBlmR0yIb6EM95XJJwSmsQk6CPjK6n2Sxen53UlotQlLD2xudgr4dSXSfhRwSc7o1TWH1B5sTpeOJC2zw2l7SsijK8fzXjess+o7GywflrW1scOZ+39B9N2TuTDhjCuvQ+rZ1ZNQNgicUtmyVbtpvHBUtOA+quvjU3g4vu7APbxvE+dTIpvvodNoneIryB1z7wuxuTDpsVT2436WsD2CGRSIyAMJiWBiYckFNhnIf4izpIFgxbLBPOb+/fp3s9KsL9wsM0+iTUkq+Jzuj4vQuD68nDGfkUk8Nd0/ZaI4XdkHf1nJzvsP5e18bdkabCx+yW999kS4en1I/obiPB9IhdceTlLGpIktkY8GFADEDhk2J335a1tpA/vc2ncuImw67OvyR0n2nFH5vlbKT1ezjWbEYGMihhndLHE9ZBxiTvkLGFobtenAesIZFIj4Ay0PALPujQ50eL9cKfauWQd7GuQeoSEiB8YbLfnD2fsk7peGMrYp3R9Wj9/Rq+fFTF8XtcXZGl8Ua9fGU7bV2UhfZX3RTYcPPVhXc8eaLenBmU5iUBIbcIRoce6kr7Mwv4O5Y420+tQ+IcQyBlI5J6YjJJKe88V7V2x5+RHOO9ye/M0lIbuVOu6A4ULgGLZNpZzTUKUfQUO0uK4aM60L2eZcH+UKeaFJ1LFQCsJ4j2/9E/pZ1B63QTUg/kd1aUoJP3vN9xj/YreI8iT9uG/RgZ1YumaiywIrj9uqMfGn6kPjj8eA6T68fZ2CGTSQGAQO0Elm3057SmRwHNHM/ZxWRSf0OvHRCAckPOcSOOjIoyPiDD4/YMHZWkcbLfHRDyQBS68pHk/3pXySHQOX+LwHby3cINstBPt9jtc+KhdIQn9H0Ga/HsuCWfOd0nr46z6YLejcyhaN96KWQ7LarH+hMYDHxTLdk9ZIQGRyBpeXCKUvKTKOlFuAZQgsnJndbUgeTbeb6+vYv38fB1+30Yy0of0JUvIh0jCCfHz9dK9Nl7F+67ownor10Z7DWTAAHt1Un5Jq5OmvKW63Hep621WF1Y3xxKUVSZCnEljgcFIp6Hlsn9S6pySjALkdcKK8EGvK5DD3oI5RjJAzn3/F29O2atjS8VP7oO+6AJX1uCpvpT95skOP9q5TR26TkI7CMYSXoJ4Z337+rz9QuUcx8Ejv7UIYD/ueSkxHzrYZmelqLCUuxkYtwT+fm9kwX4yumgX7y7579HAbITRqQJqPvW0t/oxxl84JsXsQNoVNyy0jUATZ9vr7Ykle+tuzn54e8HenHR/yl9OyHVE9z3ek7Iz/Rz+lrFn+rcP8NxL0CdjSyv2HfX/j28veuzcnMcD8WmpHaI6kfWcfdiPH85IYW2zQ+mEZ/bYCoFMGhB0CAJqq44pdbnkUvQavQTsIRCmCOq3xyWgF7c4W1vfoc9wze1qa/UDsXyfDWVglzoRJYWAvBEJEcq5oDJvl8gRS/aAykmaIITL/YJ3Izw32VzBxnTfGV1kTXY0wgAtFgXHB/aMhmSdcXgd9bl/n5OvMv9wgplYWrY7qhNn2m+K4n2zapsu3c/3ICWAGxX0Eecj3ZxXvTQGCgX1//39VPyVbTXaZqgzaQezCc/Evp3nYSCTgIA6gSC42dwGIboFiPHgpDsyBrub7i4KW4QkmjdLF+R+K+h1jTe3ACTXlmiJMh6orNvIEifUBQkq9lcQUNvdd6/QpMYmxoq8eSW3963an2UrrpwELn27HdgD48ApBO52hLvXiBx8WLpa9Uj/So60gHz9QK1t2goEMgkIqBOYSAjQsjJUE5KFSQT1XoidqJzFn8sWVmVUQSstK7eL7l/+vnsCr0S0LFyuTl4Dr0/j92k1iPqnVL9yFaOdKqtXIJOAgICAgNgI3lwBAQEBAbERyCQgICAgIDYCmQQEBAQExEYgk4CAgICA2AhkEhAQEBAQG4FMAgICAgJiI5BJQEBAQEBsBDIJCAgICIiNQCYBAQEBAbERyCQgICAgIDYCmQQEBAQExEYgk4CAgICA2AhkEhAQEBAQG4FMAgICAgJiwuz/BwQ68Kv/VpIXAAAAAElFTkSuQmCC;" vertex="1" parent="1">
          <mxGeometry x="525.49" y="610" width="157.01" height="90" as="geometry" />
        </mxCell>
        <mxCell id="d-z6-dSJOa0beq1oyZxt-2" value="Text" style="text;html=1;strokeColor=none;fillColor=none;align=center;verticalAlign=middle;whiteSpace=wrap;rounded=0;" vertex="1" parent="1">
          <mxGeometry x="570" y="740" width="60" height="30" as="geometry" />
        </mxCell>
        <mxCell id="d-z6-dSJOa0beq1oyZxt-3" value="" style="aspect=fixed;html=1;points=[];align=center;image;fontSize=12;image=img/lib/azure2/devops/Azure_DevOps.svg;" vertex="1" parent="1">
          <mxGeometry x="710" y="636" width="64" height="64" as="geometry" />
        </mxCell>
        <mxCell id="d-z6-dSJOa0beq1oyZxt-4" value="Azure DevOPs" style="text;html=1;strokeColor=none;fillColor=none;align=center;verticalAlign=middle;whiteSpace=wrap;rounded=0;" vertex="1" parent="1">
          <mxGeometry x="730" y="710" width="60" height="30" as="geometry" />
        </mxCell>
        <mxCell id="d-z6-dSJOa0beq1oyZxt-5" value="" style="shape=image;verticalLabelPosition=bottom;labelBackgroundColor=default;verticalAlign=top;aspect=fixed;imageAspect=0;image=data:image/png,iVBORw0KGgoAAAANSUhEUgAAATAAAABXCAYAAACDfRmlAAAAAXNSR0IArs4c6QAAAARnQU1BAACxjwv8YQUAAAAJcEhZcwAAFiUAABYlAUlSJPAAAGlTSURBVHhe7b1XkyXZkefnEXHj6tSqsrTqqmqFRkM0ZgY73OHuUK0ZyQ+0+zA00kguxUegkY98I812afvAJWeIWQywg4FoAC1LdGmRlZXy6lD8/T3urc6urhaZ2ehGAelVJ2/ciDjKj/vf3c85ETfo/89W8M88WTD+3EvlieJT5z+mz7smevb65HtIdYFS+XX/9AX1fi4dMK/aXuQHa7FyBQftLRUXX8Toz6RJneXn3nLKI3XKDz5FyhEWB2zzYcir/Abq/RxefBGJTYUE+sB0wIqD4uCcIuNBZdL7Oz7eLwVqczj+chAaN/kwRTh9Xgd07cA6d0RfEzFAR2N0RC8ofeyB5eWJ59FngZDOfxZ2e5YvoRiHQtDDeAYHRVbqLA5RL4bngMQw5QfN/Jz2josqPz67XOUMDtrfQwxPSYcu4AB04AFyOrgvdIh6Dy5UeEIH57GLxSGGSF7YU/rccp65uOdr0PufQsUmABjpM/jweeyZlPU8Hn5ePpHn/aKbPovIVwLJM537ErT/HHvI23vAErzNB+ww+Q4hp1+CPqPwQ4D14Rh9qMyHpIMy+jBt/p0O7ufTQUGMbIcSj2cFeh/tmOQcAxgnHMD2z0RVeSjFOmheb+7B/Ddn02HaXPa6PNwPwd9DA9ih2v01k7PoAHz6oyQJ9Pjw66TDjJHU78Ae3DPC/Lx2fGbbyqBRdOg5sCM6oiM6om+KjgDsiH535EaWP0fpS6SSZUe0PzoCsCM6oiN6YekIwA5CspbPtaKfn/h7REf0h0Mu1uW87r7TV6QNRwD2tdIRhB3REX2VdARgR3RER/TC0hGAHYhKF3i///T/j4/U6aP0xenFpL3yvZ9/+v9V0BGA7ZfE+4nM7Tf90RGdfpYHR+n5qfzzghFt3tuH/aSviI4A7IiO6Ii+dvqqMOwIwI7oiI7ohaUjADuiIzqiF5aOAOyIjuiIXlgKuv9jGY4GmX8/EB36Ye4D5Q/I97wHPb8EHbjOkg7+WhvR3jZ/+XJeuAe5RVrteNHa/E2RxOJQL0M8IB2yys95C9fnkrr6ie768XMa81ntG58Pdv8HYAAhC0mHAqKDkADowCCkvOPj/ZLyed4DFOB5D1oxtHfUPqMc7VR+lsq3Zh6QV4ehpyB0wD4fMFvZ12+gv4ciOntgJaKvekXx105q8/jw66ZP1LuPRihuHN8e7PzLEkKiw/D+oOQgdMAoVm09MPiR2fOXX/dHyjvOv1/y5u5t8/PKKU88i2HfGICJCuzsQfp7KKKvBx3fb4oO4yZ/yiX5msir/NoHd1zvAfsryBjDxtEc2BEd0RG9sHQEYEf0+XRQb/OIXhB6sQf3CMBeGJKgCUy+5nREXx89j/+/8zSu+wWl3wMAe5ahXzIdNq9/HiDp45uib7LuIzqi3xv6WB+/cQBzTNHnfhMZJ1i0b3oKYgdI5Z8jOqIj+iZprI9fDYBNlHvfSX+O6IiO6IgORr8fIeSByV/Mse/04hKtd5f1a05H9Lun5/H960gvqEZMWv77MYn/PMZ+UfJ8B8zLf/98yob9pI8/juiIjuibolIfvzoA26vjXzL5x+Rzv4mM+jwIPc35iQL3kY7oiI7om6M9uviVzYHtKfNLp/LPER3RER3RwejwAAYIHeHQ756OAP+IjujT9PsxB3ZEX0xjQ/FNpCP63dPz+P51pPLPi0vB7r+kC3Qi1Ot09Gzl+KFS9Ssocn8+9eNnTHUQWRLEloVVs0qdM/zLU+4bmuV9K7LUipRLcdWiSs1S8mdeZOx5C39Al3ID5SFvUbE8DyxTG4LM+GZB2rcgG9CG0IqwYlmlwSf1BSH3Z7R1RKEJdSXl/U9f6kHZKkttiqISnmmbP4wMFeQvPIf+qS7a6XmonFsyOpqTSS8FILdylHm5rmbncWwh9Qcp59QNJScOfFHgGZqc8nvVGJ1QmSqMdsBcpZC2uCXRGOgWNYxG5NTr53VOzcgiihLvxgVTjLKUvSurUbv1WZJyw/Mgh3/UASssIXl7SBoSblEXM3Uph7+0M4R3ypMwkEFIG1Qo+QpSGHKdMSmi0Ljd0lwXMqtqbLjNG6O2ih/0ISBv4PxVmycV65jkGaDJp057g0jU7wV5lo9v9FueofIqVyZjoIYhVxbQNhdgzimpXbpO/wIxOZH8cS99YlAZixFyKNngFu4Pab/P0SqNC+FOcZS/3DWuruykzpbn1VUdBWQsJWpMZUOdyqzUPzmnTBpM3UzKaVc2fphdva54P8YFP4cQ+6fkrNbtfEiW/ZKyjvN6nV7POJMucOiXdYrkV3RinMfJr9Ea1xMOyRd6Xl0oe1neXnLraWbu0VFOf5RX94aSe5fj8s4J7X0Ty9MrfvDxeZG/QgeK/vl/FP6VBEygo1MFncoYDKUCqdZ7wryf3j4EN6hbx2asV1214cxLlrZOWF6bt7QSITcDG6Hcw35uUXPBKq3j1o+nbFCbtax9ytLmaRvEqzaqLlrebJNvkSKP2yBasU60bEF11iq1KRRtaOGgq+ZZGjZt0Dhlw+YZSxvH0fs5ZBtQA/FGgGVNDVfLvfEkhDLLYgviBgkNdQUrr9MqS1QeyrcbJS63NQGdZJFiBmj0UECLgsYkHxhp97AAsM1GrTa8AAhGGj5IPOEWfRvLmsuY06Q9qlrFhLRJSqlz1JWNmjQ1shGNCDgRcikYcI3mWo0UMwbc7GxXHsYhT5v+2iMBxoTU+xHl64y6WSF5G5RMoN9EtxC4Cv1V+WKrMqnRqqdO/Yz/MOWeYZVj6qi2AKgKtyaWxMhAnfKxT2mHLucRPGhbVm9bUkMWMCIjmFenvaEUWdYqDW1Eo3L6VtTEXxQ1QagLjj2NG6j/4p/4ozP8CQU8Be2mR5k6KwaMs+UumxSv/irf+NrkXVAqw5VXzIBXBUZV9zgAyyjQZ0yfZbQpRw5sUEfWWuRtk/ga9KzPZ0+3cj9DJnHyPANuGNGYgj5F1CVTWDaaJH2pNOlHCW0plY1osEQnyJE6nRRRltM4X2ks1UAuyNLDY+8PMpnnVevnNUvgt2qLdY+DOjQpT6QySTqlqypT9jWFB3Cd4vS3vAhGPy3C+VEVY/lkbMr28KGySC53orLQ8j4VRP8z0hAd0slIDNe4q++B8EGfXmNZL6RxVfdGgLJcjsTlUuCtvOIp/eVu5RNoq8hJW0Tj4iAujEm98v7987+M/mriaSmDC4aGh8rkbaif7jyIuKFA6oeVWbOpY1ZbvmDx/GkLZ88BVosWN6ZhHIwfpha3V606vWrh3GmLFi9bsPCK2dwVC2bOWzRzkmvLFk+fsGj2jBWzp6yYP2Nhe9bCet3SdAAIITLTK2aL52y08rply1csWjgDMM4gEBnKPLJ02IOBKd/prvrmzAbYEJ6girckcJK3hhDRVwSD9leq9LFgzBLAr7Cq8pJH/c/wUhL3OAoEprSeNKQEFfKncQ0BoD53Vzg34YuOx+SHasuY194snWRg3TfUCYosspqDYk5dFRd5SJqi63W+4b32uFFeWEWAQ5+SAoWjrEBWxQvi9LhuNUVlSP6d/DwaiFBleCIZ0htJscUj3awUcxMFStjVyDiPsfSUAJ8CeSOorepzGaBtcmgkt0gG3ZEniLcNssmnrctlEaU0Fp7Kg/OMFKBDB+ixoJfCNuYhpD6oNzotkKMlHKj80nuZ3D5hZnnfJGnsSKpjfC4sMBZ5A/4OLdFYqh7Oy5a5vklx1Y7ByKJUgysGD2kHXj1HzhoOZAxkK7xugERtq1BXhRP+AlDdrLIpi1o4FFipLErg3KR9uur3Kom8v3iwfsCR5HNSnnjG2OuAEfPiBZgVdVCDp4895dAZTsFvHU7a4kIhoCUBNj6Ik0zq3CRhpBzhXUAx0vx1/SeVJfjpknTCT8rcSlTpF3oQk0lApLo9+W0TgKexfHjTVY7Gye8FeNQnhsAzeS7dIkgqT+me8tMvje/YQ/KcdX/3v69wSJOoRHqJs8FACg0rVmOUYtWu3GoAt6Vh24Z4VtWVlyw+/4bZ7CUU7hxKjt3qrVnvxj/Y+vV/sJnpaZueXbDgzHfMVgCveIk62xRFQSn3DrcoF5ODhSfeRD+rlmzctNHjaza887Yl6zds5tQlqx+/bDuzr1o+tWrNCpZo644VH/3Ehrd/a4PbH1gl2aWdo6cddAsLotdqDQwMHFK78BIchGMUr97Ec8us3x9YCy+uolHzwSwHbpekbHU+HTgk3/JcoGEVAAPkKsRie5k7Ibcc4p8+NWhOGghCD9IEwFzGsfwpfc+QALXfrbTqIV/RmrIuYNnh/jAZWasHmDMeeVxHrAFdBiJUIblLj9fhDHBNU4cgeFCgcENSYX0/1RD6xBgFeVtk7xW7lNS1Kppfh0EhnquPs8eKlCMBU5GAgV+QCQegVI30368/TTSAzucMgPQnoijxIqWuCAnDPyMTCqOMjiRibBmu6ZKq1R9GmK6QWf0QaqqQcZd0j0LcjxmP1yWlEMNFGkdXVryqHDmt7Fi/0kNG6DZNj2hLiIddtGX1h5Z1MccSGDVCfVC16oemKwRsSQkMmlqwSGOP/GAQQ5+W4ILqUx4HkRpf5UJRILKs+3OEIEfWIkDew+hJnoogH61D/nJkUzImmROehFXcXcZePHYZgk8aa4eNMdDJm0lwD9OwRqoCth2rwXjPD+M1JaNwTTKnVPJE9YuRRTmtoxIZF4dK7s0pf4i+YzKdHRWyyA8Wnnqjn3oxOWKqhDzRpBrpqQzoFh+bcV+9/eMk0iUl5wEH6H15n7zn0oP29noZkMaVNntY6anMXv4p24MHRgjpWUuS+ymStawi8MHYVfRb6H9CS/O4bdUpQrn5ZQDsjOUzeFj1JbR+3gbdHdvdfoiAIOgIYH3potnSZWTqpA2aK1bUpyxqIGARqTYNF5RmyD9tSWfLOo/vW29704aj1BonX7P4xBs2xHPL28cZ96oV3Q0b3X/fso2HoC/gxKilgNWwFlu/hntLKKP5GVmAAAUPFAa7xvFfXlVFVjJncFAsjaRGYiy8Qz4HJHSetodW1Xi7dfKRof8MLghUAKTOcDF0nCak2Sz5rZkUhSSFcxmiTt3m1g2BieRpwCOf93NU00USfO9WZ6wPLxO8WqvNIdyEJ4TDOV6PYn9Bob/WmvYppHtqRZVf5ajJKKKsKb4X9QN6aoMEpjIPqOHd4aUkmrcsRtbQafFA/VS5iaSy5INHNmmdUJJwvhkT8o7cSMib8zm1MWv8j7J6H1Q9rRT/UE7pTzknqUZwDkUsNCYwUFl1St6Tt90/dJ4vsrI+n6WTlCdknAi3yM+Vn2UjuNcBEpgn36heI+yfInsdRxoAShUia04V3lBhCj8zbuejLHZSNJ6uh1V0JoCv8rwi5EzhXiDA2QtGGEUPqygjhJflGIo5ajtejbpJwZrjTfSd40AeFgAkEHMg446Ec8NKi+iB8JObEwA0TxkfnwIRgJW88rBcSOVoVco5ORBfSlJ7+FPK47iNJGosO0j75dVp6iKBt4n6xj+ZDIWFKjvnHsm+jK54WVH8LZ6qDC8TQBkXJ/DzunRpb9IfferahLxt4yTyY26SEQbkS3lwn5S83uiSxsClDycvWhfLG0oA8+NSIX1+mu8RAhd7vACjVCCFi5fqdFbBE2hMWTg9Ryh5wnp4YVk8b3F1zro7DwGwj2w4eGTD/iNrLxAyzp233foi3k0dX0DzazVCDsXBCpPq1Ee4B/O6927axkfvW397xy1369SbVl39tg3a57A4gFy/a+nDG9a/+jMrNtesikAUjbalUwt4hW3rN9sOLqGAihDTRrKWHLuA0wU+ZGsC4pkgpv4RnlgHHtLFotayLkKklEV1eIGwp/BAAKHJEPgTwGgJfoYn5PxEEcUaVz5VQVIwmGmSG6sc8CkXvgRTtJ3rmseRN+L58Gg0kaljLxDeZ1HDdqoL9OWYhUvnCLNXrFKd8sFO8y73lhYpA1lyzcWhqCGxaCC0kpZIENQWlFRgixpoOs1i+pjD506Od0eHe/KKgr7VIgEY+SSjAgsUd3uYc53DWsB4Va2Dlg+akfXbsfXwyPFd8AwRYJLnk8CIuShfilgXedOiUYuQEw9g4v2CkALflPYk8DHVuMAH98wEVOSXJyWYlxcgkjdWdkYF8OlKpTT5zof/mZxTY1BCeDGiH8n0guVzpylvmvpoz4jy8SATwD2t4sG06njBoQ0ACIGy8LaqqnNkQwAGjwUPSgFekyucT0lwTdVyyuq0kTalKGJEv7wQkTxkxiNFX3I8T8lF4pcBQ2RPsqHzOR6UFqlGgFcXoz7kpv5gYAkpZXxzypDj5SJMGyKigBBjVqHdMfJTLQYMNbBYdl0V858MIKfmsHMlTgkakDZSCV6ZAIzvyqJuFOi7A6MAawxacmI0r4l0cYPKVecID8kkeRI7nPZ+ahwmiSxOatskfeJeblD/KFZN1rBLVz5WCH3wSdKHF+vtKi+JxgC2JwMXNXdUWhydoFTnIIXwISYQWAJCCjEpsTbvXliE0rt7PlrHJd20AAALug+s0Z61uN6wvDkDUEzBtLKuBhVJgLVoUBluW7Bzz9Lbv7H+7XesCXem51esfep1qy5dQC/aFo4GFhJe2t23Lbj7c6sOtlA8BnJu2aKVCxYsnCCdBEQbWA3KHvZJQ1feCv1Rn8Qc9UHjUCAoXRRwF6AKV65Y48z3rLJy2WrLFwGMWYAPi40AhdwnQFT4VAj4NHACSQpRWCAeOUOduRzoVr7Kq1L4HfPpU5Qe7nEZnklgSistJYYm7OeLAGy3tmTZ7Clrn37VmvMnrdmaod0jPNTHgAICmxCSIJgOzDXArT4Lb7GH6qNiOI0ZManAUY6ZT3XRPjWhl9B26q7hQrVsl4QLKuAjJZVZ67WOW4LRqZy4Yq1zr2FALlt1BZ4cu2yh5iFnuNY+C59n4EPN58Sk1EO8lRHMjfBwFZIE1BPI4nk/uUdej4CCRmheT/2Ox0pSaickKYXIQQ9ouwaKPmgRIlCMreSySv80taFyXTHwTxgIVNXrSCmHqxYdu2jVM9+1sIkXW20CSh3GHotF9BDNnbLa6pt8XgSv5iwDudJg141RRasECuNkHGt1rmNgK7RDMoCXpbJT6tZ6Q4isqq0pQP20eSJuKuBpRn9DDKBWbgUmEpYKnnBA+YpAwvaKxYvnzJC7YvUVixdOWX3xtDWPX7D2iXNW41Pync6ds9H0SRs2lwG7tutfmmJQR30v071rIZXGUtWQ1BdfJVQLGRt/ekVyy3fJhhs2uK2QWHKsVVcXRO6TMdHcnHRGsu5zDiqL/xJzqb4PoucpLwkktZBRRiCarEfyNcYIn8bQx6tsTplXSeUpTU6NzzmN6/NDzvv0gcoqTzk5gOmMu6jklkAJvCJ5Xmp4RsPFGC8IIeT6CAsnKzrEwykac4SJ50oBAcBihKCtiYWdm3hJH1kVZa/AyYrmwwgTBxJPOoCNpi3lJGOwc9/swTuW3X7b0nvv2tziss2dvGyV1ZfNZk7BZMrorpvd+aUFd35h8aN3rJH18QIbDC7KdObbFi+dR8EuYhkAXphddDZM7pUbSI2UPD6sjoBrgGe+g95u06Od2nFrXvihNV/+Ty2inOrxl/EJEa4hitYh2gcIZelwKdwwiy0Cp8nCgcbFB8ZHFUGC6RX4FiFBIUnenm70hRJnvawe53Q4yTseJH1PK03apMWLizZ34XvWWD5jYQuFG+xY7/FNi4Ydq456LmBC06K9bPkUCeDWClmY7pRgORYwjSlD4Mc5INMZ4nEBMlPVxOJitxQmeNGlizutEzZcumLhue9b+6W3LL78A3jyhlVPvWL11W9ZtPiGxbOE9TOvwtMlQpGG9dM+vFy3Ha3U0qRmXf4KhQ0EsHxKiwQyAIBCKJw7l0s1qSZmCs4lnc7PkhHCD4WucjALAYcQmDICjuWd0TsH5kJlM77FxNuE70MakUt7Qdb6ue9Z9fJ/aNXWLM4+nnX3HjzYRBaPW/3Yt6x27j+xKn3KMAApofEgvYW4A4MDvNw24DK35ACWKHzXBH+O70kdAq+E9mQ0PUdXNHOkkN4BQx0QT6U2EnWOY+QvijDunJAMuEGttsxaC8jtOaucfN0qp75txdnvW+P4JWsj+7UL37bowpsWnubz+Ks2nL1ovfYp69YWrU8kMyB6GA4HNurtAg44E3WAFu8yw3NUO57KFCSAEG9zyaBkk/ZqcbgGXyvSFfLJSLssK6pQo9Fv37I0ziOWeplKuk8dRd4Mp0RzbiP6794dKQUHPAnIGOOCvgtPBGSlZzrJTxqTq8/4+Gk9JP/QNXe/SMILv0dXGGYBWDnRpxtkEbnBbwbS6FgOyrsOQnJ7FXtrO8LE24jqc1YFBCxEgXCFffAQ7GxrE/dmFwAYwdSB1adXLWbA8hTLXbStSgdVTxowCOvv2eDG39kIwDMErH7yisVnX7ds/owl1Wn36vKND2105+8tX3/XQnl3BDJyiIOZEyj7JbNpFH3mYjmfkSSWbq8hsGvuIZQrOJI2mJgovCOw0ldC4HzhDaud+ROrnfo+XdByOorw6CMbkaKdNYtHO5QB07UkVUU4xAhpF//d+AgdNGMtnumkwJ7bS0tIva6Yqp9b9AfG+6dIB0rc6kQRRUQYi5AGhD7Tp16zqL3APYzF5iNLH9ywqLdtNRDYPf3mFJ7SyxadfIX+c1+V0KT/2EIE28fB20jbpP3eDv7Tv0ZFAIt3pPkC/qe1Kl7XWQvPfN9iFKZ67CXkcp5c5MOLHVEnTp8VwwiDNIWyzFu12bLq7LQFLVC9ISWW9zL0iV/FYwp/tHwgMVEx6ptYI9nVIqBSKHdWF+SZiFe0TdGkomHl0/SSs5fzMrDineR2LLvOO42BwNw9Bk5JeRX1a4EkOv2mVc7+id+U4ZmO1t63ZOchgLZodQyjLVymAhR/sInBu2O2dQ1ZwxNDOBorpy0+heeJTGR4N3nSQ5a7tEW8ow4GIAjw3sUl2l9TH2hQFjY5p16O20OK6ISUV3sk5f1EtCeo4zlPrWKAr5idecuCKcASOUoZuyGgZIOehX3qHOFRAhDSrbg5ba2ZeWtOzVi10bRKDachJvIhJBV4ySPTooH4NuH5RL7ET7Vbc+f69C09MszIhd+mP2ozYFUBaMvAGVCDoT6GkzThvZOMBXWPZVzjpLKlc+UcmuC6NNsaP+0ecE+uZBXt04363JOeoY/rpgQlr/9jHSqzOGAhTADY00JpUKa5CuTcY3dVyrUKAFblVjmIYQqjt/GM7jP462sIuDafTuMNoACNV2DyZRt1UuvdA5ie3DXrbFprGFgtxQZQ3ogGJUh7h1Bz7f7b1u09RJ5o3MKcFQhQD88Dp9/n09LtDwHFdy3r3bI8HjLYQ8KWLUsAR60ABTUAcgrgm37ZKtOX8AyXcLVrlF/qqSuwJDtrMYhNw2AhxFpNvWLF4mXrYeGS+jK11ZCdnqW7TwhbdyzG6ronKr74PAhllfJZHjuoj10zcVt1CcAUySmpAbpfTCWPGwNvzzjJhRDffaR0V+m2R4xHFE+j6XOkWeqYQgAQYsqOKDNCUipt+nL8rFVeesMiwj0j3MhbKIZIddN008piRvsyrD51tGMEU4Kr8I52qQnJ1GkzeSQX3sIb/Q5hy0VcqXmAK7PtrQ1bf3LPOhuMAUbJFz6atOfEeQsufdfqr/yp1S79KaD3Gp7iKuPaZEyonrLlQYHIJBhFNuRbZsSqzkr6Ow4/HNl0L6T2KOlyjfs8/OXEhG8OYJzzpHvH53WPypZnoaEY0c9RHeWirRkhuCkcJI+26LiH6sQJSNsiKih/Te4hl/oAQkgUYGcxjKvwd34FmcMoU6N4WEEWolCbuBGiNCYvDSWf5uwGkQAPYFFjxuqkBk48HylxOR/KBSISw0jbiTfcEEvJR0QN20/Wbf0ROvHgrm08XrMejkAAYLZn56118gKh/as2ff5NPr+Lwfmu5TOnbVDUbOgLM1SnOsf1lzJKUlcnxyLdN2GD7tPgOMDos/zq3Jnkm5Sl78pLF3T7CEUWgCkklaNQRba0Sl76X/Sb87o9k4cmpdd46QSklVK3xHIAtIo0afOkjjF5OyBtjlY5JYiVNF6FhHQSKygE9/AE8vM0wNFZCkZl5W1qGPUhNWFYo01VK1otvIY59GXKUpSuko3okLYrPMTdfYKyzeKpTVtEDC+vLafNeYKH1r1j/Tu/sc7N31i7NW1zx85ZeOoty5ZetSREGNKRBQ/fs4AQM3j0vkV9gEXtwqJquietTdmwumoFABY1Tnj4GCGgw+37lvTW0M4d19WINoeKAXMsLgwfpEM8sAsWHfuuVfA+gpklJPe2ZZvvWnLvZwDue9bMB9Ql1zsmVAoJk/D7tM9ETKQJvgEP5dScjvimSVNdc8aRxphUftdA+Qny8iGMGwJ8/WiOYxQNq1/AM01yDyqEjLOnbIrQwrDUBUqXPL5txf0PscxbeAk9lHLaUrzaiDApOPmqjaIGIT2gjueY7j7CIyjrzaOmt9MtIqgQoNhavh/Ak4RxSOcvW/Xcn1nt7JuE68cRyMR6D65Z79ovbPDBT2x0/9fw5AMLH1+3CA8m27hqxfr7Nuzet9FI4UsVMCJES9u+KbTA+ZOTX6/nVhB69eWNEzIJrDT/IiBSRO+80KIB7RwAiiNAvIi1LYB2MT7y5ARKrmQwS6xNidkywqecMmVoCsZFWKCLkT7HyiGg2uLQVl62YAUejvoW4NUkt35r+dpdQETeEPKTbdtw433r3/8ZfbtmUxvbjEPNOoDQ9PHLhG4vk5fwiPg62SIK2NnxSf6AelODr1qA4jgWqOOiatW5A7BV5aX5Eq06QHtA1IGrsxYyXKIIW6dt1D6OnOMFrn7bRk9uWnL1byxDzgvkvYE3WNu8Ct8/tGLtQ0vXrtvo8U3Ltx5Z1tnGuUCekf3m4inTymiy8xgwF6MyDITmOcUItUt8I0kYYoBVoax0Wswa88tDNB0rcfw0qfnk1SySVped1YxlzpjnRApDYEorpvLaYvo8ni3xELTcDyc9oSYq0PybAEggrXCVZtkAh0JQo6Zqsc2/qIy95MrOadrjl3WvylD7IAcwFev9ofOaA3CXHCZIxgIJnrLwpaxeCCgvQatbqjS0ES6a9i5FSyuW1RYAsJbVAbYI89nbuW7dzj2Yp4lLBnfmJJZ62ufSssGa5Y8/AMDetc79Gza7eNLa579lwfK3GNwLeE7UwmCF935pAYoUb9z0uSB5LC6AGhy0YRAuE06dBCTPIDhoB0wedR44gGX9DZRKoMbpghCyaCLvAYA0wsq+YnXAMpw7bkEbQNj6wJL1twnVqG/7ljWl+AzUgDy9rG67eI7+8BICqbheXmvGYGW4qSnCIk9PIaAm1FMGOcVbdcFBaD1Mh3caBYVIfQZmgGfVrx5jUASq8DjdccFM4hmrzJ6xFpZZW0xGAjYAzB4gzMMOStuzZPqYZXOnSgA78YoNcOU1J9J/dMuy3Q08R21Cpb0oo9qp2j1iQwN7SOM28pXOXbJg9TvWvPhDLyNlzPubD2zn+s9seI1w/erPLH9yFeW/YxV4X1m7YQmhfG/jmnVGHeoMrDp13GptzVPOW5jUbbSrldLEak1CGviwa21ERCFUgJBi1OCRHE4HNBgxUMJL071BXZtPxVPgSWAHuySXsvRJQZiL51xozgVvtNCUhYCfa75OoPBM99NRAdgG/A2WAaHl1wHWBLnpWnb7HcvXiRa0Epl2rJeuWX/7KqHlO9bY3LRqj/HGaG415mzqxKsWk2ic9bqM78Zjs90tatRY4tmHRBoBRhtAjV3D+9II20Hu64BXRftMPEzTzv66j4+2T2gxKafRMrxpe9XSpSuWAmDpfYDrnX+NPnxowfo1q+/csjoyaOv3OXebNl61IWMz6u4QEeFowIfq3AmLTr7s86KjdQycz4HBY/quDbeZFlZoWh/+JhWMC7KUA2JJiGwiDIKYFNlUEug4AElQxqAhcZU33aUr2CXKqKPfs+jctCXVGcYE3actcmS0YOWOD/c+BSGiBO3v1IS+JvMF4Jqvi2I9qVCxIXoocNNsS0H9yqcxVBNKgR0nyIHQkxf7DICNEVIhowRCbm9YBrL8F96VFakw36/hwiJ3GIbBhlHes6LZBATmURC8LEKxOMQ9IsxL+rLUW9Yf6TGjEfF7m4iLgoiDiifXrLj6Y8vW78LsDAcAQDnzHQuap1xAQgYr2kDgbv6cMPU9i3fuW2XYRVjLGL2qyAgASxRatVesNg2QKb7VhSHAlXSQnk0Lh1ty9mGyeg5wEiIMGMzaKdzw82/5nraYfIO1d62LII0QlFQj1ziFl3bO0pkLvqWhuXraKoBd0loiZG1ZpA2JCEzex5uj/JzQIcBzsvlzuPWnLGtqXoO2wFt5pOV+NJSV+ofEsBkeYAaIhFrR033JJhIFWFWnLCZ/48S3CdfwVsmXbtzCM/wNgsBYteYtWyDv4ksWrb5q4TSeE/HaqAe/ux0Gt2J1jERRb2Ml4YeEUxZbXgHjIoEeAAK1429a7cT3LF48T/srRPm/td2PfmbF3V/Y9PZtO259m8a1r+DxtFCOFiAdi/dp1z0JbYOpTa1YlfZYA+tObTso3WiA0g3u2qhK2DZ/0aJaA5uiuSIMiVZQJXkIqnYvDaO6pU3GemrBavKC4xYKStmAWFVGSvNCKHvWWmYsVn1Dc6HUWkTmCGXrLfJoX5X8PvUzdeOQYF+aq29ae/W71kBOKwltxoMsdh4yToxbjahhGhDEdcsBY0yrVSsLZlPL1kGOqsdetvriJdvF6+4NGDcMZwVgjulLgfc01NgyNqbwFG0STzSBon13DY58jhGdSfHIdvCoBw3Nuy3iBE1xHr0BSNLGvOXIii1fsXDrpsWPfwsL0aVk4F4cqu/hrbxRj7DQSXk+CeDdZ/xy2hAr9OxvWn34xBJ0bNjDgMA7Tawn1D3hXYF3bfNnLcPgpOTL4F+OHGc4Gzljk+ENMbQWS88ZG8ms8KhD13v0bwSvCz1ZM3sa/p8k7wlf/Mjhf6UmncZww/tCxpzsKW0t2mUdOVFXTv9TPH4tXARtzjHuEiFhjBZAtFqrLSOSDQGUg6gSpHaoSY5H6K/Aa3xpvApJtkIThTBLACYE9w2sUngBmACOm70QhMQnTPkiByxjyFLsbAGjitoiYdyiW+VAPj03FcNNdLJjO7jgowH2eLpuNU1uqPWP8Cje/xsreh0LGMzmqW9Z9fR3GNx5vBkUp/PQoic3sJy/NHt81So9QlEUMaJ+OUCMD+ieEaKGVm0vA2ArgB8CrT1qgFdOqJUjsGEfAEP4NAehnieEZQMGo3nqDasodEIoBS7dh+/Y7sMPHZQCvKBw4RUr8NIKBLmyfMamVk8SZq3YsLFsFQZMAlYg2HmHeuBqXpuxiLAlPPaKZQiLD5rMCwIZDbZpt+qPqb9poxYCsQj4LH0L8MR7VYcGD9BqeBm3LZ4+bXUARnNRGSOawIfBnV9aXgUk5wFWwMuWXrKq9tk18HqT0uIqitDkbmMaxaLMgZbZEaoqgKzHg7R5dkCoI++vefIHeHkYDAQqQXEeX/+J9W/9zOqP37V5vLlYz0ECrDE9FQA7ENIdPT6SCmg5H2E4wqklQl6EkzHf2b4LiD7EW3noAh+c+g79q7lHEGkrzICxlkQicwOUcYTwG/nj2WVrzR+j8QqFkRstIGUDeEg/ABXD2wwWz1gxd9KKWZRxGiMC6FWahK6UL6nWg9jaAJpgxjX11jz2XWutfBcPbQhfCSrX37O0cx+vVHNjGIlFyqjXfJqiGhE1VAFF2pzMn7QIACsWLloXr3uIp1Er+lZH4GOAumjOWH8KD5h2Bxi/HNclGeE96wmGrAeAldsSJOO9Stt26isYvVWbXj4O3uKRJj08TQGz5sDOIS8vW7x9E76/Y+mgZ6lWvpEtyZecBETW5wIjbeEAUGith+YBhqM6f8JqGTw1yeGudbY38ViRA85o1T9ALwJAJ1w4B//OA2QnLBWgYXgCjQ+8k6orKkmRH+m6HsJQ1KWwvoesJBqDWXiycNaqyxfh/WnL2ugCoBa05xgyGXOAFQQcImfaKJuBBxEeYsi4mR4VxNvMkLOgfczCmVVEM6KPAB59k+OkNhd8ynly6HEvnaQbIIWOcqZCkFy8nUxzlauQoJpCL99GQdeF9g5eQkYKTuGaOuZWlNK1EqNoRO6eKtM+zyJcwN1csnrjOOEPnVON/NceyRrS1NlYt7S/a82qLHpIKIEiAkp2829gdIy7fsXncjLc/pFWOouhhbs3iQU+tOEjBhaXOsi73jbknkJJ1KuQt4sHFCPMMRY8AhjE2AJPLaO+fPMentwT2tBzjz4h7hyh3Dn1VVdftsoiA4LcjXp9231024a7OzYD+MwApLWz/4GFJ9+yfOmiBQsreF8IzcyyRQhdoxoDin2LANViZ4P2YFFQtNpZTax+B3C5iMsOsAAEspDhLuAEL+VCp+1ZPK8lqwIezVPfsxYK0cCtjgjVDEuqpeloWvuU8MAQUm28HKx/aJ3bf8/gU8fJ1y0GJGtY7hYCGmLNY0IxLVXHCFtzdsEac/PoT+YbiyuAU2MEgBV6kruwoQQWsJ3Bw9PeNzcmu2vWu/NTQsX3bRZvAlhBFsTkkLAIBgF+WsMQz92pw2h0BxXrBG3rU39tSU8NxHheKN8gscZuZrWVK1a78n1OA4FYZwcvlExt0I7vkVbRpuYtXjphLVK4iGBHDUJ/+fV6LlVh/nFrnDxv1VOX4OsrAMtZC1fOWGXpOOC9bI158k+jQDU8W9C1n2qrAzKCt9hc+g7jy1ho3rB7ny7+0rrdOzbCsERLl2z20j+yKoZgRJidVqbJT5h37IxNn33V57/yRbxcjE3YaNhcGxCbq6OQUsxFSxa1irlKOwA9LRjku4RgXTyhDrLmXXQvpB/PWq99GvA4a4snziAjeCvDHW5A0/BQK4By7Th82vrIKg/ftlFnxwZ4UaE8CVKFsNtDY2TXn2WVh5bqrS+JzTSqNjWjKQLGVY4+Ye7m+lqplwBKc/64tVbPW/0kkQ3yXjuGpwegCKRjQFr7zVpTLas29IwnRnIkL0iLd6oMD1WGHYCuLZ+y9qkr4NYrGL3XrIZ+FHqccPGEr9bWGMMKntgIz3kkIASYAwC+ceIVZPxl35oUCTxnGTf4EC+cwVggr0HfnxBR+KgtJvJMY2TdF3jciyr7LawSCzQNEWkP3eQkxKlyZkuApUcltLrl4KVM3KQJ+/JmrC9/9YiI9m/5F93Kh4NZDwu0hgJu3iVoXgMRiJqxEtY6bdXZK9Zs0uECu7LxkHj/A7MH71mxSViUbuM1NRhEXOnZEzaqEI5QRzzatGCXuH7nKhbrEQDZ9Yl/iiiVSPXrg34HsmjdRxjZGygQdQN+BZY9gMlh6xghrZRZE8AKchAsrG6BsgQw3ifX8dSSrcd4Dn08C4AJ8JjCk6prjolQLMBjlJXVHqMinrK6W6IrZitv4FKfp48tzhNaUEeIx6RNkjHCHy7hMUzjTaKoI8I6YIBwN6IsFAEAkcfYWDpt0TKAv3CM9k5bVsE7AKXlQfikhM8tlMLsHjLf9ShMoS0TKBeuoG7kVkINzRsxfoVQHtDI9CmXiTweGXDok94FYIkLX1X4peVYwqu8s2b1zmObGm7bjMZVA5sBttSJC6tFTLwGzjmIaa9d5sA8enLH+qQRSpXV4cEcYQbhb1hdxRM/aY3VMygLHhPWN9OjMhSgPUI+LwIiBoRyFbySaA4vC77a9AmUcQZAqduA68X0HIDFeQDfWsiTxp5R1CZZn++kXEM5glOvEYpdsATjpTArpMGRh6LqR2pDgC3RXCJMyBSuN4kUFl8GZPHCkc+MUKcLEA2dfwC3wFV7GzFMRhsFzr4/Qa6QFIz2GyF6iHLb6jlLV87hZaDIVOfqQhpxkCi0Vei4iKc1h4zjienVUO4jReX8Uc2BSpnQLU3NyGOkzb6/ig5rrcMVjVv07GGjv2GNndsW76BrMozq5CweFR6Xys4Axpz+xcfw0nEKDKCy9gIyWuqAWOJvzkAGDA/aZMhXLmF0z5Fvzscm0faI2izG5YI1jgNcqxfxsvGQCTl9UikFSOmf9i3qvqK1Qki8aMPaMp4pgI33WtEWEYXINXnnelZUVBovl1sAEvfcaoBVDZ7G8Eobfgl/uE9y7YPt+aQK5d5LaZF6UFL0L/6p/VUp2fKy5HiKV/pbko7lsjmuOapJocRsEufEEC2Xp3L5CX+qCJlcSgJ+hAl3kYYL+jT3UO0+9nmscBuvqHMXS/PYthjy4vhbVj/3lxa2XwJhp6zV3calvm7B7R9bcv+nFgzvIjN4X/RNMiTQUvXlSGiFp45QNhAYBEGe2CwxdjztE5Zhb9Mqgw2L+muA5RAhxdIQehUnv2fTU4S6AInhpeV4gztPblu/u2HzeDA1PCzbuGrpw59Zeu/Hlt75tQ1v30d3CsKAOYSPQamdtz6d1/zeMB3ggvfwRC6jEHgJLZSQlvU3tfdIoI4XAIpoTkfL54H2z+Fthit4gADuiFC78+A33PYIIeA6lrlx9g3AnXB4BMA8BMg1B0aoohVAbdqUhRcIRVI2wu0BfXhy6ye2iafWf/hb2n7VqluE4dpwDKtkmsMAD7Qyh/ezYlNn9aD9WUufPLLeA+4lz/TuI1/wEG/7enYwGlmrXvjqWzhC4ELq0kPEwHFYSawCUNba01j4lwg1Zm2TEGK4u2Xhxj28peMWX37DvdDuzjZA98AGmw8ZF5SnijIxFoUAgjHThuXK/BUb9UPr3L1nCf3J+w+sATjVjr9ug90N27l/1fof/cKGH/57yz54x/J79C1r0ByBH94Syp0+vAU7CenxXKrHX7MKXkAe9PAO8P7gR/jkMbyYwnitWu3M667EydqaRRu3rbH1IfX07eF64nsEqyvL1qcfvXtXbXDt7yy79lOrcZzdu2db93YBwwYA/RIyNAW78Ax2tix/9BEgQr/wtAfwe0TEEZ9BvuXtYpy1P3Lnxk9twHgbYXd19oJVp19GBh9asvER47huMca47lCfE8I1rKPVeEDXAQ9jJOckFQDRB5u7gMzj/RJ+Dx/dtb5WWTHYvgh06c8sWL1iu72Oba3dtO07v7IOcty7954NH1y3wf2PCJ1jgEZPI2hebwZnbp1o4TE8A8T1xpnLf4YX9QoAgE5vb9nw+rvWu/HvbXjj/7Pt+9fs8cP7lu88wUHvW3dz05JhZg3C1BYRSGUFAGVMnlz9le1e+4nl13+E8/Ir2vkuzssdqw7wHHepb/DEKuhPjAcmC6kFmxRPRS8jKPeOgTkTnXcQE/aUGAUr+KKTTz0tP1MKPKT7BGBCQZ+EdqDTdUAJJOWMZ9XLoqLhA8sI+4onH1pKaCUro9WlHDBrzh2zNpZI7w/KaPRg47rPiaXTeB9YpmgKAdbqmxra2zbbum/F1i3LdvDqsu0yNhY4qzGqz90ZwDWPrCrUlmIjhMnOPSsARnkc8oZixdvTxyyN25aA9kULSwRw2ew5HEQUR0uHO2uWPXzfKnhw9e5dlO+GPxmQ3P6JJTf+xkbX/9oGN36C8rzDwN+y0fYTsmEZW/IYtIGWPsgD87kWGjZ+GNrD61C7nBXba1UXj4GGhYBuRfuHCoREVlAWWXMinNemRWwwXVSHVYDuD6yO99fUXiV4F2ju8MlHsIW+DrWbnjr7WwjYHQTkt7T7l5bc/a0F67es2d+xWtZHIEm0RcZPq6Taq5Rq7ggvrZcPbABIgjQ+Pm6/uG8kL06AK2HAUg0BtCHe24h2hVXaEid4yhsWdzasSr+rXKvgtejB824wtKE/wRBSF6qowZNDiCnVEwp6nClAaDWBrjkof2YQ45VFACQCpq0w1YIQstsxWydMv3/T7OavrbjxD1Zc/3uzW29b9uAD6zy+a51+n7AQzwGvg3jS+ZlRhrxmFyj3muQ1EmInRBmJFIJwiTHR+6vCVB4/gIehsy0MK+XmW7cJQ9ct6jxAHpDDRx/Y6N47gNd7yAZA+PCGhesPkTUMK/U1AJNIE9bUr3fYpXgwGUAvL66OQazPzBOiJdbf3sYA7fg8l+r2TeM+3YK3Bf/U92pOaFXo7XSEjyhgprI0byLPER5KJ2PGTNtrBkOZEs7XFyzBE9LjSRU8+9oCXrBeR4WnM9p6YP17v7LkIwzxjR9ZcfMnFn70dxbzPQfY9OBrgSdbOXkZXVzGEDWtj3fUB9BSIoQM3dXKZ/fJQ+ve/I0lt35l0YNfWYyhjK/92KJbv4An71sA76IEJ4YIpz6DgSfC0XvwdrfWMZDXLQM8C91LGj26aTs7O5YQudmAMUb2hEPysjQfrx0Ikgnv8IQkh9J9fY4J7h2OVMWkmgiG53g8fTyZjJAkSnYAPZQCi1ubm8drx2LgvQxRnl4aWlJpW4N4Wrv0K4Qf2jujPS1575HlKOewh1ImhKIj2ixMUIeETOqEgE679rC0tRBFAkCF5Nn2Qxtt3Mci7JbPejVw87UpM54HSBf8HWUKAWO8n6wxfrXM5mMG+F1rbbxvKzvvWPTRj2z4zr8FsP4BxktJCJM271u6+9CGgF1HCxK9XZg3siZWcZoQs4nsVRXu+V4cAAVU1wpSjU+tgrX01geApsqlSoJVBsAMCw4KkhoILCnDm0HBqnh5YAOKRQdyAC6YwjpF1sbDa/W71ur0rEm42+gNrTbkRoEm1qza2bbWzqbNkOZRkjlAqSpPJN9FGbveXsU4RQ3Xv46HgGLrfWRD3PcBqcdxRwPJPdYAVKfbgFzbilHFOknVNgGVAbwu4iHGRpsWYR/WPdmF13iijKAtoTBNgKs73LDdwaYNaK+Es8bYTgEmcwBfOxhYg7DVunhKtDnv7rrXFOZDyhxaXV5fJbVp9FIg3P3lj6yGFZ/Hu5mB9036W2/A62Zm26P7ttG/DQivW6LHvfTsIqDru95lvUsb4PLpBpikT/wXjyqU3AzrGkpah1eL+T1rY4yr3QfW6q3Z7Gjd5pInNpcSGTC2Fe6ZDrcxKGuW46WHeExtPK06Cl9owSEmXNLcFZ5Z2D7hq7R6bKfAuOebHzL2XTAVJufcpwlk31uirR2pZZTvj/JISZGnJuFy23rWLnrISK88z+WKQmgMZpgRyulk0CJ0nPKVvtr8Kk4tss01W7+K1/gza9/7qc08eddmMXLTtGOhc9VWOu9Y8/F7lt6+hqxl1lpYtXx22Xam5myLsH6zXbfOVNV24tTWAfItgHwESFUwmjPVqp3Iduzy1vu2+vDn1r71d9Ze/w3yeRNdQG9b6EEDo9fQIkAdmakC9BUMMVFrn7ZjdCQbWjXNe5xENOWtSZ+12uuLFxoT9U0opQF8DlodGsBE7qXx6dvCAJGETmaETQUCECQAizyJ6QV/2FrzXGljCYWZQn+XAZOXMRp4RIqJGaB8SCjUuQNI3LJUXkVCz1yZSZoMEIBpEMcDqZ2+zShD8HoWY0HznQc2fILXRl5/pKOOEjaXrVtdsl4V4RrPi7nF0s78Dp6bNgFu38cCP7FWsm3J9iNCOULOAq8JL602f8oay2etsURIhCWVVfW3vcqXl3aoObIYWYTrS2ik2B0XXE8IKJYP9LYIrQLiaWgSCt8Aq+oc4z6hRYTHQDkAhOIgvXPK33ogBXTmyvrGFnF7jdwVgDsC6HBvMdjklwcqGZbXAr/qA4LqIYZjpLkU1YlOUYtqVDWSk4RyNUejVM5DlULmm8q5f4QgifHyBJO8iRcFkAql9ZK0XJPM5XiHmseKBbLUQHNDQFUP0WsBQXNx8sAzd525hlAGsrR6tIPi5aD5HIQQU4qs+6hfzx3qUTEpqRE6po/uoPySBfquB7MXj1tGiJ3MrVoxNwu+1y0QmsZAEW3xPUfipSuAqJzn9UR/NWTalyd+yOPxPUhaCeN+TUi0wh0Hi4CxqNLmJuebfFbHMideR2GfPjyx/uObeBFEDI1pq82uWqgHswEy/EvkTAs/hFL1WRxB+o2Hb5tXGbsevMP7Ivz18YuQCZA01z4rvDmtl6sO1VXB8MkT1WS+e2rj+hVCymv3V65zTi/47MOfniaKmwsW4jW5wAx3iCruAxqPDd+UvsEmsUrli/+Ab+fxLRsiN9onpgjF2svIObrZXvAtEqp3xDhkO4+s0n9C+zvwTJnhgZiYIGt4UlU8qcqQMBonRiuiaX9go7BujcWzNnX6NZs696bFJ16zZOGiJXjLvheUsj1gURr3zQGMsfd33unEBGBII4/6OGDclHT6UCTxU9JcsR4XDPRc2dYdyzYBoE3CSb24ULVoj9j8aQvmz1kxexp3F3e/fdIaC69aVUuyapg2cg7u2GD7I+ttECL1celTGkk/fFcGHpjewKB+elLFjJFe3NVi2BtDvLWte5asU2+XvGIAVnAEgG1Xj9lO9QTWAOGPCTcyQqF+z0Z6xpCwLBpsYV1RGqR7CBjthC3L5y9Y4/xbNv/6X9rSG39pc6/90KbOfgsgO2WxFgC0BB8SglFNF0+ui1c1BLhGei0K+UdYxRT7mWUAg1x9QpcUDyPBixniufVpe4rg9gHhPm3lLEDWI3XJ1+PbiPK1Mx/eaBK5oc3BMbwmfC3qsKZFGXhwhK95le+AnPhTISwO9SyPJAOrXipcOQzala1wYMg9I7f4wCwWsj01U24RoD9EUwgf98MTAY4UJW7WrTXfsmpMgCtsU6Lcmp7Lm0PoBWJ6Dc/GtgtuvV63uD1thbaBVBkdgFqvipFDTfQjQ+v4ElRavqARaqkew5AAiP56Gz0ixn3FSCtuKAIAmaOY6eq3LLvw59ZZ/Z71V16zxqlXbXoV40I7InigDcalYigUKYVcyb0U/ktatVglAJP4SDm1gdsXqziO4HeMxxHA85TwXu9iq0aKDrSDvew2fg39SenPjm1jLAd6L528eWS7cuwScr2IIQDYNS2y+ApjNgVv8Nh38NZ28HbwPiOMZ5AiP74yQgitCd46wIdhH4UNDy6k1P4AuMDCE+cYP22w70u+FHLL6+K8Vi97tGMXjzxB5s0n3AnHabOWj/SSX4lKDbc2JwpKtFcS6g07tk200x0RjmrRrTprjeaKLc6csJWZVZupTFtdYffujsVERK2MfiAcHfojfujdkb7JUuXzESI8g8ebqOFj23qEHKdNmz35LVt+/Z9a7a3/wsI3/pltnP8L6y1ewuhobk9TJ2Qc980/6XgEiHm/3QhREXqiexOMucZ3QocGMJEKUZECsDjFExptOIiN1m5grNdpFMOOEJgeI1q4YNWly1ZbvGCVmXPE6VgsPe9HY/PBY7yfawDKTUuxGnr9CXx5uh4RjT0wMc4XD8RAJ8IC/tapPwJAFUbmncca1XIQGYxiAcFavGKVhZes1lrENUdQe4Sc69es6DzCGg5878po5oLZqe9afPEfWe3cW9Y4/YY1T1yx+uIpLCpeY7VkoA+eL4HKsnOIgla00oKga7MdvgJ6I0DhXICHw3VZfu0VAjp8fkbghN0HiFUOgwaw1QizNLdU1QPX2uxLHSn3JVpDx/tJ+Y66KfJlMAFbFK1LrNzDrA4VEsqSkELNxCs0ccaRRHyV16PXxdQAk7gPYMtbo631mFA7wkbrHfpURYRmM7RTW2GzghSozQAemqUX6uIUeB+TqRUbYe1HAJYWUUaUqTd5VPkXabUR7shD8L0+KKM3j7YrVfG4KgikXqmXM7b+VAMhlB681oZQgUWOx1s585JVXnrdwpfftOL8q5av8n3uNICLPAHiEeFtlXCs4psxc8qiEqTSN9u6dGrdjE/GRdtY9NbSgFTO4cIzBtOtOte1StmnDQPODwmKMYvkxTMqqvRPe9cQK4RSvMjx1odEG/3NNSwYQAvwhAunLZ06Zr06wD1z2l+ZPsJ4DZ/cAy0e4ontuExH2gQMjyQ3wrARTNfrg7ShU9uWvAtjXsWMuV7GKUGTCowY77SBzgBEFRwDvbdP0Uc83GZsiWIoR4sKaaClgDp2hWOBAxGF3tc2CJsOVtIhPVkiD0evkJf/GXFvPa9aC37WszpgW7M4qfj0RpPrDbxqny6hHfLW3VkUP5AzvdGHqNEqXaKftduW3XnP8nsfWoA+BoqkAGhbumDhxT+xGL1qrJy3iOgrq1OImCIiv38AXB5BKQoRI+SFabxc91RxSR8fHYJUp/grndEzePVkt/SEHl61fFtAIlOqZdkl3P+XrH7sVbDsCrh1EX05TUbcVCy93h6Rbn5gWUee20Pwoev6p+gAUXfvQn1Rq33QVblIVhaqcdn32OzqTRTUqwnuWtNCQsDKKp7e8Td871R7ahnFTK2B+xysv2uBNl7isiYoxFDL6i//x9b6zn9pzct/blWshyGU1pwulQrPwF82p1CIMxp2vRKoRqhU17vIGGB5O+KJfvFGv7okYa1j8bSrQQZFACZg0vvF5Bko3NJkv7ybBmjdrObWiBEnQCxUeAGwJVo9jLCSOtY/zZkQww2wGj0q65NvSIyT8F37kvTMo8c82A23AJIyQlxNWGuerY13Vuv1rdaFx5yv6nXfIR6TTXloCC7DdNQ+xBMqOnhtXTw2+j0APPHOBokm6gnLZ05ad3HFdvEOuwEApE3AI6ANJQiQcD3RkHBOE/V61ZB448Jai/AKgE7AXZqU4TGmhLx62LrA9QJnrc99xcpZq776A4u/+0Ozt/6RBRdftkIbQmeWrBlN4dFw4xZMHcJ3+pWPMBDypvCA9Fp0aZhUoQQoARftqigJwBTuS6l9FD2PHnXdGo5sFwEb4EEPUfhRLhCoAmqAmMJiAERjFoy2LReAPblr24/XrQ9vA8LI4fSq7TSPWaYFnqmTNux0wa6PCK3XXPH1uqoq7WgSLuqNp/qRGf0CVIa8ZjBXr5mGlWPFIskQaVBool7j429oIdSLprS7fx4+4iEBYM102xoApLzWLuO7i/HcYjw3AaJtQGgwxNiNQuvTly796qjveMBayZaRLfAI5F1rDraCysIAEvI70gum2vAbdwsZVyf0Fl9tsN7AaOxihEYxeqapiEpgLZyI6voNCz/6ueVXf2qpVo7XPmJAu1ZML1rjpe9b68Kb1sZ7jgkvi9ayv/G3VBoSfxTu+xyY5ND/kLjmi3h7SOw5FGkmQYrq5ao08RnlDnvywu75Slm6s47S4yZj3aPWcasRAzeXrlht5pSviKUKZfCYks3blj65BqCsoVS42RTmYMAg8weO0SFMk15PHAgNYgRQyCyQFnFKP/JRDHZttPHAuli9RI+u1KettnTW6voREu0z0koXoBoAYPkmLv1AgqUfIiHmX75k8cpFi+ZWrdfBvf7oXev+6m9t65d/bVsf/Ni699/1kLPA2ulB8SAf75pG4upKhIAxQlRN8R7x6gTq/syf5tlJiupyWTZCwIjQEvGAXwggeBhJgLhHbzfQOVAKlxweCKnJqN3vgSa6pVYFnpPq0mZaVCsn/E0QfO3b0rxCGRIpNKJ+jb88HayXVhlreLaN/hOLtYdo+xH3ETJpVzXecYGX2m+veGjsv2BEe7SnrLGwavPnX7fmue9ZePo7hABv2M6snjq4wlhiINRRGSDC92zjNrxFiEc9a+JxNlF2KZmK5K5yvACsRLEQJzjt/PM3GQDUVToct2d8k2104jULSTt4DGuPHtn6rd9Y7+rfWnHj31l46+8tufeOjdbv+EJAhhz5j1ggiJpmw+mj86V3paRVLb0J1l/ZrOvudbiUcRxwDvCnSTFtnexNEuhmyNAAYNQ7uLQVRs/9tQDZ2bxjK8W2zfbv4HF8wDjtItOSoYsWnvyOVTCcsebkdh77g9jZsO9ej95ILK9P+xcLxnSkNuBp1POu1TFq1SrmWtirrjiv+CD1cb/0eJa1l3y+rU5dcRNAwWgX96l/85a1Bw8tInrJdzHOAEwFL820876K9wN/YqKS6XTLpq3v74Vr1hrWImSso4da8In8pxF3rQcI9Sl3SF/7jaalAE9fb0XRzzZ1GTQAro5stnHtmgiZbKSvhtOfZITzMLhltf771tz+pTUf/NgqN/7asnf+H0vf/bHZ9V9bhVA3Qs+C2ROWaf9YpS1xh6TwdF5honRbJKFh3ELNi5HKSaSSxKJDkbyiUBOSKkqSKEIQwv6mv6gw27wPMD0EL/QqQxS3dQzP67zVly75g93asJkCJiPczEzbJjZuWNADwGiwQlLGgFaqM5TvSoko8t1fCe0TtnRW5lrEoTZ0yvPS/p3u41u47z1i7YbV8aIaekWzNu4pnNXcSmfNiu3rgMc6DkFutekFgO4i4SKWsz5lO2v37N6v/84++tt/Zbf/3f9hT97+t9a99SvL8PAK+mfJFn3t0U455updirEkvsq2CcMEYgAYAqhXHPcR/gHtTLIaAoLFy9sAHB4I4U+E9xAO4WAfJUcwgiHeJt+RHk8RgqK3w2qiVs/6aWmgoUdbsg4eb5duU6c8WLyd8skJvXEC8KJuTQO6AdMSvHjIcQ1Fa/QfWYRxMb1MEpCx1qxFxy5Zfvw16xJGb4TztqNtOnI0ay1rHDtn0eW3rHrlzy166Z9Yd/Ut25p/zSrcP718SkGWP22QPrpqGcpawKMYgNcqWgvvoVWVZxo5HhJRAQZ8giJ6hARfyBVXbzzVg9A1vM6a9mGd1D6u182OvWKP8fqufvi+PfzNj6zz9r+2/J3/y4Jr/9ZGt39ufax7b3cLQCQgknGjnwIjgZQmSv2nupBPAftIDzhzQZ86L/DSdgYd6zXUMIlwmlAJj6CtsAjeSD4HA4EYDcdA1HBPaa7VSMdg6eLwrlXX3sFzQeanaPexlyw++z2LBWAYWu2BTBzAGCNq0EZeiankNMejR0oAMLxuwKOBwDRqsYUKO6SdVKkApkPq4ymneF96d5hWGhvaqoDnq+d9u7ff8e0/7f4Dq+zchv/33eOvAnLRzDELCDkliw3kcD7btFnbxeNX9qa1W6uEhXhZGMcKoJzl27aFR/dowCcg120xinPLtlubtYdaPNbDFJoIpE2+qo5MylvSa857fNfY+vOlI9rT/Y3Fa7+26PrfWfqLf2XZL/6N5b/6GzxndGf5vL8BJWksOID14IPmOt1zls67MYI0LLRdbyF2EPOwsqTxHYcjDzeEmFqZg+8C4iiTgm0BYncs1QY9TaprQhjEKnBbQQmAhaiaFoQAiPbdGApV2XmE4Muz8KK4nxtUvhrtGsnIg8wCsVjCKtRUf7wNWDU6H2GutBqZ4M2Ve6W2GSxCJ0bMw+futu3cuma7mpcAAPRuei2A+WNSlOs/+URMXI2J/xk0/WBJOKNnEy9b69gFdH3FX/inZy5HXN+tzPlbF3YIq3pY6gJLqwYFjWmLscbRiTcswSLnZ75j1fN61AjXmdComFogJIltSOgyoN3dAFcfL3Wb0EWLCHpFjt6/H2i3PIKbBPKM5jBQeiF3jX5qwr6CNyYhPGnTS6/a1KnvW50UrbxuefskgIGXKishN44Q1EFeFozwZwh4d9bfA4fxfPEYbX7RorMvW3Dp+zZ66Qe2Qzt7y69a1rpou8ExrPKU9eYuWHrlB1Z/8z+wmdd/aHXC8XCXsOfWdQvvvGezo/s2G6wTbmwBth3Le9r93rSkuWrd6XO2OXPWHk+dscfts7YLUA6nz1o+dcJywneLZ3H6WraVNaxPHqwdADCPN7JMOQ3rrQPMu3iXgCq9saRVteoJlPnUsgVzbYxO7O8Qq2r8EB7/sRQ8CD+WpDgm0HcUTltdNMci+dNbg32DNDKmNY/uqILnjjcmj5fx0Rtx89lTls6etVSv3NZcoRoAOwUwaW/XunieAzwtPXcat+eRk5cAEOrfvmOVzn2Le+sAmECVUM3DWy0ygAZ4cnr0KNfYhzO2XVu1bXiz3TpvuwDLRnvZtmZWrb9yyTLGNX5Jc7N8IovaAW+7HRvhIBSPb1iMB9yEORH1FVs3MY47yC+yM3/eUmSjP3veeu0569cXqGfR1uMl62nl9CRhb9S37c2rvgOgINQtUvRVBnrwBL4NrDE/S52nbXTqinWPnbDeTMOGU8g/UUs6/5Kly68hK3jveOO9xePWnTtpnakLtlsnhAYc+4CRZDxFZ0OtFktpcWoSjK6MrYyLvF9/9Y6UFB45poik29JxUvmIFWOom0lS58MR5Whp2hFTS+2QDFVE+NTMBGB3LVsXgJXvc/dfHNamPDG/ikdGq4IBAIb7GxByVgglY0BAc18OYAIo75kaXp4rAUyvqi49v9LLIAcCj0pjRTjRwaNbvw6QAYzDDX/1T00miUKS3Q1bv33NOgIwLZfDhQAp908AUq9C1i7oGp5HvbVk0dRpqy5etvaZN6x94iVrzq0QCs8iyFPWr01bJ56z7QLQSWMs5ci6eH2KjrS07u+TP/UG4PV9C869hQB+16pnXgHAzphNzWJxCAsYrD6Dq7mEnbBhm/RjO2xaL6qbVosCFLOo6vcElgGwRQyAFsQJCWGJwk0BWKt1wmZWALAzb1nzzA8AsDcAyIuWhig/yoGVcPDyJCbCotHOR0R979kuBqar1eLZaaucfsmiS9+z7NIPrEu4ODgGEE5fAVRX7U6vbdsAUEof6q//mc28+pbV24tYU0Kj2wDYvas2M3xoM+EWAKYtEz3r48IN8TqT5nGE/oJtL7xqG/Mv25O5K9aZu2jJ3Dkr8MT1ZoURwNANqCMHrAixC0KtKJhCmBaQkRb6hOIP5X+KL4Rh022rnj5u1VPHaPuUhY0YIGKcAS5tFZAhksHDZPIdUONT4+rv6idp06Tur4JsEwBTiN8ZxnjuAIymH7TqO42xWjhj+SIeKrKQxXgMFKGFDCnVqD/AENy1/s46So8/xbg3ls5SL8ZMzzh27llVi0t40vLAfSJaCyKahfKpALxrARjlbjdP2vb0RduYvmRP4PvGDLyfe4Vx+LbZ6besdvGHDmCV5Qs2ilu2ubVl/Sd40QBo3N8GwOh3T1MDt7BZW4AoAz7HmC2/bgP4PpDRaJ+wrcZJu18/Y7tzJ8xOLtsg7NrW+gc2cgBDV8nrqacnM/DYMRC1E6ctP/ea9Y9ftO35JduYPU4bz9uOXgiKnAyWvwWAvUn6rvUW3rTd6ddst3kJEDttvRp1EMbmenMFYS899j2E2tCryELbXvS+MJqvESrxRB6YZFW6VF6AX9JRjscU/Yu/tL/yI5DvICQn3L0iTVZpHxHWTSEMXjhtoGFyz2Vx9GrkhrwZQAYA0yZDPZSaj55Y8ujXltz52Xgn/GYZOqpsTbriUrrLKABTE3VBEwTqCOZS+6uokL5VPQnc/NW2mMgqBVVnly0GbPSGBoV6jLZFa9dtcAfXtnONuB+go6xRTthRP4ZwTvtkpF4PUgdgG7jr5aMRmrubx7Wfdg9Acxl5g75tPrZ8+4mFhMBh7wm4AqBi0XMAJ9AktV4FjAdVbdfAbBSuVbdIHpVCi6Z2TjfA0IcWdO5a9OQdn+jVj0mEhAi141hxLKhWrrQg0rv9Add3+Y6bT1isF8vpTRKR+Cq3m+96Wj+Sp6nPHA+ir/u1p0kTWmP+OWCja6jQCCUdjYbonfYm4ZHgGdRrNWtjXWfml62ttx1MH7MmVtW/z877+9edxwqdFSb3tjEWt/EE7mHBHyIDHZxxQrX6snUA0EoU+zaNKuU25xatTTg6dey0TePxNQmDau0Z0+uJMoRb86UpBi9GNuLBjtUbeuPDCZsKE1tYmLWZxRlrLS7Z9LGzVl06bQn9z+l/pUlohSLnN35rYQcvHp418FoqeB8UyphtWPWRXsmk1+k0PKyqn7rkypA/uk04fctqetsvYtYHZFqU31o+jpHUFpJpqwOWDdo+RT+a8DkewVOMX1LN8Sxq/ivaektGTtLvNerZ2/TOLyy5+ROLHr9vld4G4otcqTyMZUToF7TaVlkAgOfx7pEZ8agNn9uE5DOrZ23mxEUirAueplbPMQYnLZ5eRNkL6yNzO/ev28Z1wjN/BOwuwwroMr5andZrl2IiBG9HLploWYuooY2H1DqhB7xftpDwvHnslNVake08+BDMe9sa99+3xsYDt3faPF0FSGpENHqbi35JLJ5ettrcFHpFyKmHxDFyNr1ieiZyhOdSYLmn+D61cJayX7b60gXknnYvnrXasTMWn/kW4fVrjv7Jk5uWP3iX0PcjqwPwdeqRQfHfyVA0JVyRzjJGnpBbBWRc8iT6agBMhBXTpkXZFbmHcuVFWlFK5BY2F3xPkN7xHmjfEm5gRhiTDe5Z8uBtS279zGpYqvpQMwJqIB3QXBUDoLjXQVJlugLyR3NhuOuB1of5nyJECVbMQ78QRUSJKsEQp2we0GQgtStaM6G7a2YPP0S43rbK8B7M2hb+2UAPLuMBCATDGl4cyhbQ5mhqBQVb9vdrRXWFLyj8xgagRz+rgQOY7TwBfO8CiLjyuOK+ysiA6ncCatqT00Dhp2hbQyEqoE5etzwIRKGR6DywoIv3ufEeUd4aIEq/EdTqwmkPQ+L+mo0e3rDePVnVTasWW+Y/s8+/sEZIGU/5U/o0GqmjPJ84pK96hY+WsLUaq70POi1DA3jJO3fsx3sYdp7wSbgh70XzPwp9p+csxtOstBYAbS3XCySa1BNiUEaMnYxPHw+QegBJ27hvg91H1qWt+uUenEa8yxnbGVbpftPqC0ueX09kNOYBRMCgXq24MmtsfYI9wAh11izQyxOl8JpHI9ypAGLiX2t1iVC5wZji4WCYKs0ZwIZ8SLVeb1To5X839ZsJT6xBMFqZ0yogoV+ybcVgwyqaaNe8pwAGz7Fy7AIMYCzWblu8fdtqgzseXQ7TmjUWUNQZjBmK779ipLcywJOKjIYYtyuepv7wtz9ehQxlU8csQXkjPKM4Rh6v/60lN35k9d37VkdWfeEGg6zVZXnVWRtvRG8ToX8hhqwCT7RRujoDrxZWLcKIRQvHOM93wCfUw/cowWh303preM23f2ud6z+zxs4dmwVMNa4ZrmSKnGvvXEWbjLlfb9oI9bqqaeSZ8gxjXAH8g6Xz8A2Z7K87eHU/+oVNPblj7V2800Q6BNBiSKok34zewAgtnEc29HQL4LZ8ESP7CvqNuzAYWrazifz2bAaQayye4l6iD0LvSL/CP6dEP5aIPOYJwzfv2ujWLywgSop371kzLd/iIcPobw+m3dqk/ikAg99aMNQdoqD/33FJF/FA9LFfcpTUf5g3wDsJQWpZ/ngIqjDO2u7QbS5a/+RfWHHmL6x98c9hACEDSJ317lm+9b6lH/y/Nnrn39j84IG/t8qBCksld1OTUwHhjf+gKHXomn5IwH8uSue0MUbgg8j2SY1Iv5OndX68CpS0d+KKDVe+a8nCtwG3hrV21xHkd83u/py4+xGDizdD+KlNofqlnbAOkxf1DqXjWMiz1D+H8OPUEhpFo/fAga7ppwAShC1dRlgBsMrjBza19o7VtAgBbg2nmjaY+7Zlc6/R15eIeAh5Kl3vR4SHmXS2Cd8IH2YJM/TiwmzLGv0HFt/+kRWbN2y7MmvDhcsWXfjHYBLg1CHE1ttQ739ozdFtwoQ+yk4XEdBs6U9IhBfTJyxHsYd6kV6yZfXOfas9fNfqN39u+hk2Pd6ipwT0MkOf7wOsKuoI6K3VUb06X6uvBSHdkDBJbxbQ2zeHcdNfl7OKZzYTYGHxtrbxjNbIMwirdgKFmAOgw2zDBlu3bRuLWhBO1eWZ4pVovqh1+oq1zxIGMWS0xKcQtJO7sk3os4sHzljJYy3mz8AfQpb7Pzf9HoFkazjF+BFCNeaaKLdWrPuEOF2rb28D/B3/hfVEnsYyvIS30Z33rNq9hSG8Z8Pjf26jE38Br/Ss3WNbvPm3Fqzd8nm2/vIVC779zxBd2nj1bWs9+bXNdD7w+ds+wpyfILQ9eQ7gOG9h+xSyjXeI51PduAdfr1sN8Mi6D6zLuGos9Jub+Uv/2IpX/9n4p/BmrfPT/8XS3/yfNpv0fSM2sbIL8CDYtcFUy7qLZ6xKKN2a+RZyWLFhiOlDlzT9UIvxfDQnixLpyYxhv+fvCsspq9Jbx9gzvruArq8iUzQWKQHg9AMtgd7kIm8azzZrnyFUf9NSQtOaFrMqOTrSsx4u+HrQsCrGt7H92IaaC33yoS0PMWTwQMqWRHjFLYwKxsvagA4h6JDQMKwMMaKP3OfR3rFw+46FWyR5mshqbQH9Ro6etC/ZSE/bVDFihMxNQLY7LOzJACO4cw2j8YE1unet1V0HM8QfZ4+jk34vU5/ERXyRrnMZuc0py9+EIldZt/b/W8EchAUsD76AnrnJlzQ5NwIsBpW2zyXUEPawh0UARyjWurXIdpffsvzUD23m8l+CzBc4X7ds65ql939i6fV/Z+mHf2sL2a47EE5YyYIBKWRFcC993kIAps7RE98j4pN56jFMxu3vFoQo+L6RBLaHf0K7dojdO9OXrD91GWZwvbthrc5tm9arhIn7tX9KbyQoQjyllLokvHp2qz7NoJ/hPB7cCC9oeN+qo9/SScBjENsIazycW7BqZ9dq3S2b27lFf6lQk3eUud1o2KB5gXDwrKV6gWE8AgCxZv2uJTvaALmBQh63GKs9U0msXaCQG79xpdTi46B90rKVb1FYhCfyyEKFvoTb7XyLfnNangKfg9aU9VsXLW0dQ1imtW0HFvWsNeRerUrdf2ha0NI+Nm1o1GuxY5iM82MN1UkI6CtKYiUGXr+evlVdsV51kTYDYFj+/vS8nUGQjmdDn2/Z3F6zB2hal1Ds1JnLtrx63FqzeH/plm09uAbQ3rbgLt5td9tfLFlVuEc43EHiu4xXrj1YjF11574FeH+jbodxbuFxEM4gA82t64wVAgroPilmbd3mrL7YtjogJk9TP8BRXSNs39wpDQrhZ7pwAk7h+fc2rTZ8YPXksXVmXyZhSAKF0Fu2sv5rlAbvhTb0Zs5ZcvFPHdSzWx8Qgl2zefI4b6FRC3lqT2OQzsBb/R7jAkoV07aHhFj3rIEHlA8pSz/fDoP126fFpX9q+Wv/OfaKEAu16vz7/9WS3/7fNo9uSG4tn0YRA7zGbes0Y9tB0StVeBeuAuw5w5CMAQxJZYAEYvpJPz2CNkDOkoGeGe1aGz7P55vW0gbxcXvlvQrIU9pRxRGQA6GZF2267cy+bknzNCo1BShqtbxLXYFtolDVrW1rrW/gcZEHkJeP54Sh0+yhfm5uRMQzwJAPp6/YYOF7VqtXrBXv4oXrofRdaxBFNfr3rKoNvVrYoJvD9pQ9qF2AjyfK0BXPfQbPfGuzYw/Wd62O89AqHtpUsmkNgbv4oyTi03fb44np3YPlhD1d5VQBCPvrw4UHurX/32jGiRwChOdQ6Z75wXMJm0zohjfli+E1GK5IH7XTZlYapmqGMHEwc9qK5VetfuZPrL7yisWzZyy//2sbvv2/W7Z21Zfd63RQe6qEu96BSJ3gP4qjhQJfQYTUFIddT2o73iMMT2G4/0qxasWMCbhHCIKWnrO4tH6VdIhHoqcFuoCodrbnFAHqKAkMVR6WT4+k6Ad1sbkuJHpoNsy0bYIe41ZmWIKcsEVhbIjXWNczn9qnRhG+yZb8Gfkx4TC+XHXSoxFRQv6RQjDyaTAIF6u0IabvoBrt1lI7bj9hSFHH8qnTAJ/zAIGtFLjz6jZVCaD9WUNCSM3r+I8tcJGgyhdR9PrtuKftijRL4T39S7Ao+gFT/bCCtgjo/fUaJ5cRrI+/lgjjocdo9G6plHIV0uonLKbQiBGh72g0wEsp4F3kP7pbB6zjakSbEHaULNcbdruoCOAY5APCF7zIphYhVNV4lYkKQ8ZBz7rm8FBTBQHhmh4h0X4q31eIDAyQKUlFRMil14VrI6NemRzhtdlQoRLjFwKKmlulTK1Ah/Q9YrwSQt+0ukB96uAIRUNlGXeVp4fU9XuaSJUVeMQx41fTSwklU/BWr/sZAIyjsM1YyjsHOJHtRkpoqrfw7m5hEACdil5kOe9vlG1c+SdWe+M/85C0f/+q5df/Gk//H2wG70NyrIUXDdAA5RsiEwlho8+L4f76D7+SpIVaifNfdNc4ITcy1PrdBb2u2RcfSOKKntN0HVAePCoff3RGfXcPhWt691ZSnUU+2tQBD1EcxSvkBDTx8JBF8TLEq9eCAn5kWaAAjLyMMroofZScTcNnohTaGePp+1MlGi9tJUrRD3gbqlpUKa1UrS/ZR34qWs2Hd9LtEXLfx+WPVBeyHCtaG/eh5FFJLiN8L90qkj4oQ4+60SvOl+0M+v+1vz8SEnA8Q5LqMTmQffz1KelxHv24g+AxxJrFKIneqx0VChZG/kyXnjtOmgjMNPHwsdetduw1qwFidveXlvz9/4YArXOvi5KX+fGxGqpjP1V2aHxLeY6/+r6nnRPyM8+c/vircosRXsqnSC9qm9Bn9fsgpLZLHp9f6+eTmnCYZpR8238JethYIn+wVguuBFsHaXlI3oPUqdrIJ9k4AAkcXJ4wYlnYAKgDvKLADWMN7ZQHo3kZOT+YFcLrGQtm8KQIB6de+lMLX/7HNrr2M9v+4KcWrb1n8eZ1m9IuZXkSDtz6MYty35nLlgOTfgQEhxMvRaq0f4JTB+vuoch/n0HW8SntHWcdP/N9TxtdF/Zc/kT7Of7csdelceZPVH8QUihXAe33PkGudz25KaN0hZSap9UDoMFgy/LthzZcu2mD+x/6a2/0alx17lPgtadzk+O9HT4UfV45XPsEL5/5fij6qtr/tZIa7X7BAdI32WHVfYD0VMgECmWScyRFcWWRMGgiGS9DrxXXptNmLbR2FfDR0xkPr/tzj1lng3Cvg18gr0m8gCagqnLxrvT7kuWuf3REwcZXJmhfD3lzn2Hf59KXvW8f9BUAGCDF+OiVuA5ibnU5IUFQHCAQ46OSEdrpOUUtYz+5acMH7/tKhNzij8ftY/DS517A+tTY7rl2EHJgwtJ+Ko0L/vi7aM91T5P8+0vfOKkN+01PDyagtJ9Evkn2/aZD0OF4PZa0p+ClME6f2jSpgsf94jaF4XoESqFRRKisaRC9DDHduG1Fd82CkfZ5fdIDRXwm2T1E1NtPfFuF0Gt8bd/pGyT14xOJ9jxNz7s+Tl8VHR7ASIphlfx5U80caoLGW8qf8r/plcTxsGtB55EVGx9Z/vA9yzfulhZqPAoueH5YfhfpUaWvssMlUf4nOP1M2nvd27Ln+1ffmN857W36/pMyajz3n2TInl/ml0gHbm9JT/u8z8Rf/69wbwJgHkHAB39BouY5+XAcQ3b9/WbDXQBr0xL9NsC931q+fsO3gEQAmGaYS0JTkGXNW07mlVWm/wAtQDhWlQOnP1Y6NIBNGKiCNKv0VNknV8bc1TKpfhY/1jJtf913J+sZRJ9EduFQHj75W2bZcyzXe1zsx4J2SFJ9Kuc56WkIqzShyfe95/ZJZb8OThN+7Dcdlkog2n86FLOUdy/P95Oee/JLpr1yAfN80huA8f1J6pPOC8CUkGf9dF/W37Gko7cB3zd78pFFu1qx3iLq6Pvs4YRUtBaW/HU/mmT3iXYlv+r3/EGRujRJz9BXIZeiQ0/il7tlORgnbczUnhjtM3Kk0UqJWysSn9pW4Yt948eOtB/oKWBAZQg3Bq/xOVHZ4T0nRJM5hT3tnJCfefb28afKJTDQUXniGdo7iS/65HdvWXm4X1IxXvf+6ZMt2h85H72A/ZfiWfcOxD7o43oPQofg84QOULc/SiaA0XO9ekkjhzl/tBdLq8BOY3mWWJT72vTkRYuQMHSpKhIijVGqt85oLYBySFzLsnIVWOvk8r60cdifDhm301feDkIT9+1rJtfSvfV+Qk50/Oz3zyZ14Sl5sZ/TIV0a13VAjj2HKFR4Ui65aiGfQXWk4tqevqhCeWp6dW/FRrqLb+UNe8FrL338fVzJJB2a9jbu41SW/PxrH6eD0UFbrfE6aJqQ6t5/KsflIGlCzy/3C9IzfThQel65X5AESsKv8qC0uh4+Plsggiyl890P3KOXF1SSXasl21bPyjeG6FpZqBJ/3BBSlkCSPJOtDpM0uX2/6Y+ZvgIAm7CQIQkj37+VjgEsIaXaTzLBqAmpVuf+JNTgU/MmGlz+7qWn3x20lHGSvADSQWmP5DybJKyf+M7H7wFNerzv9Jwufdn03PK+dJKycnCQ9A2SVy+hnYR4klF1SItS+iwtsHtWeua3yne9y6wGMGkflIIPHK6PGSEqUdF54nNfHrlwrhT/stLDpD9SEpsPRXrBmzbnydtyW+XuLMPEh4ZL53WPGx8NlOgZxk/G+BNW++mhCtId4+QFT74fhvY24tNpUoMnTn38vVTKAyXyv5BE2w+cDkPPK+/LJKfnXfjiJPF9Cj4CL73ZxJOOuWdyq67rPgBMeyu1mvhUm3RtkkS6H5LsaC6tnFPj9sk9yncITZxU83XTpPlPE/18Vt4/K31VdAi2leQgBYBlYxBzAKPUEsBIHOi6GzSdmFicidWBPtmpEjxE/un3jO/Ye1xe/d3QuF0T2lvjYdKz5b4Y9Lye7CcdnDTvepB/pbUsS9hv8r1fQjA1fQJgk71ck9tEui4E0tMinsZ5RH5t/Dkh8ul2rWgq+e2T++TR+ZcXj9Tqz0z0+fMA7asgse9wRMOEVto3LR/MX8lCAKnJyQpBZPlLwgEDVi5LaxJfTrnWHv2dWc+QdwwBLD8/q5ucf07eI/odkAveYf59LLD7ShOB1+d+k5dRytB+01MXTCCoPQ8SVqWx0RWOaSeFfvbfhVnnue0pwE0KmgCY0lNS45Rhkgny+ohF9ejcJ28+oi9BhwawcozKNT29OE4P1OoJegcvgEwTnG5ctK9GvjYDpWf9RozfJ7f4jYdPY+zfJlfGg+pfn3P8R0IT3hw4iZ53/ouSanZ3+iBpkn9c1n4S9DEY7S85PVvel00iCexkfmoveHFKRjfhWI8XjTRton7qwji89Nu9IVwbJ05/miYndT0kDnUAg3R+v+mPmA4PYAx2mcrJSV+RgalugMRcWRwdyKoBYKEGawxke8nv9YPx516SkEzE8+nx74ieFYgv+r4P+h22+ndMarlGdL/pm+oxg+Rios99JuUdg5fm2Z8S5bkIK5JwwNED+phsJfWVLB5ZoAsp11K9Dkqv2JGcA1Jle0iqQuWOy5eTp6UsnX4hSQ3fmz6Pvux9+yDNsPMxKXFvDZNzJX2uKE5k1d1j6NnsEgzd4xKAt8aA6ocXypPl5U/R5Nzea0+PdbD3wkQ6Jun5NLnin5Mink0T+rzvk+P9pgk979oXpcPQ045zsDd9Dq+e0l5var9J5fvnN0EHrNjBS+hSHj4lZ1cZRUwiCcnv0wUqSItYmkDRmyFkyst9XUpjPk/K0yfJ54WVOJ5cOjCNy/w607hXn6Rn7/sMem7eCX1Ovmcp6P9XvuOUw8/I9UWF6bp7RSrGv3y6OL8+Hkj+a2Ogbw5k5P3FhLqy9/6nxM1+Xvn3fo5JXz8hZRPi3HPLK/x2L2WMtV+a9pSnHwE9CHm9z23XlyFyHzgv9Fl5n8u/Z8hveYb3X4qU8RCNPmjWQzF63E/4Ig/JcV7k4lvOrMljmtynyMPPcnP5A7mTiGSSsbz2CR9rfCjWF5rZBwxdonwsDtBu1TWp7kB0gDpF1OmLdk/peeV8RtlS+M9p8yeKfZZ0bXxD0P+rSQ2ccKDZL42zf0Y7P5eUx0ex/Lo/UlvHQPJZSvh55w9U57hI59P+efV8kP6S5HkPMj576Hn1f1nefdZ9R/TVkIPQAcf3oPmcGNeDCibVfhLA9kFEawdutvKNMx/Mlfi9ITF+/8w/UsUjOqIXm3y7DPRiA9jn4tfzLzz7nOMfLYkPz+PFZ50/oiP6PSEXz7GIvuAe2GeRlHB8CJXbG8t/R3RER/SHQdLnP0AA+zR4+fdJ+mOlSd+PPK8j+kMhxPUPDMCkhOND6Cl4/aGQ+nLQdBg6Arbfb/ojHp8/IABjEPeM4xeB14s55Gr1IdJ+PK/J+eddO6LfDe3l+X7SYfO+wPSCA9jewRifgnyifs93kb4+HbNnrh3RM+RMOqIj+v2lUsXN/n8EXBe/ADLIHAAAAABJRU5ErkJggg==;" vertex="1" parent="1">
          <mxGeometry x="160" y="670" width="209.66" height="60" as="geometry" />
        </mxCell>
        <mxCell id="d-z6-dSJOa0beq1oyZxt-43" value="" style="sketch=0;aspect=fixed;html=1;points=[];align=center;image;fontSize=12;image=img/lib/mscae/Azure_Boards.svg;" vertex="1" parent="1">
          <mxGeometry x="181.5" y="185" width="45" height="45" as="geometry" />
        </mxCell>
        <mxCell id="d-z6-dSJOa0beq1oyZxt-44" value="" style="shape=image;verticalLabelPosition=bottom;labelBackgroundColor=default;verticalAlign=top;aspect=fixed;imageAspect=0;image=data:image/png,iVBORw0KGgoAAAANSUhEUgAAANMAAADQCAYAAACdk1R3AAAAAXNSR0IArs4c6QAAAARnQU1BAACxjwv8YQUAAAAJcEhZcwAAFiUAABYlAUlSJPAAACzYSURBVHhe7Z0JdBzXdab/3tGNrbFvxA4C4ALuO0VSVCxbtLzLTmwn9kk8y8nkODMnk8lk5sSTyTIztufEWTSZJMdxbI8lW5YlSpRELaZILaQoriBBgjsJgiBBLCT2tbfqnnvfqwZAWqIIogkWgPs1Cl1VXVVd/er9de99W9lGR0djEARhytjNd0EQpoiISRAShIhJEBKEiEkQEoSISRAShIhJEBKEiEkQEoSISRAShIhJEBKEiEkQEoSISRAShIhJEBKEiEkQEoSISRAShIhJEBKEiEkQEoSISRAShIhJEBKEiEkQEoSISRAShIhJsAgxevF/PWkmjvVj/XF/REyCJWAp6dc4SlgxWseTXlLrrYqISbAEMcqKtpiNJrVAf1HYaJaXbVFeZzelZF1Bybh5giUg40O5Uf2ZxNB7vQ+X6q9h4OYwVn9qCXwZSXC6Hebn1kMsk2AZWEiRoIG+9n6c3Hse+7fX4/1fHMWZfZcQHg0jFmUTZV1ETMKDh6xSLBrDUN8IOi7dxOm9TXjzh+9hz4/3KyEN9QwDDtoo7gNaFBGTcN9g1025bxPgRRUC0X9duEDLJKTASBjH95zBi3+7C9u/8waaD7YiHDHg8jnhdMSzKb+PO4JWQ8Qk3D9U6YFW00RhqYIFftFyT2svjuw8iWf//BXsfeogrp5shREOweaKwUa502Zd7fwKIiZhehhz0cgmRaLo7xzAqXcv4v3n63Hg+aPk2p0jF+8GAsMB2By0uTO+z8xBxCTcR8isxNi0aFFEyW0b6h1G2/kOnCEhvfP0Ibz7s8M4d6AJwUAIdpedJgeilCtnlow0IibhvhIj68IvdutG+4I4+04Tnvufr+KZ//4azr53GcHRMDwpHtjtbtraRttTLEUve8xNSzMre4qYhISgYqL4yzQryiaFohhoH8L+547guW+/jl0/2If2ppuIuaKwe0hkTtrYTpMtotw6Fp2dAyVepmPNJERMQkJgizIx8xsUF3W19KDx7fN46yeHcPCFBpx5/yI6Wm6QSxeEnWIinriQQXF7fDTD4iVGxCQkCJ35jZCBge4hXD3VioY3z+K9Z4/i7Z8dxOXjrRgdHqWYiGyPYwYV0U0CEZOQEOzgZj42DPYO4wzFQj//81fw8l/vxum9FxCzh+D00hZOx4yLgyaDiEmYMtx6oae1H3t/dphEtBOvP/kOuq72IOY04PDZtdDYbbMZepqliJiEO8LOGxcqfBChQBg3rnTh6Ksnsef7+3H4xQZcrr+C7rYuhMMR5c7ZnVyYYO6gZmani8eImIQ7o4rmxsXEi1zp2tfRj+ZjV1H/2insfeYg9j9fj5aT11V9kZOskY1EZLNx2dxE8YiYhDkLKWesVI2LvGMwyOKMDIzg5O7T2Pk3u7Hze3tw6cgVRF0ROJJJRLO0cOFuEDEJd4CEoTrl6Y55HeTSvbe9Hj/+o+ex6wf70drUATsJyOX1wmafuyKKI2IS7kgkGEHv1V4c2nESb//4IA69cAJXGtvQf3OQ4iJDWSJuSzeLvbe7xsJiGvfTGV66dY1w7/xqkcLt6csi6m7rw4Wjl3H05RPY98xRHH31FMVFrUpEdo8DDhe5dSwiVWErWEpMuilKVBW16vn4+omTfgn3TjwNdSs47ldkpi39M4wYwmyN2vtxbNcp7HhyF7b/79fRfLwFoWAATh9tqIq35RrcjuUsU3AwhKHuEbpUdGrssuvLrKspaOLWW+JTTB2VnuaLLQunaDRooOdqH/ZRXPTTb72CPf98EF2X+uFN8cCZZFfF3Lax9j/C7VhsQJUYrp3twOWGVgz3jWLBujLkVmQjOd1Ln2kBKWvF118tCfeGmYgmXErXfukmLh+7iqb6FrQ1deBmS49q0W2neMhO+lE9KegGN52d9ZSXEgRKaubhG09+CWm5qXB5uKOTNbHYbcaGwb5hXDp+FXufPoIDzx/DqXfOo/V8J0LDPKAG2SURUgLQKRgcDaHrWi/OvH8JR3Y24P0X6lH/y0ZcO9OGcCgMh1sXLsTGSuqUayB8CJaz2Xa7EzHDhh66yO88fRAvPbkb7/78EDou3FQDbkRChrZOwr1BacctugPDQXQ291BcdAbPfedVvPmDfbjScFUVcbu8LrJILpKcU09R7lukLQLHWMIHY00HmBx6u8uAO8WN4e4AGl49h3/5T8+rEWuaT11HOMB9XeLEg2lzoA6+eZrTrZ0C5gLxYgX9y/m3j8/plIiEDXS19OLdZw7hhf/1Ot78+/fQ19pP8ZAdTi/3iTBTjEvoVFs6erdzXyOKq7hFg8RMH4olU0aHxQ5yMezKbw6MjqL7RhdO7DqHXd/fi10/2ofLJ68hOBJSW+t94pkgPnFRhblujhDjwIZHRVW/PO6aaSIBA+3kLu9//ghe/ptdOPLyCVy/2I7R0RFEDdqaLNKtFa8T025upeO9YuHbDAW79N9mpwvNHclIWF3XunFu/0Uceuk4Dmw/hhN7zuH6hU6MDgbUHjor8IXn+7Hm1iw1exnP7vFfTPaIYkyuL+q6SnHR3os4uOM4Dr5YT+l2Fh1N3EkvALuXRMRDaU1nycIsxcJi0tlDuyicRZywU0DMXZx7rvVg31MH8fLfvYUDO47h2rk2jPSPwghFEI1RTEUvvjubRVBzB/q5rAn+/RFuQ9c/jBtNN9Hw5hm8+k9vY8//24+Wk22UjhQTuR2IcXdxTt8YZYNxNQr3iDXFRC5azBZRmUIHweTuOYJ0tuy3c827G85UBwa7+vD+z49h+1/+Erv/ZR86m7oQGTX09mydVM38HMklShecYvSbSRw3rvSRS9eAp/7rdvzyH96jtOmldHNRXOQiS8TpSMlJaclxEOwcG4mapooFxaRyBV1bbvDFsCh4mes4eKJ5uqPaHXRnpVc4HMLN1i7Uv34KL/7V63jrqQNoOn4NIYoRtGXiSaMKJszjz2SiMGiiX8K/x/wprInQaBidl7qx92cH8cY/vItDLzbgRmsPAsFR2j5CV5vTjre+/ffP7PSwChYVE8MxE+UQdcfkiZd4mWfZYtGLAmYeU8AwIuimTHN2/yUKrBtxgO7Ix147reOpIR1PTWTmZx1KBKUi/Uu4IIZjoFPvnMP+Z4/g8I4GnN13Hp2Xb1DaGGZ9EW0r1ue+Yk03b5JwAM3ui4tigc4LN3Fo+zHsfHIPDr9yEi1n2jDQPYBwMKyznlniNZNRVppe3LdouG8Y18934ujrJ/Hmj/Zh1w/2ovVMu7LYjiR9wxGmh1khpjhRigUcyWStvDEM9g3g3e8fwva/eA1v/Xg/uT83EIuYsQFNcfdoJsIuHfd25XEXDu84iWf+9BXs+eEBXD/XAXeqG3A6VZmCGo9OmDZmlZg4l6n6Es5t9Gc4g+ju6MHxV8/hpe++pR5RcvVUG4JDIZUhZxoc70WiEVw5fR1vP30AO763C/ueOYSu612IhMP69ztsJCRu1U3WayzuFKaDWSUmdn3isKDsXjsiEYqn2ntx/nATuX0n8N7TR3Cc4ike75rrYLiR561Y824eGAyg/WIn6l87ifefO6Z+y9kDF9HZclP9Rm7BwJO+kXBMydyfO4YuxLkdsYKzyzLdhoot7JTJKHaIuaMkoHa6kx/B7n/eT5nyBK6eblNPY+DW0XFN8RtnFiu4gfzcIm6LyL1aWxqvo35nI17/h7048ItjuH62E0Y0CleyS4loom7UTUW5s+OV14mD0yaeWPQ9Zvw51g8tyuvUqjnHrBZTHGWlKMO5fG64/A7caO+mOOoIfvgHz+PdXxxBR/NN5fbpOhragacHEFfd/n1qdNS2Ieync9zxnV148/8eQHfLgHp2EfcvejCFC5SWXL4+sRCHzjsadMII2hENcyqymzn3mBNiGoOuv5075zhiCEdDGBwYxJEdjdj5t3vwxj+9g/azNxAaCSvxqazCd/dpg77L/L5QgOIiiu3efvogfvYnO3R9EcVFMY+BmIPri2ijB6EjBX2xGYuxJTKCBsLDUaTm+LB82wKs+swypGVn0lbkDdDnc4m5JSaGBcUd3px0sck16W3vUx3ijr7WiHd+cgQNu8+gjWKTIIlqWqF8xw9Bbmu6gcOvNuC9Z4/g6KuNOH+sGd1tvQiFw7B7yCrwACYPTEgMW+yoskD8wObkTB9q1lVh4xdXYP3nl6F6TSmSuJUFJ/QcY+6JScGXmoN1u3KXOIDvaLqJvc8ewrs/PYj61xtx5eQ1DFA8peqn7rO/x5WuvR0D9J1tJOpT2P2jvTj44lFV1M3xnsPj1HERwef9oGBLEzU4NjKQlOxFTmk2ajZUYPPX1uCRr2/AooeqkZGXSuk6h5pxTWCOiolQAbqeuDcp3/VdaTZcO9muCiie/R87cWD7UfS19as6HXVHpmggnk14utfwno+kXmZ+62juxt7n6vHMX7yKN/52L7qa+5R4nF66u8fPM87E+QSiChBo0gvsyrHl5nMcXxcNG4gMR2ALOLBgczU+94fb8Bt/8hksfaQavjSvSpO5zNwV020oSwU3+C9qM9Twvwefa8T2b+/CWz85iCun20x7xnC2IRHS270ZLZ1ZB7oGsfMf38ILf/Y6Dj1zHP03e+HwxZSQVBE3Z+ppQsWJ8Y5/poC5TxngVIIK90eQkpaGpY8twte+/Xk8+tvrUbG8CN4Ut6rb4p/EzGVBiZjG4AwUVRmDJ+6R2t3Zg0v1zTj68kns/2k9jr7SSO5gN4LDE+OpyWefuET4e5IoMxok3sBIAIEB3dmRX0pI98kKfTDxs9Kw5eTmSrFwlASTjNqH5mPDl1Zg45dWYRFZosKaXCT7ffQbJAvFkZS4Be6+QdmK79J0U7Z5YwhFgqqtWz0J6q2n9qvW6c0NrWS5BhAJ6W4i9yQo+iJfShKWbKnFys8uQvWmCmQVZMHl9tBp0PEoNplWWLxqIstM38091r3JHuRRXLRgXTU2/eYqmlajbksNfBlJqrPmGNNoQa2MiGkCys0ZyxckqJjuOu9McSDijOAaierlv3oTO773Bg69chyDXUO6VIu21v/vDt6WX063E7kl2dj6mxvwxB8/ho/97kPIrshSrmOYhPogMmmMB6EcDsEVdKFqSSU++fuP4Le//Tks//hC+PPS1HnH4bOjyIr+TbPwLYrjW9/61p+Z85ag63qvyrRtZzt11wEryJ1yjcrWdC5cpB4YCqCTx5k7fAUjI6NwedzkCnnhMEvcWC4azmrmvBJGjOIxuuvT3O2lcu4kF1mmdNSuKoe/MF1tM9wzrJoRqe9WMY2a04UCNKvcwQ9YnhR0elywwiIyRmPwODyo2VyBrV/fiFWfXoKihXnw+CiQNI8f/w7zVIjxdUyX6gpzEaMDATovirvGN7wH6OTIQqZnp2H5tkXwkKUcT2PrIWK6WzgzcYam84lSHMGC6u8ZVO5eb9sAhgf4ea0OElXShAvOGYnFxO/xyTyOOR+H90mizJKWk4q07GRk5KcjPTcVTlo/MhhCJMgt3vlv/BgKJVIuPCHMVR8FC5ybWvEOPJiKEYip7y2tK8SSX6vFsscWYf6aUmQXZ1BMR27nXR6XETFZCMuKyUQJwSykiFJm6W3tx83mLvS09SIYDKvMz89udZCw+F3tY+6n5+n1IRmMZRezxZCSkYzcsmzkV+TSfBKMsLZwBok4PExxHZ+D3oVQR4zP3h3chi7CzZHsZHU8yMnPwvy1ZVi2bSFWbFuM0sXzkJTq0b/zrg+qmctisu6ZWRh+TL+yNzE33GSJDMo03LVj19+/gx3ffQPHdzWqlhU82KPa0MyQH5WvOPOp7uW0k9NlR2ZROlZ/ZgW++F+24ZGvr0dxdT6igywEyqQ8PBdlNC7xi9m5+wUv3AV0Pg7DjlgwCrfLjdJF8/CZP/gYPveHH8eax5eRRfTT76MTVYURUxHC3GPWWaYo5SsjRBNllij38SHG+jgliPj9OkYZmA+rLAXfxTmeGozgamM7rp3Wj+pPzUqmmMql7qhsXTjz6zO5/Xz4M/6YXTZ6TfjY5XEgc146uWHFKFtWTBYqjKHeAEb66YdyAnEROp/DrxzzVrjyOULWE5Qei7bWYNOXV2HDEytQuCAXXrZEZlrbWETqmPx352Pejrh5FuKexERpzv+42/rCDfNVs5bc0mx4/R5wbM5t3sLc1i5KB+Nt+fp+SEZRGZ5Qn6lMpRY/AN7CPBj/sWBpMowogsMBDPUNK+t0o7mHRBVQbl9yqleVDk78XspvGiUGfqP3276Ti6E9XjeSM3zwF6QiszAdabnpqjRwqGcI4QCJijPuB9006PhRMnZGKIbkNC8qlxZRxlyMpY8uROVKHRe5fS7YeV/zzNQ58Lv6PzlETBbiXsSkBEB/LnJb1n9hBVZ/agkKKnPgL/IjjTKgL8WrCga8lJk5jolRhjeCERV8c/zAqIvO110vqmWevXNeuPVDlQnpfLkFg+qH1DGA9gs3MNA1hBB9n25hYCMRjMdTY6ivv+OXKVFxIQXHU1nFmUjNTCYjozNsJKxbcHPm019D50/zXEqX5PMiuygT80k8Kx5biJXblqCQXMZk//jjM+Py0RNz53P5MERMFmIqbh6F/li8uRqVq0uQNc+P4toCLFhfhdqNlShdPk81zHR7nDACBgK9Ibpj80MA6IIpAdFFZzGQNeJMz6soe5qZYfIZgjOpnQsiaN+ulgFcO9WB6xdvwKDMn0KZWDXD4e4gnJn1311/C9fq+FKTUDQ/F4s31ZCVSsHwQAiDN0ZULKQPRBYwSsIl97NsSRE2/eZKbPj1lWSNypFENxZd6coSoo3Vb+Z9po6IyUJMRUwOuxMLNlahqDZ/rIaePTWny0kZOBk5JZmoWFaCmvUVqNlUgbLlpfDnparnDwUHwxjtDZPAdKsGdntUJ7ipZAbOp/SP66a4D9XI4DBa6jvQwV08hkNkWVJVrGJnEZu73B1a6rwT/870vDSULylWdUIxVwRdF/rV+VeuKMajv7MZG760CiWLi+BL83EiqX3195H1UjeSqf3MiYiYLEQixTSWUejuzIJyJblUkW9Kpg/pOWnIKspAbnkW3eHzMW9BEQqq8pFdmknxiUs9aSM0EKFYg1xCVSrHo6DyHXyymYP2ISFxCWA0ElPdLUYGR9Hb2kei6sHw4JB6gJebvtNJcdVdE4/n6Hy4gMOXloS0nGT1m3LmZamuEYu2VKNqVSkyyEqruGisqJsTht75GDSvK5Ljn00NEZOFSLRlUpn5tgvKvW1VBiRXKSMvnQSVTTFEHvKr8pBTlkV3+lSk+inWSktGSkaKyuh8CC4NU82HOBYx8yNPEzMhW7VblwmzBI/dRxVPhSPo6xhE58Uu9N3sQ3jUUPEbD6jJrQ1+VbTxLzOPp0RAU3wbWsltCZN8HmQVZKKgOgelS+bR78mBN53iIt5O/9Fk7jP2zofT5zzxvO8VEZOFSKSYVB6acC15VmeYWy8wxzdcMub1J1Gg7kcZuUQ16ysxf0M5ihcXKnHxRQwNUYzFpe1RrvDUmVA15eGYIxaPs1R2H8tEXHOkxBGv0qPVaomOx0Ny8Ui01491oPtarxr3LyMnXZ27On+Opwh9REYXiqgwSx3HnNS8XuLv4qZJ/HtUF/3bPlfL8SVeT//o28w1U2cui8m6Z/YAIG2o68eC4EpTf3YKCasQ6z63DF/4o8fwb578DXztu1/AY9/cjEVbq+DLTEZ01I7wYJSsC1mtIGUcuvjKcpiTPUZWjcdMUNbkVlgsPMhL2BPB1YtteOsHh/H0H7+E+jfOoKd9QG3DhQ3j+5L1MucE6zEH3LxJwGqiO6l6Uf5VFoviGL7Tcxs1rudJy0mhuMSPwvm5KKsrRnkduVM0n5KbgphT12lFSFhcTB1jf5COoW7OSqkmallP6s5NfzwmeCgQwnD/iLJS/Eyl4YERckV9KqbionTehY/C52dVxM2zEA9UTHTx9KXn/+NzKvtSpmC3iYXFneIyC7WgOC7hQoysonTlDvqz6T0rlbZJgjPJgRhXmEYMGGESV4SlQOfFMYo68NjR9Wpaz5W+vWSVutv61BgUI31B2j+sKn1dSeS6sftn7mdFREwW4sGLaXw/zrRj9mSim2ZaGS5QYHGlZaUgvzwHVctLUbO2EhXLikhkGeQGJgEhEhQ3LI2SwxZlQTrpmBxr0TFMV1DVbanj8btd/e5IKEwWqg9n9zZhoGdAFTBwZ0InN02aEE9ZDRGThXiQYtJZ+lZ4nXrRR2OT+bodzjh8sb1pSWS5MineKkbd1hoseqgG5UuLkTEvDXYXMNofRqAvDIPcQW2S6J32Vcckoer+SbTkIGnRNNQ9ipYTbWhpvIYIvbLy/fB4ddcI1qQiLnB6ja0y36cTEZOFeLCWaepw5uHv5lhL1WtRrOVLT0IauYDcXrBkUSEql5SgcmkJuYk58KQ4VTdxY9RAZISkEgwrQbDlURnRTp+RVeMhx/hRozev9qCzuVtZLi7aT6JpYn7lfScy3YISMVmImS6mD4JbQCT53KoFObeRyyvNQl5lNnLLsuAvSENGPk156UjLToUv3l6OXEOOs3hQE5WpiEgoisGbI+hp78dg9whZuABCJDKOp8bb+03MvOy2Tq+cREwWYjaJibMRy0BnJz3HL7vLThnDrUoGi6rzVROn8pXFKF5UQALLUcLgYgau/+EE4OZGDO/rcLiVqDqbutFy8jpZqptwJjlVi3knTQ6XkzakLSe4fdPJXBaTdc9slmDjSlv1rkvhOMZRBRD84nmaHCQubgE+r7YQyx5dgM/9x4/jt77zBL76nc/jiT/5FFZ+aimyyzLATZKM4TDCowHSmIFQKICmYy146bu78dJfv4mGXacR4uHCyKrxd023kOY6YpnuM3GbEodv1PGMrubVxPO61QO7atzUiZsVpWT4kEkuYEFlLsoozpq/qgIVS4uRWZgKl9eBMFmoYF8IwZEgRnpH0Xm5Ww34z3VWXoqleBqH5ctv+nvvF+LmWYjZFzPdW2bi83e5neYgKynImpeBXIq1uB0hdy/h/kw5xRnILsxCRpEfMYqz+DlO7Zc7Mdg2QjHVEIKBsGpXyB0LdVE6CYrcPxby/ULcPMGyaLeQbhROG7xpHviL0jF/TQXWf2ElPvG7W/DpP/w1fOL3tmLdF5ejelMZcsr8uHmxC4dfOIH3fnEUZ99vRkdTF4b7R9UotaZ9Eu4DIiaLo+qKVeUuXSp6H79g3DjXDT+5geVLCvHwl9fgq//tc/i3f/c1fOMffx2bfme16lrxxt+/jRe+/Soa3zqLoZ5hcHdF4f4gYpoBKC2pifv+GtBjI9HFo3XsvnHRO5focYyUkZ+KwtpcrHxsMR7/d1vx63/6ODZ/Za0q6Ws+fg3nDzdTrKUHmhESi4jJ4rBh+rApjp4nUZGwuLKYe+9mU4xVvmQeFm6ej6p15Sicn4e03DSKwXR/KSHxiJgszkTxcMEBj3PxqwUIH16kwALjZydx58eqFSWqBYbD6TQ/FRKJiGlOwaKj14cpT5gSIiZBSBAiJkFIECImQUgQIiZBSBAiJkFIECImQUgQIiZBSBAiJkFIECImQUgQIiZBSBAiJkFIECImQUgQIiZBSBAiJkFIECImQUgQIiZBSBAiJkFIECImQUgQIibLo0e60+MRjc8J1kPEZGliiMZYTFpE8ZdgTURMFoafeWYEIgA/dVCt4Ce6yyWzKnJlrIyNLpDLidYLN8aevj7hwaCCxRAxWRj1dAwnP9/WUA806LzSZX4iWBERk8VhS5Qzz4+R3mFcrG9RT5fgx3YK1kPEZHF4DNcUfzJS/SkID4VwYs85DA+M0idmcYR4fZZBxGRxWCs8OH9+VQ4yC9Nx6IUGNB29iv7uYfWAdVuUBcVbiaoeNCKmGQBboOQMn3rYWUZeKhp3X0DzkasYGQqw6VITP8JMeLCImCyOloi2PGyZNn91FVob23CS3L3WC+2IRA1x9SyCiMnixBBVL7ZO/BjKogVFKF1XhOazbXj3qaMY7htG1DBIdKKoB42IyeLwUyvij5Hh2MnpcWL1tjrkFWah5Wgr3vzBPvS1D5CgtJhUoYT5EqYXEZPlUTJSL8Zus2FebQHmrypFcmoSjr10Dsd3nUbXtR71+TgSQ003IqaZBmmEH7dZvaEM89eWobe5HwdeOI5zhy5jsHfYFJ0I6UEgYpqhFMzPRfXGMqRX+NBxoQNHdp5A474L6jMlJfLypGBiehExzVAcLgfy5+fhoa+uQ3JKGlqPduL4i6fR+PZ5BIaDpChSEk/CtCFimqHY6Mql5aagbmstihblAU4bWk6148DzDbh2thOjA0Fx9qYZEdMMhW2Ox+dGQWU2ardWIKsyA0N9Qzi99wIa3jiDjqYuhEcjelt2+dSccD8RMc1AVDPXGNkdmlxuJ9Z/YjmKKwvI94sh6gjh3R8fQCMJqq9Nd9vgTXUMxQXm0kj2fiFimuHEbDYk5ySjakMpKlaUwBi1weaLov7tM9i//RgGbwwDRlQ/YV38vvuKiGkGwq0dTMOkBOL0OFC+tBjVa8qVpeJ+UH2dfTjz/kUceIEE1TuiKnVFS/cXEdMMhQVlakmRU5KJyhWlKF5QAIfNgWjEwI2WGziwox5NR1ow2DOEWJQjpw+SlERUiUDENAOJt4iYKCaX20FCyscjv7Uebo8b0VgU4XAYXa3d2POjfWg5cQ2RILfhGxcTS4gjKN30SAQ1VURMswifPwnFy/NRvqxIdSa0c/k5/XWc78Khl07gzP4LpnA0cTHyIC3iBE4dEdMsgSXCFbmp2SlY+omFyCrKIFePVtIVDkciaDp2Fcd3ncUFcvl4TImJtiguKmFqiJhmFTa43W7UbKjEvIVF8KUlI2aQY+cGBrsHcfFwC46+cgodzV0IjoT0LqQo6b6RGERMs4S4dbE77MjMz0DNxnKUkrsXDZBUSCtOrxP9NwZwbOcp1L9+Gj3X+1WBBBeZS8yUGERMswZdIRuPiapWlKFmbZUSUczgkWGjsDtjMEJBvPfTozj91kX0XutX2+rBLfUR1Lvo6p4QMc0axkv4WAspfh9K6wqxaGs1HDYnBU50sckMxewxjAwO4tiuRjTsPov+m0OqZYSOmcz/+k2YJCKmWQWrgCZSk8NpR15FJlY8tkAVSjicDlpNnzlscCTZce1CGxrfOYvz7zchMMhj8d1abyVMHhHTLCQeB6VlJaN6TRlKluYjKcODqNklg7u/s8t37Xwr9v3sINou3kBw2CyQMFHunp4V7hIR0yxBD7timEtxbPD6krDxsyuRm5sNY1RLhOMn/iwSiqLjSjd2Pvk2Ws91wAjr/XXsJUyWWS2meDA+F9Dx0vjljMdPTrcTJXVFqFpbgpySDESCEUoYLSr+HwpEcPX0NRx66TguHbui1uo9hckya8U01+6sWjy3i4Dk5bAjhd29DRUoX1qkO+Cqy07bKncQCI4EcWbfJZzcfQ5tFzrUo2yk7mnyzB4x8bWniW+6aqJFucPqtGAq6kpRvbISKf4UEpSLJrtKH5s9BmeSC73tg2h8+yIOv9KA4YER1VBWBDU5ZpVlsgXp8ocnPBtM8sIYLp8T8+oKsOLxxZRGIYqPOHHo8puFEk4f0NvRi+OvncfBl+vR3zVEa+VmNBlmvJi4jiQaJD8/6MCCR+cjtzoLThfddTmPyIAiKg1UdERXOrs4A4u31MBf4lft+GKRKGwGW3F6t2u3b6BrAAeeOoFT71xEd1ufeRDhbpgBYqKswJogt0TNmy/1CT8BgixRmj+VMkk1Vn56MfIqs2B3yh31g/ClJaGoJg91W+YjJcOHaJjHKVeJq10+SjcjGkH7xRs4vvM0LhxoVsMva+TG9FFYXkymbOiPm7zwEvlw+vorMfmSfaqH6bZ/vwkLN1YiPStVZwx1oxVRqbQwX5wovnQv1n9mBQrKM2F3UWqq1Q5llTjN7E47HH4bzr3XhIbXzuDqyeuqyFyPH0EvfUGED8DyYlLZQCmDA2J23zgHcE9Sck0cMaz/4lI8/s1HUFCdD6ebPhPuCKcRp1X1hkrkV+fqlZSeug88wYKy2+FMs+HC8cvY/cODGGgbghGk9FbXQm8m/CozwM0zYd/f4CkKJ909Mwuy8Il/vRUrttXBPy+N7rIOudB3AacRx0s16ytRsaQEdhJRLMYdn241OVykHjEiaLvciZ3/5x1cv9CBUCAk1ukOzIiYSft09GfY4PI4kV+ZjXWfX4FV25agoCoPziSn3lS4a3LLslG+rBj5Vdlk5WOIqvEhJkCi4466I4PDaHz7HBrePE2xVKe6mQkfjEXFxFdSmxl9J4yqhphOjwu55dmoe6QWW7++DjllWXCxkCgfiFG6e9iyeJM9KF5YgEUPV8PpIPf4Ni0pKFH5YdSjAyM4srMRp/ZeRF/noHgAH4IFxcRXyq4CYXXVyBoZgRhCg0HkVPmx6aurseUra+Hxuci311dVLu7k4PTim1ROSRbqHl6AzMp0uilRHBqNqhsXx0/6Paaugz3FhoH2IRx77Qze33HMPIo+hr7ZmSvmOBYVE1uiEF2tKPjN6/Oh7tdqsO1fbcHCDVXqkSoioKlig8PtRGahHxs+vxLpaRmIjvBavolxUTm3kNDZI2Y3ADfQc70Pp/dcwL5nD2Ggmyt1NfGyi7mOBcVE0NWx0Y3RGInBn5WGBQ9V4qHfWI3qtRXw56brCkZhynApqTfVi8WbalC4MA++DK9ql6fhNDbTma+HgwdmCePGlW4c3N6Ay/UtGDQFJVdDY0Exkc/AbkPIjuTUFBJQGdY9sRTLHl2M5HSf3kSYEuyWxQWgCnTKs1D9UClyqzIRM+LdOHgj7b/ZYqQkwuGyIRQKofnYdRx74yyunupAaCQsYjKxpJiikQhGu0NY9UQdtnxjHRZsrI5/QhlBfPQpw2afUlOJwEzLZVsWoGpZie7TxDGT6tNk0CwtqyZJenwJG/fUpXva0ZdPov7VM2i71KUPIFhPTHwBc0pT8aW//CTWfXYp8suyVZ0Ho/x4ck0kXpoaOhbSiRhPy+SMZDW88sJN8xEeCoGrnlR6q2ZcvB2nu057m90OuzeGM/vPYu9TB9B54SbCAd6BlckWjd7YmM2x62QpMfGlyMrPQO2GKqz+fB3y5+cgKdmjPxTuKw63A0W1Bah7uJbiKI+OS1XJQlwR5ju9sai4lG+oZxgXDjVj/3NH0NPaCyNkjImTmyiR9PTCHMFylimrKBNVKyqQU5Gp+tmIRzd9+PPTUbWyHGVLi+HxelTd3ofBouFWJ1yqd+Dl4zh34DJ62/thRMwSDGXRREwPEK7XIJ+cuweIiqYddqf9hX5s/q2NSMtIhxH88IsQ47jLSfGUy0AwFMKenxzEmfcuITgU0J8jTNNY0eCcwHKWiWHvgifd01NUNR2wDeEpKdmNypXFqFgzD2l5yYgEwurzcbgYgkQUpbiJAiNuFMvu3FDPABp2ncbxXecQpc+0izi3sJSY4skfv7DMXPO7HzQO8gxS/F4s2FiBouoc1bhYdSBUrgJPdD1UQcSEq0V/qlFsUyeuNLZipH9UbT/Za6dLauk71N1UdwuJqZJEwuAFtZllsZhl4uTXl0BP/F+YPsyMS/8rlpWgjKbU7DREQ7SWO2Kqzz74unCBxehwQPXU5bZ8ShSTuXy3WzLTPVFj/LnICpILOi5ga2JJN094UOhbGcvGn5uG6rWVqNkwH8FhgywUF5PfOTOronMuBTQreycF7aP2Z8Hw/ro/vXpwm48spTvNo+q4rIyISVAoL85EP/wMKKzKRd2WaqQX+OBw83pa+xGCSgj0NXpATQdqN1arHgLeFPdYfaNVETEJGtIIt3HgcWHjda++VK8eM+LRBfC4vYgGo7TdfS6h4++mr3BHXFj68EKs2rYYJXWFqm0gnyN/bFVETMIETBUpbGrwf39eKlZ+aglyCjPhcjrHCwjGSGD2pkNxJ0V3kgeVy8qw9tNLUL2uHMnpXnMDayNiEhQsDy7s5uJuFbaYevGlebFwXSWq1s5Den4aYmHKMjHu2az7PClxJQISKNtFu8OBnNJsbPvPW1C1rgTJFC8xOprT52lVREzCHeAoSYtlyccWYV5lEYwhdvU4nuECAy5hS0QWom+xRxAN21C9ugrbfm8rCivz4PZSoDaDEDEJd0DbAZZTflUuylfNQ35NFiLBkBpmLSHQYWJccDdqw+JN1Vj7qcXqafFur0dVCM8kREzCR8Ky8aZ7UEFiqtlYAXuEsg2vnKqeaH8ess1pc6FicQnWfLIO1evLVaXxTETEJNwBrZZ4tVFRbSFZjwXwp/sp49h1r9wpFJXzYC12w4Gs7Axs+/3NqN1chbTsVPVZPGabSYiYhDugw35VIEEvl9uBnPJMrP7KEriT3DBCrKbJZSGOwaLk1/FkDMVQThbp8f/wMEqXliApJcncamYiYhLuGm6dkJ6bjGWPLURBTT6SUj0kDQ54JmdG2KJFhmOofWg+Vn9hGSrWlZKQKEayeKXsRyFiEiaFx+dBYXWu6sCZme/XFbl3C7mLsXAMjpgTxQuKsPzxxViwpQJpOSm6GdIMR8QkTAoOn2x2B5ZvrUVJZSHFPE4zdlIf3xEVI0UdyMjIwKavr8HihyuRWZB+S1OmmYyISZgUbD/s5O5lU+xUtbkEJSvyERmhGIgHsLyDovhzYzCGgso8PPLNDVj2SC3SVWED7XMvDWMtiIhJmDRcIOF0O1C+tJjcvQo4XVxIoQsrFBxDjcVRMWWRjP4YKlaUYPVnl2AxxUrJaV4zRhrba8YjYhLuGR4Nlvs9lS4ugtPuQpQfpsGYQ4kxPI4Ej3A0b0EBlm1biEVbq5Vrd2thw+yQk4hJuCfYpePicXbbVn16GZKSfbolAwVA8bH2VIwUcyA9MwPrvrxClQLmV2SbR5h9iJiEScMFBtzfiLtrpOemYvnHFyC/NgOeFKfq5h6L2lTrb2Mghpy8LGz9+hqs/OQiZHBhg3mM2YiISZg8ZHXYdeNoh0eT8qZ7sfwTdcgtyVFPLEHEpuqRypcXY+0Ty7D00Vqk+JNnfD3SRyFiEu6Jia3FeQDLmjWVKFlUCG+KF9EhIK88F3UkorqP1SCrOEP1jZrtiJiESRMvt4v/5+dk5ZZkoHJ1ieoVm5ySguWfXIglH6tFflWO2ofRW89ebKOjo7PZjRWmCe7YN9A1hJZT7WhuaMPmL69Aek7qrHftJiJiEhICF0oYEQOjQwGM9AeRWZiuGsbOJURMQkKIt37QbpweLmz2VMfeHRIzCQkkLqk4c+s+LWISEoIulNDF5fHluJ2aK4iYBCFBiJgEIUGImAQhQYiYBCFBiJgEIUGImAQhQYiYBCFBiJgEIUGImAQhQYiYBCFBiJgEISEA/x+2pUV1qzKIxwAAAABJRU5ErkJggg==;" vertex="1" parent="1">
          <mxGeometry x="183.71" y="296" width="40.58" height="40" as="geometry" />
        </mxCell>
        <mxCell id="d-z6-dSJOa0beq1oyZxt-45" value="Modern Requirements" style="text;html=1;strokeColor=none;fillColor=none;align=center;verticalAlign=middle;whiteSpace=wrap;rounded=0;fontSize=9;" vertex="1" parent="1">
          <mxGeometry x="128.14" y="332" width="160" height="34" as="geometry" />
        </mxCell>
        <mxCell id="d-z6-dSJOa0beq1oyZxt-46" value="" style="shape=image;verticalLabelPosition=bottom;labelBackgroundColor=default;verticalAlign=top;aspect=fixed;imageAspect=0;image=data:image/png,iVBORw0KGgoAAAANSUhEUgAAAQAAAADcCAYAAACf+X+GAAAAAXNSR0IArs4c6QAAAARnQU1BAACxjwv8YQUAAAAJcEhZcwAAFiUAABYlAUlSJPAAAIawSURBVHhe7b1ps2TZdR227nxzznxTTV3VA3oEGhNBgCIIDiApAiGSokQzJMu0JdkOOezwJ3+yI8QPtH+AHWFHOEIfZCvksGVLlkwJJMUJIAliIEHMaAA9D+jq7uqu8Q053Nlr7ZtZXd1dXe++Zj1Uv5e5q87L6d6beffZw9r77HOOM51OK6xoRStaSnLnjyta0YqWkFYGYEUrWmJaGYAVrWiJaWUAVrSiJaaVAVjRipaYVgZgRStaYloZgBWtaImpeR1AyVbMH9VE3rw59uo6FXxdvem9ZSGX3HQX/HnX050rAalcx2Sk4k9Qc8Q3vm9ioz83/rTrH6zodtPBDIC1kv9rCXc819qiwyr9Y286fO2oR1f0riYp3p0iE6X590t8HP6jNNk//b9O9YcrOiRqbAAqpAQA0/o5z7DuctRlnj2n2luHVuzZwEz2khJvvVwJ7L5UFiUqNpdIwJUPkcNQqwrKEoWIz2s26m+HbYll6hCpsQEoaQByTPisNsm14gv/10agjgXqTw0CN7rqMSQyoFjJ6r7kST5qIEmB0QvGl47eUJy5iDUXQtRlq+VrRbeXDmAAQAMgon2mq6/YZAZ8mm8a8dftM69W0gKU86OXjcwA1k9XdAtyqrDWc5EkkM0EkXquEFLyJimqGG76Hp2N3lzRbacDhABs844q2XEWBrBP/BslXvi/KJCzbxcAbtnIMFEjjr4b6E7+UApNNRccio3kyVyK3qLo6JfZe2zUf5O1Fd1+OlgS8EaLvVB8wTZHH9DjlzmKPIPj99mRPt9bPrLcZzOO3lm607/Ry1A5Mz5R/kjGQFruU6z4mr9NTb/RxGxuFFZ0+6m5ASio6KlgPR899sbC1V2P2wjX+C+vMgTFWt2hy0gLw7iiW1LuzpBhj2IUGMtuzCdJ+TXQJEDpVA6CgMesIMChUHMDoN6gcpuEO+wkNqm+bIJF+xR6WWpdLGbzzIQvH6kGQlw6CiSDfaeopMBIfvQLKgqQ1Nun/IRseu5SqhzKnKm9E+iPnq3oNlNzAzAXl6J0MJlV2B1nuHw1wcUrU4x5ibyK4AVtNiV3xjz8qKjB7aUjZfbuoJF23Tb/RkimuyiyPURBidEgxKnNHtZHMbr8OLAoUjBgBakOi5zJZFwpw6IEjOTBdRjDC76XNdMrZ49HxcgZn01oqV++UOC587t48ZUxXnktwSUagas7GdLMITCIEUVdpGVKCLdIGLx76TB8iiIiv6Fi6agmR9rvvO26WhdtNaYGzNL1Xi8EU52InuiD+Wf2xL4ZvsF6YLKzTYcxQ6ftYnOjhbNnh3jPPSPcc1cPpxlJDmkIfMcwJokWwX6yKgVKhhGOIQlJaiiEqg+JTFfUnJy98bWqcgXnfWR02lFwGX5Grmct67zM+z7D+dOYYoDndoB//ZmX8Qd/8hyefDFH7m+iMzyBtEoxS8d0+gmttk/boQSPOuTOkGSuicCqXqFpxr7p3ehrnYaKVWdNmhCPavg7m5LB66qZkVZhU5Ovl5KXeUKmevApB2ou48KS31UUhRX/FIshJHl3ZUx3cnheD3Hcop9xkMdT3Hsuxk9+6C783AcG+Nh9wEmPRoIOqSp7db6ZBiFxZtgOQyQIQUnFRq6EoqyvkMWKmpIzJQIoaa0l4AX7I3CuoEp8OElf/Yiic5GefxPffBL4rT9+Bt998jKePp9he9aC21pD0OsiLydIaADybAaVBzk60ezynSHVJzQhU9b66b608F77k7BUM3NhlZPNLlorze0kXk9GoAlZzf78+a1JNSKFKf2iqS90jwt0oCaiKaDxrRCVRAJVgBYxf2erj87pDvxwDxutDPcREXzo3Dp+4oESZzouYvFVXirwUHguxvxdGY1Yh+jUnU1N4vx4ZQAOQjQAUxODOo9PKCUDUHio0j67zTEg8NjTKf7951/DZ/74BexOPYzzNpEBP4giOBH9WDWhhU9Q5ewcugvXoTU3E3+HqKlWH4BqQNNEDXRMQ3WRQjQ41m5nrji3kxbKePtICi5Jqq9749XrLpl3DB+UJPZoAX26jDiO0dscoX1qiGirxRByF24+Rpee/mSvhU88uo6P3wM80OO5OdEAvXzlBmZAnYKKL2Og7CtNQIeoY0XNyZmObzQAJQL3KtlIGF/0MCPsusIP/vXvvoLP/NF5fPc5dlzYgcNW+C4KN2UbM5ZLaM0FKdkJNB6uQBmt8lGgRrMWKWiupK0RUQmahj92yQbX1fffZmXV1QjK6xf7kDyr1TfsQzqkVEpfE8YoD6oW1T+hgOv5gDmpFDjg68D3sLa1jt6JEfw1Kn/kUKYKGly2lA4lSfDI3Rv49Ps8/MQ5YDNmHOpGNARB7bE05sLjd32NPbmQjVhRc5LeWudaOa8JrnqJneeV9PIg3Ae++I2L+N4LE4S90wi6W3AJs5QnzMoZ0myMgnGflQaXIRWFoQE/VAe/25sJdoOm45q2OgHWrFkJjH7HPk3e8mbf9VdrUkz+jobt5td4YyNurA2lfi9Fqf7tRIR8dDSwrwlAeYEqK5AXGXLKWDii9z/VRzQKwMgeezvXUKYVQl+hwBCzYoAnXi7wpacSfOPlFFO3a9fHbAJMGfcXAa+pUKP+DSs6GDnXro4rQShPQ63sAhczWu8UmRPhWtbBv/idKf7NZ5/HE+dTeK2hwS6z7k5GGJZQkFOeQ2EqNPxHK1y04Hkzxn+LzO27l2TuGiEAkieIxPvcjypa07KJuyQ5c2VpQg0v2ZjkmQvLqO1PpsANv79kCCBvb42vdVpFedH8ESGD+jW/nU48Wu/g7vvvRrsXI5fMMYT09c+NGYZKsevOUWLfqS7g/ecc/PrPnsCDwQwKUEGHU9HZUExREgUolR3w34qak7O9u1e5LmE7zSdB/Vwr9jAl71/ZG+C//5+ewF88meFK6lk9RpbXkqBlAGQ0PGpGWbBD85BGoE2hpoVmGOFYmecPnw4S1zZPbkkJeGSTg2UA5k/3IxstaPQDhK7mT28TGThvaAD0GxvZSd1OmdsaER5lyiGs1C2WGgEQ1ORzSw7y83C9hfaZAfobQxsRKPOcRrZi3B8iqEK+dpEr8085K4kMZvzXbxf44F0O/t4H+3h44CHieQl/mCpZ2mGCUJbKytBW1JRc12fHkMlinSUCGMMDhPL8m6YJnnn2Iq5up/Ucd9UIzCu0XGqPEjgeLbAgv2MTOwjFZElMCe7MP/PADf/JM9UVjvu3kpIs/7VvMwPEcxo0ff9NrvDWZt99e//piqadDZt57f0ar5kzdteCMde/hYigoFGwuhAahDAK0el2sLGxhrX1AVKGApM0tREoKwemg/EZKoR8GoSl5ZmI9+EHbSLSLr785BR/xnDg6V1gjzKZ8FPlHT1bhkqyu6KDEG1mzm4inGcHlPLuMgJVjJC4S4OD490cexN2UJEzLqPl9gmy3IAn0vxmtPAZj1f8r2INhgSlM649y43B7g+xVTd571at6T/9b9IEfRWRNmn6fkMhDZoOv+2NPd+kyahWlJT9WkmYQnW3R3tOzcyo4Inifb7vUH5a3RaGa0OMhj30wwAFlV8KrOIzOZJ0SmNBWXMDGqiYxsGjpvtEB/y9vhsi8U7jt752FV/4AXCeIDOZTXidjJ9rCuoK/h+UnIvTl8n2iP/aSqbS7bMpgR9M8IOdEP/pf/M4vneF0VXsUfGV4Q1oKDxzjCrI8DyiAoUBfFnQjKdZhSAQ/BMiuEMka9aATA+aHWrerAkJ1jeuA7C/DX9Aw3s6CCnT3oSuG6F9SCigpLdXAZDVgvAn53nKVr/X6XSxtbWF9fU1+CEV3UtQ9TqY0BymSQkvK9Al7Ffl39SdYtedYULlH1WUzSziNfvwGWFe3QFO+i/i0w8n+M9+Ygttr6Ih6SGnzEWrCOBA5Eb05D7hu+L4QghAyu+VSIkCJhlBfiunQkcG3xLvFVpydpzFWbS4RA55sc1OlwXmdTwt3cTO5/WkWM0aFeY2NzqjRk3fb4rVoN3se27WajLT0qCJbvb+m5ou27jxT9OmGvsmjdrvMAa8ZaMtcfkY5D5CeuKwpBMgMswyehQqaNyLMTw5QPdkF27fQx459DUMKNMCbkoZo+EQ4szpTBJ2TkE58imDnbyDKFVeQL93jBmvmdNwXMnb+O6FNXz2+x08f6mFKaFo6DMgoCzKsCo0mPBJkhEmVHt8n0iiSii9AO2HPa6IfeYTOnk0AhrDJ4vZWewwV0ykElP2tk5EjMcKzGYzZBWVX2O0NBIOMZmgoUhlnrmmC/Mc17KwFAgJzb6Nh1p2eP9WKxiv3KTpl/Bxv2bXtF976yaqn+v4/VtTuulvf9vGazdo9vU34d9bGv83bjqe/atEpHI/18MY9SHfs6b3afgjCofi8TInKsyUMwKiVozuqIPOWhdBJ0DuMzSgXcmJErKMISiPc1VByAspVGBAyrM8GhLi0rJFo1IPLSsZmBdXEAYa++/ipas9/MljBb513sFVXVApAI1C8EHYRoMIpuiGdCSfbLw0AYnZvxWRjeKa67LTyDw/FOvEmcKKNEZt4EOPnEE/GiPd3qEBPW1GIeBrL5qRiUQBzhoRQEDoP0OS7LATKYjWBSs6LqRluWTkBfEtx0FUoHZjN+t9z6P5j3zk9OazZIqU8D+K6flHA/T7AwSK+XmdjApvcwIaUsXYv9CQX+FTLkN0o67F/Nt7KZ45fw3ffWEPz10NsM0wQfIsgyQ3JBl2gphmo0WpbvFCHnwihLZK1lWXsCIBe5VvkDdkljXLejO2J9va5OKPfbCPR+52MQgJrdOTKDKGB+U28mpMx+BhPKaljmnZGfen6R7RQsCLrgzAu56ozE3/aWRDyq9zpPRSdnkCM/Tq6nl327FsWUFPTUXzKRPD9SFG6+vo9Ki09DJ5QR9P5VfhWBOSO9EAU04nkyvpnDqI+bpDZ+V6bVyZefj2Swk++909fP0HPMGRkaFg58SwMjREGIUXYo/OaqqEdZYgZghRF72tyPvH//g3ftNQIV+oX11l8wWg7HmImIZzb5Lj2rUCFy4GiMOCij5lB3r8bFBnf6spO9tBp9Umf3kxw9d2/QbUTBBqm9Lsojqq6ddLaJuQKUDDY5uSXbLp/d/m7z4IWQhChmpcvy7wmT/WnWK8keMw715pSI8IshWiN+pjY2sT3QHjfhqDXKEij/M8JQl5bs2AfYjf41KprUfpmNySnl2jUHXAJVc1pQBfnuY24tCLQgx6dGvE+UE5s+HEnLKqYYQ84+8jMom06giNguU3lpxsGmBdpanEC5+Iz+pYdqJfZVhjGPAxTcb48BrOrBE6panFZL7TIg9LxL2CHZ5YX0Zhjxebe4vbTPUV9bdBk0A2+vfWU2/WDuF25nRoF76t5NJze8rsU2Hkua0SlP/MCEiRSTW0T5HkM7iRhw6Vfm1jHb0h0WEU2J0WOo9P6v0kmiqfBqqpr0FpiitYn6cMSdMZ5TVHxZBj4ke4kPj4xksZ/uj7u3hhF0gYLpiJKCmvPD7g97pEp5XHMMGr5w2saG4AaqWl+ivJZxZAQzhkEGGcGPeg5md/bAM//mEfbUL/vtdHN+ijyHfhRXu07jyXoGE2lXVXfGjXvr3E3yHhadTmp+xPtRHYr9XU7NiDtOZ0sKNvN3m+h8Cv1+VTPsA29aDMiOw9/ZMD4WdChFEnwmCtj/7aAGErZmipgVEZDRkMypUcTGNSWKEZfznCyEUYUGSp1AnDzVm2h9xNgJDePOzgpXGAzz21hz9/Frg443eoNoCoICgTBEVK9MrwoddB6kTQFPgVsW9/47/9x7+pIVvXp3Unz9RJqu6r0ygu+ZfS+lYYDmOcOjXEpZcn2FMVVjJDUu1hnF5hKNCnAISY7DK+Un0mMWNzkb39wi3xaiRiTb+ax72u/reRZK0a0kFUpjk1+36V9SrpJ2RnFX181JmLEGBxGY0MtUYx4/4BPf/Q5vhrD0CFBBZiWhmwN79tuZpm318xLOVV9IyPJqR2XTlx/YQaoQhlBKAI4pWXzqNLFLLea6Hfobf3+buVC1BpMY8d8xjaESsuWnaiAfjvftOMIS23WFzacI5WatWbShCyo3zGXWTioO3j1MkNnL9wEa9euYIqaNEKq4YgsDqAkJ4iz6dmSATzmlEzIdBxTY5UnzbtV7teg4vWhzT9nYdDhyKrTW9JWmbKX0N49YTF/UKO/FjGQSGChvvWTg8Z8/foFCJTTKm+zQPgNaw4iJcqzALUMxybEa+iMFXDi6VCkZBIM7ANQ3xdl79DST/VrsqR7ezs4OrOHpy4hdOnY5qFyI4Toi3SnKEEz+WX661lJ7JBttlU3zpTyRa90tvkFzRRSJY6QIJhmOBH3gd84uMjPPCejk3b9KoNHti2BE9RTdnJdbrmTlEtWjc8uVVbUSPSRJ08ywz+L5RGyp/zfY33Kw8QEYZ3ux16/xE6PS0OK+VXfQg9r8X+Zjbqkw/IfEvYl5RCOpo8D5Gx5Yzxq4IKz8/CgmFHViDKU4RVBica4flpG1/8QY4/fhq4zK8r/ZBKr8HAFJGbUfBXAiCqS/bIDPVr3bc1azQ5g6iJb8oA1If5DAdifwc/9fF1fPLjd2Gz46KDLmK3awIxnu3CURmwp3JCQUZemU0Q0leBSMUOU26B36CSD1WO3266bnwWN3Sr1pBqqKp2FKjp7+RxDXmhYTuN7VscL0U2hX59E0/lCGJCbXn+dqeNQDG5R2Q4V3wJwXXEIG/NLzQo36iJlFfS8DKvy+eSyyQtkVHpNX9Fg07CrB4NANI9/o4R3N4ZPH4R+MxfXMDT28C2hgCV+dcIQDGx3yTSPZQ0Gro3/jRDGvOPSLI8UoLjS850Mqm1n38W971guxhRW3xxhk/I9En2BNBp4dXtEb74FyH+53/yGHawhik7feyOMSNS6DtDWm0HWUFEQCVf763DY6iQTROytOBx29hztvmsRL9as+/an+Q/rvfMLWnx+/clXe713r4lmbA3OLbZ1Wpq/DtFDX+nhNZqOfahul8Xv0AKOn+6oBveyKkzstta3CObThnyFbaST9xuwQ19tPsdjDY3MNpaY+9rYtlBuNCEdL3Fb13I6Vxs56TneTVD4cxohE5iTB2fMBQIix189ME+fvnHBvjIGWBDla7JZXqzU6paR+5MMSu2GU4MUOQtm9wW1/aLF93VVXntkb7iWJL3G7/xG7+5YK7+voGp11/Mn/AN31NVFWMoxny9YQebJ7bw3POv4bXLEwRxl0aWHFR5JzvDCQqELQ+zyR6yNKHtJs953qxMbQMNzw0I2TRc8/p3v10T3ez9m7XDoQMIdUMFuJ5Eu620v/KLXjcAbzarb/7t9LAWBtJxEgFa3O0KJcokVuiv9bFOGWgNOrZAp3Xybac38kmv3vhOTfW6FgHGNFIKZsPIs3g/HU+hWcURPxt2fcS2jqVHQ8Z7pbH0iQyUV1DeSoqvJv7o/iqhVkMex5PmBqABzblegYyqAnheSUtb2FyBq9cKXLk2xfbejMdIYAinnJQWObEMrsqEa0brIhUFhaxlSOAQ1vkH0Ks7SvrN86e3jRoagHmU1ohqdW5yMEG49Sfp+uHzJze81lPbw5/HalGU+hz2se8i7raxfnILPRoBJ6KiaUIPjUOzu7r9ZGFCFSLJxgxDc4YiDkLG/snExXRnxnAhQ9RyMVzvMCTNiGj4exWaui2zmypjrz2/7poGjspf0UF5jRPaR48a35mida3xk5E3mjsQkSkdN8GZIfA3PnkSP/2xIQb+VdD8krEllPDVQhA7ezuEjyVUf1G5mhs+kejxGK0fGJqANWmim73/V2mLv03IjpRnb9Ka0s3OvUk7yD+eYP/3bfyjy9fPRXzypteLzzXJSDhNez4UeZ3Ui9ptbJ3aQn99wLjaU0kOHIYFd5IqwcqcXj+QN89h6w4yFC0J71+66uPrz4zx5ad28KyiAOW2iGYcGgAJt8OwxiFqdUHjgQnfymgAiBJsSPz4UmMDoJnCU6HLQDJBDhaESxkt/84eHn0P8Kmf7uNnPjZCJ5sg2x2bgve6m+S0hmbaNABUdrr7NNcqwhoD5j9dby7k+7VFMul2tvqhvvZ+7XiTGDF/aqR7nj8l2fAa38hV6cdQTpV9o80Rtu46ibDTtgU/tBuUawbgrbz7oTU6HLp5tIOYyhyq7B9TiqpWsM/jPi7MQnz9hQSf+06O13YDOqSIv9ZFljFE0NqWdr5k0yNqzZHp9fHW/+YhgBa6LFxCJNpGl5bW1bLMZJXva/LFLsLYxcbGOpzMwUuv7JGBEfr9E6iCHmYzDRcxBOD5rq1DpxiyDrTmg45HgO6wEWj89Tqw4cFvwer1ea+fXT/zldGnh9ybjNHqd3DirlMYndiEE/pU/vlycYwRlPW3KcJ21g+fZH8CT4vSaLKRQswWHDc0FKCQwA2p7MQyr1xKsU657TAciDr86QHDAX6uGqcyJzJVnoue32GYq0lD3jG2Ao0NgJYNKwmPioIxEZVfy2pbvkmzBKnUYdDCsB9hYxTj0tUKV69l2BsniDsbmEw1V4Cs50mevD/jAxUcachFaKAJmSi+Lpm3h+g1mhGPa3zsIZB9d9PvV4Jr/vQWVKcfblRVedH5U6MbXrOPtNeBR4Vf29rAGpU/7rWJCgvMNPTGYxUm65oakrtTZDE8f2cN2yPenaoDFcsnDE+o3TRSaelie5e/ldDApXGIeg66dF5yRJZDKGk0dA/KZVhNi1YblrM7ntQ4BNC8K9p7VAmZSwZJbZXkI8iC58eEXR422sDHP9zB3/iZc3jwrIfZted5/Bi+1hckc6X06gR3ngzU2m+6VrN20zf/ik0PfNy31Yfe/LM3tYPSza7x5nYAanr4G4+7hfKTVAcg5d88dZLKv0XYH9vesUKFgt7KC1SFluTmmzrvDjXNRUhL1SUoSa3aFcpXPiPypHJTYlWBmDF0rdwY33oxwRee2MG3XyxxkQZjgtje1xLkGsyQiCr0uXN45odDjQ2AdgsKqjb6MdlCJmnTkCykl8+nxnhdSDUWsTPDJz8e4Wd/coQzW1OMrz2LwE2sTFhmRDBRa8RbwYVhxxXdbnpLbHyTVmuNSK/nT43e+lrJvc6wj5PnzqC71mcoWBr0V8wfar4t+9NRiKeQ7g52aU7lnmVUfhWjuRP+rKt0MjuIXcquRq+soKGEtg+8VEb49qs5vvzELr73AnBlSvcmB8X/4o9QgEeZ9475MuONDYA2/vDSrpUHa5VWN8oYA9Jq+h2kmFFMxvyAFjeL0WuV+Kmf3MJ/8uufQBBcxXR6yYZmxFyPsGvM0KDMHQrPaiPHxrTQ2f1a/ach7a/8ej0YDTFYX7NxftlsNyAkJpKbJdoAxkWv00Yc+EinlAOV090hcuXBqbBXd64hzS/DD/YQRwWSCVEA5XfQYpjaaSGZvYZ4Y4CJ38V3ntnG5/7sBVy4RNFVOkq5gmCKZLon8FAnqo8xNa8DEMm6M8iz5AhfzHcGMLikCSGO8BM/CdwU7RZjq25EC1ziyqUJme7wuNBWi8kIGQO/hcALURR7PFcpQV6T1w4I3QpaGdWeCy1okokt9S1JfKN03gY64PX0O/Zrds2DtCbE4+ze92+27bce+epWTVTy96oYydbxZ59oUo3Kem1xDyq7yrqHm2sYsEUDGmtfyTRefQ799ZtkADROrtf1spCNfcohkO6HklQm/BkMNV3F7iFfu/bcPqsyyl9K59W1WpSMFm0yIc+o/P0gZBirQifKnW6PoUTug4GvLAPlW0hHBs6WvU/5bkpOK0+gcINcXTD2CJEznWpfldtMlRJDJbYzF89cDPDP//WT+NLXd3D+Ct/1peBaabhFRmstwR34mjsgwSUDNaowSxIkiWYi+Wh1uoR2/ExDMjzmTlHzvlUS7vb+TlPohpe0Gv0mhpLMzlQ5p0MLCjSbGXWFdhJqQvt2n7D/zGkqf2wZ9ONEhUdDp4VBqLj5ZIJz0Rg/fX8bP/feDh45xQN8GkUyR8sKpOzTiM4uogjaDlFECdoDQ2nxOlBo1+GFWHTE2HRIP1eXDdEJQ7znjIO/9x88hI9+cAhMX8NafBqBM0KeZ0irbfhhi16HSIDnJFmOyYz2Vp6IkDJgk9Jn6ZTySaYvK1HmpNSN2vyUJiRh1mw+Ffhotx4/CrE73iNKy035T911Gm4cSEeOHYUlw4J0B2UyNgez5/bw1fNT/N53ruAHKhSiPDqU0TDbo/LTANMhadlzG+6oiCqo9JDis6lcuOA5d9A/vWM6WAjQmMQkhQjmaOjF2SLCsbyF73zzEoKIzAtlQbWzcMSDaphPtYeWbaortPiccFJj0EIIVjdPgb1jxK9uoge1Ct5+SbChqUbUnEdCFR6hcsCYXvy1lZ2LDJ1RH5unT2Dt5AZKQn7BfrH/OFFbu73mdDYM/ONOH5PSx8VJgasJey+McXIEDEOFuFoVy0MxpsHQ8CJlU2TrYBBBiW9aRlPvziPgI0WHZAAohhQuVWb53gwh4ZISRYPOBmazEJe2r2CaM/a3eD80D5MzDtXcDFlYW0KKVllwlvKJmB0h3VesetvpthsVXu8QrnnbDQAPc8jwkChNRitVlR/dmLL9ayc30VsbwZP3nyv/Yg7ecSGf96T1DdRXYRhhQiWeItCgNq7uTtGNIvTpm4Za4Yr37itMkvIrXKWSq+pYcqshQ215LkdVWwG7/JGhw7FXYoy8oAowKsIoGoLTfQ8fez/wd/72Bh64u0TXI6Ri3KSkX73ufEkopnHayh41ZiuFN+hviv8uEED9hCbtdtNBrnnA75e8alvuhN7QpbBvnNqyqb1hO7QiH1sJWFb4mNGk8JA7EcMfIlOGAR5l1fe1wnCAx1+Z4E8fexVfYyxwYSytZmN4VM9cq7G+RrXFFtl6K413pmy0BkeMDgUBSF1dVVFpL0HxrIoVUSGKXZw6A4yTHK9dmLFliLox9btmnHl+2Q0+N2hK42CLkpUaEZCfus2CqGuqBxtQ829ufs2mZN638SV1bIODyWtN61W8n2pMnyhrtLlu9f1xt0UPVyJJMysAsnu/zfd0p2kv5335EWJCgdn2JbTi0EYOtLtxmpe4euUqsirg+y2cHrhECQpDMwq3RrFUA0GZJmM06OHxfRcT8pToQO0I0aEYgJl2fKXn9zQ+SIiPlE0lmtjBlcnzOHfuHoKtPq68NsP5Vy+gJENDQq6YzFYFl5S9jv1pNoh981QVh7yWEjB3iA5iAA6grY2oVkB72oCaHSivriHWSTIh1I+wTth/5p6zBvulBJrxJ49oU4CPmfKLcpcK7PoWCkQe5Y1yprJfzVeJ5e29EFemFa6NE7T8giFRiFC5EmSE/Snl1NYgMvmsnR1RgKt1A45W2fChaJTCpHpZsJhPBJ3IZTLWJaN7FLBTA+CTHx3gV37+HpwetngULWquacSaL8BjKXAKCRZtsRjlkSD7nfpz+5rdu/40bTe5xpubUIoKezx6vp6269YGHoz/5dJsEU9+HjDmdTXubdc8XtQLHIR0SrnG9ttDMAAwZehQRjtErp1WD3tZiO++kuPzT6X41svARSUIvdjChoootkp5bsEQiUpfUs6VxD5qdCgIoGIspMU+UEmYZAz4piwkMUDodsgmF+sDD/1+jMu7a9je3sZ0RmhFRXdpea1T7J+8X2kJMIdo4I4jgAZ6oEDlMEKApklAfb/+70dCWQkNbn80wvqJTfQ3hhYGyPvrAtreTeDfxr35/LgNBRLV2/TfaUE+eJGtcyERCyi7bkGoTw+fMASY5h4mM/GjwqjtY73tIZIopi6luE4IVjxR6yHotYqCjhIdyq8t6Vk08Ye8pVIrY5oTXKlsQjF9H0Gl2uxtnDtV4D/61R4++oH3YEDGZpM9m3Me+C6bR5hVr/fuR4Rbh1RhZgrb5J8pdbNWG65mrRHpsgchpe1voJt9l6r5tMznSJV+GyP4YcBwQKs6a1gwJBLzbF89j9c6jns9huUUgZamywu8dnWCnJ49I4RPNJU4zzDZ3UFIHsSdDi5M2/j6k1fw2DPX8OoV5bW014B2GKpZLdHQJKOCMm8SwD/W6q96V9OhVAJKYa6LnD3Vn/prXreQKj+dYjq+hmcun8H/9u+exm99/nns5DH67REK/qyKFiSiYbiWvGRlxB7jtiZUf1P995bU4JAFWRno/PmtSIZCw5fNqeHvNAO0PxVatYe/1CGa8hg+ids1x82MWXJPvy7qd3DXe+9FEEUW6yujpd9+XdftPnjf9lrrNzS5+6NDvrjB+8vnjkp7GBCvUlTZ+JmQqypRC5ULVx7a1Qzr3g4+dn8ff/dTLXT5cQt7aGmmoZxTxivKiPDsPKfXI7t8OjIlCsU59cHcPLCJFnpwZ+lQQoDX4TubMeD1f6+TXmkY0IEXUgiDgNbYwYvPX0Ga+oypXEsflC7hGDtASzc1XkSzobIchOr99+cvbkk3dvJ+xONu809V7sX4RAlW5KUl2cU1jbRohRuPnr7V7dLrD9A/sUbBtw4i3eSHXGc3nxyzGKBWc8ogb6tW0sX91+/bB3rmko8h0VLC53lEp+RhOvWwvqHFsbWNfsYwicqchjxWhrQ+VahJzS5Dyok0bF8FyZG+UN/xLqA7aoYqWdhggDgs8SMPdvHLP34af+2hDYTVhFZ3jMxL64Umq7ZMhc5o2EQ3e/+v0Or/+7Y7TTahhz/EpwHVKrmSQGX0lfBT8UrQbmGwOcJgfX1+xopuRVqwxvPo15Uc9Vp4bbvCl77xEp54IcfVaYsev0/jKtmUuZXRrWzbscXWY1Iw9YnWTJARENp4tyi/6I4aANULpORFJ/ZwduTiE+/r4+//8iN4zxky0tmx6aYZmZtlqgwke8m8Jq1+osfb2I4IaXFLjwKnGgpBe+VjMm2JRUEOtHmHNu3cWEN32JufsaJbEoW0zCr4oY+EPLw0S/HCpRxf+tY2njoP7CQeZgxbQScGhgOocnr5ei9Dh7y3kIKPCqLqTVKVGF8ZACPFnEVGluR8Qf5RNvGJH43w93/1Xrz/HPH/3hglw4HEkfeSuVjRflRlFD7G/kIAslxplpj3DzotrJ3axHBrE1G3ZSv6rGh/Kgn5M3r6JJuhCsdAt0QStfHED3x88avAt5/kMRrw8saU5ylDBBkByaq8hh5pAAj5Veei5KqGWQ+SITpsuqNiwEgfPVerLvCFfolPNNCe4ZM/uom/9Ylz+LH7u3Cmr8HVHuXCU9fd8Q+/2T8arCbtZufftOnhEKhSvK/a/mSKfOH51wcYbW2g1W+b8s/4+YoakPqTuF2KrXheSMCJWtjJfJy/XOD5i8Aru0QCCBmyamSA1oChbS3U6uDaGOhc5Qpllw+p298R3VEDUDOpTpyUfNCUai0ucfdaCz//kVP4Gz++hftOJIz+JzxAyUAe3qCpz253s2s3pcXx+7VDIFVSUlxpABIkeQo/Dgn3qfyC/YNuvWlnmduiLCvanxzVBbgTK013qxbj+TbfC+C3HTidEts0Dk+8Cvxgt4VxGaJwGXap8EVNui9EYPNZNDYzp+tP7jzdYQMgc0iriRlhkbZzyvkOYRL59fA9bXz6J0/iUz+xiY1gG16hz48CHZJmNyQNZ0nAlPHXTL52v4vhxgi90YDGgZiL76uy8vWs94puRZrP4gdjmzfhaanxnIagrLBxAlg/VyLrTPD4q1fw+AXgVUYIdFWaGmRDsTzM6gxs0dR5Eku6/y7S/zttAMgT/oKJav21QIOxjkQZlnjedaaHf/CrP4qff2+AU/2mOQCdKR94+/69BQ7csumBZzVoh0EUN0NTfisyzz80zz+wYqqsSK24R5PaIivVXtF+ZNDdK1GmOUI+75Bt3SjFvfe20RokmBId7LoRnroMPH8JuLgDjKnrxKs0wIr5iQhUyq6m67HdcaW7ge7ob9Gw1B5/ge/34SXk7FSbj5GDXo5EjOdnd42Af/SrD+P9D2gXYbHw1m3x7Ia3/spND0eFckF7Sm2727Uqv06vx7i1FkJ9ploG1fjXqzSvaD9Sbcps4lv9f0FH1Y6BD3+gT8WZYjabIdViIVEH1+ifzl+Z4sWLu7i6ZyDWSie0wI0WXFGx0LuxnOqOGyOJoSYAubSi9XRKglNKqZRfMtqmEf3Ae0/ilz5+Cj/1UB8ddkiRqYxVAy1kqVKqufZ74cF0fVlaF1uI2fu1uuSjQTNvLUvQrMlrNGk8uGGj95DmWm/xkXCyyuhjTKF5L7yWmtYizOTYybR4rYfexjrajPv9kLEp8aj207f1FnQJ3RkltFl74685Hk1rJxKaS4DEP6uZqOeuZITtGWP32mdTRilvHcrhsFeCLMU6fZFyAkr/O4z7NUCllxdmPp7edvHitQK7jFitINCtKwQLyrfVZfKSzQrKfjh0aCsCNSHJs0ooyLta21Vf7WhHl3qlYZ8HmKKwc+45QY8W+HjumV1c2M2QC8LyfYdC7TOuDbXCMOOJhFwPVQnTgHTpusJvn6Ze4+ON4vP2Tb9Z58yvf4tWH/7m89/aqIMMlXhNEzqKJRVfO93qdynpZ5tgkFdaybfqRQjWqfxrI/TXh4iimEc5VP6MxlHV/7oWD5bA6/Jv+EVv144jKan8uvJrl2AZu0IGUjG7/pHnmibcpaEY9n2cONnBGg2AeG2VqdravvTh0vHEZOcu5XavCG2F5R7FsxNoTov4rfF/ncPvIs9dJbTF/31IYWLj6td3SNLBI0Fx7OCDP7KOf/Cfr+F0H2jlFPSCFttN4IRrmOR7tLR7GA3jQ2faD5t0PxJSDUXZ4im8PS2aqrUT5aVsOTU+alHPIRV/bbSGKKbX4fEzwlZt6JnbMFZdHCRIaisxLzWRp+SB79O1U/FlHJWw82gc2902DWdQj+lTWYdrbXRpWAmkTIkLarN4a3sg8L8pNjWpKx9GFHZ5nOPpKwwJiAJ2GQtIybSMqHbNNpSmtQUb0A9Djo+MAVB0MFzL8NEP9PBf/fqDeGSLP31P6wd0McZlWggphIs0uWbW+1iRbofCJoETfFRZqoRXuFOKLc+vzTo6/T5Ga2voDwc0AJF5EHkzCatmXmjNf82wrGf3HTMeHZikhDKCUgEGhORVnZilopLJvq9ZkS46nQCbRJ+DYYioJd5L+bVKlUyuOqOu99epoV4WObZTB0/vunicRuDFXYqp1rMhSmXcRsTA/qDBfrfQkTEABfYQuFOc6Q3w6R8f4lM/voYHTseY7alCqx7y0v7w5Yy9YB1550jf3qQt/u5HyiALVuq+TPnlbswTWc4fDtFATK812BjSe3UQaXIVFV1KL1XX8VJ+eX95lXqtRSVPlpmk9ESQtj2dEJZm7snIUkGzGaF/iT4D/7W1Dg2qaytba/lA9ZmGUhd7PxiH2Y3SaS1kq3UWMifEVRqBH2wDz9A3vbyrvItO1sJ4Jc2O8g/N+v6w6cgYgHK+GGOYBzi77uGXPrmJn/lrQ3RDreVSw2NtWOgVPR6nTm1Ch9EJvKY6t1HT4W9+763NFk1ViS8PtzwA/0v5c/JD+/aF7Ra6owG6hP+a139dOHms6gJkDNQk5LqklF/IYZlJaWAprVacUj9o+braAGQMBWaIggrroxY2132iKX4usECjUEL5gTl/5fplUI2nwIwtJ1QNAqILfnR5r8DzVxI8fbXEBRqEmWqGFYZpzsC7hI6MAfDQI/8jFFPiqcTDI/cF+Juf7uJv/+IZzF5NUI4TRG6MlrvBo8n9NynRzVt97aNAlow0rElhY6yaZvUMtbjXQ399hA6VP+y2LB+QpqkpOY82pVfsr1vVpqwyDvJSdv9LTLp9Ka4YI4W2HZXomT0qZxxV6HV9GgCgPxDfch6b8TGjgaDyWl+IrzXKqg0JMC1dGgAPcQjwdKK2FBf3cjx1DfgOw4FX6cNKxbLKBNpvUH/U7U7RkTEAWnfNc1q2aCX7idzL8cC5EL/2qQ38zZ88ha2gi3JX2dUdfWjn3BGaC1WTVne+Hm/dpPi+r6yzhCo3762debV7z9rmOqH/uq3kazvVzRX8euOxWlpd1WiWuOJ7NledhmGpicwUQrKKXSp4rmXRnQydtofNzS7W1+lMFPOT59o5qMjJV4EFTaSwJJ6Uf8FDHqQmx88m/Q5oMAJev3ADXKbDeuoS8KTmDYx5jqvdhO6s4i/oyEiBDG8hfmmitTZp4/MBY98P3R3i13/xFP7aw5vY7DuoXAZdc4h250g/tEkT3ez9Nzbz5PLic4HRlmkq9BmuDdEbDREx/q9oELR2go6whSj4qOPrrdhro6B/IhkUQxNLTKb81FRyh7zJybMCrcjDYBBhnXF/l5Ekoybjn9VCSFWo+NWi0RAs9Fe2VAuraKd023CE72ulIYsbaAC03uBlOqcXrjIcuFbipYkNLBvdaSNwZAyANhzVrsFaPyAPi3pn28zBgIz/1MeG+MVPbuJ9jxAhBEq51tZ1v3akSL+XwmiwX9tcq8x3NEKr04Lju1T+AhmbBFs1/zpufqL9lUmw7D+bLnXk7v82k/YAkHuv4X2OkMrf7YU0ABryA0JL+An2pwwLiD5td2HyVfkmKr8ckhCBSMpPgIYWjUnIN5VWmFY+ZVUjU/Xqw1U2w6WdBE9cKfD4VevKdwUdGQMQ+KXt2z6ttsFovza1Eu6xD5/c/PQvtPDJn1tHv7sh816fdExIw3+C/hUlSyWpnQ69/2gN3X7PknxWucZ4U7sp1UOEymhL5fmPj5YIJEIww8DrWQJRQesSk4qnhBSLgnE94/9WK0SvT8/fpTLTk+v9spyRj9ofgeLG9+wUnUUFXyArkWyJRgiicoqwmFoOWittzvQxH1sKLdwM07TA81dpAAhSdf67gQ5ne/BDIUI1clNQVpaYdlhujG+zKdbiERevZfjKt/fwP/zT83jp0vPsRAI3d8TeXENaaCfiDD4tfakFHG2kIOe1GioCv0Zn7EeClNTY+atb02xeiaYp0FqS0pVAqTd4X/p59pRNcbwmo3QJ+QcnNtDZXEM87KKgd7GSVZ6n36YiFlN8uzed+Vayd3V9Phy3MMC46ATkR53QU9ZevkAGUQwS6tEYfEm5CLyQBlWTz1IaVAdnTvexPtJOQOR3xmNocMVP1U3cuIKPRE7MM/7pDf4RG63pe/mBNg1VGbBINkNDivwyE1WFEvo9nbDEpx7y8KCK2mg4ktJH7gU24SjQTAKiklyVho6qYu2bDoXmNu0oEBnHDvZN+UXiOH++AjUpENvJUYSPvn+AX/yF0zi73kYMHzGVJMleqcMxP6JwsMuLXZ5Se8u6K/dvddTWpIlu9v5bm23Awc614hwKhYUm8sx8VMwvZbYhPd5qRKjf6nXRotePem04UWgGoFSWiqTEk7a20Eudswhz3tz4x443kVq8PiZt8dTG9K3UlvyxBF49BVqf6T095JmSfiW6nYAxf5vIkcqnSj+xRaEUDxLcf4MltvfY+MciCDW+1vvqpoLHW70/NV2rDqtp/EUGRKP/qmbT6IH2vbgwLvGdlwo8e41owWnVv1lxhTkPXoPnePMrHiYdIQPQjAZ9H7/yqU389Efvxd2bI7jFhIp/GW6YSDIIk9UBKfsipdI19P6HRFJwm2dOYdUSXqbLJsUSLklZPXynyTz9jXV0hj0E7dhGACR5KisxQyFR5aOmQMztwVKS0Jdi+pp1Cn/qsf48p+dnM91S4Y8eq8SG+4bDFg1ACyGjSrE+z+h9SbauAvk6745GbfF3PxJ67XsJnr6wjW9fyPEiRVMrCmtRcY9IQati5E7Ib5d8Hq6MHjsDENPQPrIJ/Je/fj9+5sfWMdt+CSfWTxP67SHJt9mxAaJwA46npcju7CIjmpPvE+LZ/nv0ClJiKbQEqd4wlV4kICzt9TA6uYk2Q4CwHfG3WwBkRkKDUTIelp7im+aRlpSsxoHqQ59P/tSIwDhCo+9o4YmCCk34r1xKHJcYDDxsrCnxV8f4RZ4hL2roX1dN0laYseCFGjV93/6kRUKDfILt1MN3Lzv45iv1QiLqepqsOlTQl8ti6bqHSMfOAAgKt2jE7xrm+PTPjvDrf+cj2Lu4y4Bb0zYFynK06EUlIJbEeUsn3rzVArV/45/5L9mfQj+031vMUuSJss304so4sfOTLLNZe51BH2uM+1trfVvYU9PL5MRUHah0c20AaiMgA6LE37KSFEihXZ6nSLPUeOQrrg5C8klGoDTl0wy/DcL+zQ2GVR2ew3NzKn/B8/RcCEsho67XvDebkwLKvHTRHg6Q0Jg/8WqFrzyf4VqiGMRHSBnl1yPLiFitVPnw6NgZAOsxGoCIcd+DZ9v46z9zBp/42BaGYQ/erAM395Ekr6G0SfGCeQ3pECRBXSvPL4+k2F9fIcuv6aNOUJf4qspPyT83Jkble5IHmwOQEyFQwAX561CgzvjbRZeUBPs9X5V5SuLVeZBFiKSkmtbjbVHHRoPYDECvR+NATZOjlWGwJCqbyHyDnuhUPjRtjYiorwj7/D4lgIG93MHXzs/wndcyXJnwi9W/swlSv41CqwodIh0/AyBS71HRh60WPvBAH7/2S/fjIw+fwIamc+1lyGbjucLp38078s3tMGiRnJLe6o9q+wtqtEOpjHpdKv7AvERIz68CNMttS7hlMCgk9XRUNhkNXsOQQX3ppaTFkGettAtEJl6phDcjeCrQ7/o4eYKGtUceU/kty8JjAiKveuUeH8rDKhUwZ239pElrSEJ2hRZpyRh6yPiwb18ch/j2qzmeu5xgPCEaYT9ThK1PD5OOnwEQw+TY1aGVj7Uowqd/Yg3/8a/eh/ff7yK9dhVRscnDVDWnCUY36ci/UrNf0YhywXwZKwWgvuAelZq/P1Chz+a6Jf7CXgsFvVrG2FR5AY0c1ILNC8wf+I7djbZfrU3a8pIU1uog6FolCqXG8wntXTezIb4RY/6TJxR+kXfSdIVRVMiIb4QMr4QY0jRjCJHXQ3m8yJzV+7ampGPp9Onlp6imE7j8Hq8b4YUdD49dSPDsVfZm3LX0n37CYdLxNAC2L1M9cSOglW2Tk5/4ERe/8ukuPvFjA7hphUDzCtzDhVf7kdXqUxyk0NbRFFx5+976kAZgwzbwZBiIGQ1FqV1r6fEFZxXr+y6jWkJeGQwhA94tMqKHwxaYdzOJn6qLUEa9XuJLqlYiDB2D/eubLQwGvi3db7UVFkbVSmCKwOclPb/mTMjY2spOkidT2SatIelQ+h6N/sjTa63BUZvvBTGe3fHx9VcdnJ/wEJUpHHKHHjsDIN5mNKkqCJY1ELwCO3rUSvHjHx3il35pE2fOXoNTjGiB+3bUnSItYCIDIO+u5s437tQqvi0qv9yUctqpeX8KIwVcRSGa2mu1A4pXKaA1AiBkJDrQ82Ulg800lEJi/G+GVQrcbofY2Bgw7m8hZhSYJBMqujA++cdW8an2SaGdpfJL4xhKkLcyAEZ6aNLqP/uSy35q6Usdj/9jGwp2p2b/MQ4GeDbp4i+fy7C7zR+k/fUPkY6dAVAnaBhIA2S1aSejXZoDCsNdJ3pEAKfxc58Y4a5+Ar8qkJQBjfGMcqCqsYDnBfQOCSFkxiYBUjFJ064V8cjrAkEPrcZrXG/2Xv1xvXOvRnspsAwDQsb9bcb98vwKCxQeqIhMQ3wSZNN2a/P4VsQHe2pNL+zdY0S8X/KpoiWXKmi2o814lKmjglrugzetMuhKATP7U4t8iKu+R0VrV+jT6/dVcUcvq3UmC0J8u7K8g/qXFxYYUEQg9sm4Wqmw9RffEfObNH6rfs9+zW5JV9b3eww7+H15MrXI1WFosld6ePLilC3BxXGGJK8op4v9BngN9XM+471KrmX668/eSdcfoVLghkRulAmhckAuOzkZRs9KBpdSbH48I6cuXgL+2T/7F/jM19t4/IoCwhfQDQcIsWYWd5a8hO5Q3dFCMgsxm5aMEam6GrPbj5SYU5N3tkq9WojecOZcUdvsbU3gyZQC6LWxfvaUbdwZxpEtAEJYgEjbTPE6Vja8jET+OX5okFzj9MqTSA0szp8bUKvLV9k3IoSu1kSgMnlTdFo5Y37fCn26RAGB+oTHav9+j5bAFlfZl5occyO9oafflmR0mtDHT6T4kZMuglZdqaigVSNcbnKVIQN/mx8jdTqY8nf2zLAcjI6lAaio5JqXbdkVt06sqUTTCiv5lqz9U09t45985lv4V396AX55FwVIir9DwSixtr5BmHjVoGKeaqx+HUFEFut6+1Cdoa9sZR5btJPeylbkVYEJLf5iqElipfp+Lw4RD/robtWLevjtSNDA4lNXCSqJOJVA26YtJ8mrzpWQD3qqHY/FY0M+JFdQWjzVPH16T23S2WqVGA0dKn9kGX+aCfO6SvIF9LqGGBYXuCXpu+ffvy/pes3UqZ6Lsj+dDnbw0MjBw/f0MYw1b4A6XxLBaA6LoSHeMg2hCtxU63BQOn5iJSEx5dcLegYyqX5GT5smSNPCpnree88Av/jXH8Avf/IUqmuX6Y3b6MQd+LSqU62oU0UUqhYCep8wpIDxuua492lKRAmiqn/VxRrnV3PZU9q115k/ygppaC/stG3rrtHGBsJWZMM+mqln8mE5AsFeXnhpSX1owJeGk4EdjarPUE2TfizMk4mkUpsR0OQfKT8VZdCPMBh00e1EVtUn56+koOJ66ktjlb7TdDEJ8cS2i6cvFNjbFdIhL3gzpRvZXoQ5+RDwnjzet3h0UDp+BkBknc1GLZKnqDtb4+1aV0/r6SsxBHzkvSfwK5+8Dx99tIWOO0Yk7+C3iAT2yEoKWNWjDrZoABQzirn7N0MbbJbdlSJTeeV/Anl/fqh95cxs87+N9Y8G6AwHiGkITOEJca02gMJuNf8WRvDSS0xaq2+x10LNZiGoWun5157rM2G8IMgw7DOYW4sx6Lk2TVdZIRkAn7BfoYMt8mEXevfTlPL3atbGExf28OLlPewmlCvedy5UyDumoMxlnSHjO7in42kATEj0RJypY3BB6SgI0I41Z44f0kuPYhd/7aFT+K//iw9go38RSBkCFFJ8zb2nOOUxhYVn+ju8zP7wXyS4rkq+THXlbHRf5rUEOxfTOnVMwIBubWujHutXoQ8/0o69uZCBjASPsdmKPLdZrHpMibduYZN4R76oglP1/LK0+ieeWg/TcHpegR7t6Pp6hLVhnfQTKXcg9KBl1bT4Z5on15Hhu520YVZKw/XiTonHX0vxA21FLvTPz0KJhzCiybqvPwemY2cAhJbTjBBcTGFnayUXlYVqeEfDaFJ+2U7N0fYSoEfB+LEPxfg7v3YW7zlbIN+5glF0EsWUx3j0HGGB3fGOeeYmJA/jB1pvQHBNnaPvpJDy9wjaS9Gl8FL+4dambd2l4UBNQjG0wuNMoHmuwgldz+YHLC2Rd1Jy2UD9oeLLQNo6hyryqRQP0xf6OTpttx7r7wKqnJZw2yKeRFR1zE3Okr+GzHgN9dGdabqvZkQRFDBE0R7hqb0IX305wROvaTl43qNmf5EHCV9kbodSc3B1vqNbgx0Wqatl8e3J9Ye6821+PZ9IyVBoGq6DOK4w2gwZFhD+j108+b1r6AiS+7vISiq/E5G1UkJdaR+it5JCm+fXS1N/Kr+8O79TE3p662tYP30SQbfFHqjr+0VSdhN2CuuiVNnmifNezJgsKdlwKP9p+y7bIUlIQHW02mhDq/jGDvvLxdoowhahvyby2HnsYuMn+ad/WiCmHufX+8KEDfrTjmly3EGo+TVt4IkCosrBCWP+hEhfRi2mrHQjOgfebOXRyfHzhhL6Bjp2CEBOgjpF1WFHU1AMKroUHCcgMxmNV+x4tVKKRQ9PE+sz3r9vq4ef/fhd+IWfPIv7T7bR9gkT82s0ABOGAMKSYq1649ZtYeVtZp8NU8kBKSlI2N+OEQ96aK33EYy6tpmJlf/yd0oYQ/5OTRGW4VAdaqVGgZUgLzPVIyvqARkB/jUpF1MI+/3C8jn9oY/hgEacNlUH11t91aMoCr+0CYiG/7TCr1aUaq4q/J7Xu/fWrf7TgJoex19Z0sjlKeWAfKBgjBHixT0H33l5jOd3KuxRjgVumt7Nm+nYGQBjLuG9jRtT8Woie2QIKA5mCFTww6ahlNJJ+RljdLLi3q0OfvbHT+Pv/u2HMGzvoUwTXiNAoVi8IYel7LaJh6SUnkdeXN3tE5P2RiP0NtcQ9rva2gApvbyFBTxHawLI2ktgNbX3esyrz9mWmiTh7EqD7WbUlSTVWgmM8+X9e55t3dUm9JdAV0QHFeP+BWqinSVX+UeVfxp60VG6zNxY37rp0Ib/DnDNpsRfzUZ5ohHQBqTyDleyAI9dKm0xkZfGhP+8XqRj+BsOSuLG8SNyTYUeasZB8iWdFciEnxbJUjb6Fb5U0UDCF22ERAj33+Xj1/7OSXzkwyexsXYX0cIQKcMACx0akJQ1V5mpBNWEld6dBkRbdq2f2MCA8N9pBbg62bPaAPstNAAa99d58vgKGjQ7TSWiSnhp1uAyk9CUFFgJwFw7HJPH6to49tHt0rB2Az6qeq9CkszIU3l5nqEuYLepyYZrezQZfyEDKeJRIMX1WtNgrROgzVdK9msDkm1vgCe3HTz18i6uXL7Gm9SSIge/p2OYA6htpuFEa/N36Y1dSo2WaTazxwctBy1h0WJM5mVICh/CuMLGxhCTnQkuvngV0yuE5xs9TLIMszTVtHx6HpcIgaclEYEEXY/DawVXEbg5WmVsHkgKXgU8d9hF/8R6vagHld9K0CmVSlAaSqDHl3lRk6+36J+/3bpzcR+LGzk2pMHRkIqozuCdagxfQ30W9NZeUiW9Ul6HCuAQxmvEy3bwYezfbrlYH0Y4sdlBv0tlpwJo23SnCk3bLcYnb41v7NvX9Z3fwbcMYRlPm7SmtDj2zeffrDWjjA5Ai4coE2gFURISLXaS0Gmpos1rYcYQNQkidCRrurTKhDNCAz1nWKlBbHMhNJyuzZIRvwUnalU4hvQmJvOp68sA8Inue/6xEmymhKaRdiQfM7jlLt7/SAe/8NNn8dMfOYWTtA+zcT1H22XMmVdTJDOt4BPRq/j0KFN67ymFkPCdXxCwowTrxV1V9rVGPVvF16HHKing+vqQ59WJShkA9iubFF9tYQysw+eCKgE+Tq3mucRP9yei0uveyTf7nO9bgQ8FWDkcZf5zQXuKcovKP+iHhP2xZf4N6ClMEuTnObXy61HX5jVp5Ovkr5KJ9KlznjZrB6WbXePNrTmZc9C4v34+T9W9RnRiscmRY8uKPb8DfOci8Bp1fmyaru8QE+VOannS2yZP16WrJvXA8pIJSvQ6v0T0MGUxIaPH+NiPruNv/vJD+PAH6dG3J4gpZN1IM84m2BOntdRUq0DqvErjugcn7dF+9JFI2NhTYbeN7mCI3oCev92yDtCKsKrs82wDyYMJw/Ei8sjR1N3a84ssuz9vUn5VYWqnY42kFCqnThMen2FIxV/bbBP6y4jQJGSa/KXczp2d3n0YpOKlgD5KMiqxEgoKowCtDkPWOLY9Ia5cy/HSKwVeuAJcnGpPAq0e1arlS0aP7FUS0epKLPdVe3/RUhsAypkV5RlzZSxlGAm1WiG9enoZ7XAXH35fiL//Hz6K953tYsAYs5qkKKYlBXCL0GqKvfQSvChFyF5y8g4FVSu6VQi6PH5jw+b1twYDW9lX17bJQZYcXG7bW2OdjDJaz7u39ySo6gO6OvP+hP1SgCKlUaag++S/4v31jRij0bzQRwlfCTfDONeh4B8zEkhUE18EcMQpC1OJ9ZXj0voHe+MxXru6jacuZXjmKvCqJgqaY9Noh+aUMFbNEzu30KS4aj5OSlpuKaTgaRqwoJXxSlTIOob856GcbCNydvDBRwb4+7/2MB44EcCfOBh1zmI2myCrJvBCD1G0RkZ2eB6Z7M3gtmMMNtet0Kc16PHans360+QgFQlJuLOUcVyNdZeUpOk0laq6NK0XqSNqkayLfTKbu5ElUxpYBxtrHZw42betu1TPrynByhl4Po2vzjuG7FTtgi1rztBIyU+91kRRzWhWCkCo0hFEIBp9eezg+WvA+T3gimYKU9lFHnmsqe8iFcIXNyDPpTYA5nkcLf3ER3FCTYOtqQxAF35JCMo3T/Rj/NzHN/Dpn3oPHr3vFKpxhnKWwzVPFdKi8ih2AKT8cYHWkLB/bYT2sAe/FdMak+n8CslnXbfO10coE304pIifnp3Kr4pHsUIxe70Qh3IeGhVJKOgTKnuBfi/A2lob6yOGVmR1pb0iC4YE7EMVUImTCzNynEh8WGxLLkMpIyDYn6qmQfkSGj5PoWjYwk7m48Kkwos0Ai/tADMzqAxzyaNgnnsSj27k03IbAGuaUplYEk5vSBDTmbz0AO1gHS2vT+vp4j1nXPziX38Qv/DT92PUyhCVjM2ymAf7th+/E9AgtEq0+21bzy/q9eBSUqt59tYElFbAilr4KOOxzCT1f+O4+Bz2yzsJmV0X/ASDnmdFPgRTYNhrfaZKQCvznfebhLq+zvEiSU7deIc0AErp2V8znHzL+EWnRUikbP+1WYWXt1O8cCXDHtmjKfD6zKMTqqXwjbTUBkDslUfW+LA4oaS0Vgufpvwj2eL7nuujYEzl0eOcO53hF35uE//oH/4Y1hiDVbs8fkyLXOxinF00z79+5iyG62uAr0knGb0UYzB2gLyUCoTSWWrr+0UaBZjD3WUkKWuN/OdZewqqiahpMQXeJd98RqxxiRMnWlgb+mD0pNJ3nleSdzLSqvCTYRWa0lnHj2z6s9UvkDvzptWKPC1g6mv42EFCRDBLMhsh0GjB5UmG89sJLjEMmIrHipckamTe3F5ep+WVQJJm+hWFagD5WFFZHQpWBLQIN4nwLemiAmuP72lCUeQluPusg5//mS383b/1KO45zQ7JdhBQEHvDk+hunEbcW2fnBBTIGuYrZhPL9R1mVGhhXMKN0NX33tgVS0aGgHwa2AA+GSxDq5FT7Xeg7b18GtheL8T6egejkW9Le2kPfyUDHc3QZJCm8Mv27ld8q6ne7L/jRtR38oaSwiZ0ZEPXNACaHya95k0b+inIg4jarE1PcsoX9R+vbEOr4PNzJbg0Mc7E+Q1Kv9QGoB58V/xINlB4imqKnJGTFB4h2SoG86PKTch4viaT20GBu88AP/vTa/jgozE213wqc5/x6QOE/RuQm1ICa+7HKJx8brBftpodSK9P32VrAyyx+pN09xrnlwFQabZW8oFNo1ZiUN6+24uwRgMQMbTyGWJptSYphBkP9p326Tfp1x+tkEPUcNyoDpF0k5Qm3raaWGf2U68po6pF0Z4GEY2gFgfRmzMayUs7NAApeSo5n19DCq9TF7TUBkCMEAPMgfCZ4ioVm9AUmAdyfMZaDpGBoitxXglCevSOn+GReyv81MdP4kMfvgfttZOE/2fhxi2iCB6thI06R9LK/hBEVdMltF69pNhWDZKVOHbE+7vebk71bUtQpbjzV3yqOgAVAkaBi17bx5BIbNSXB1R5tCon5cVq3FQfryf1d5liHEOy0RA5FBMW3iTvV/et9IceJb+KYEPtJEXmyZ3przYXuzJJLQQws6iEgTZO5Sc3sur4rQl4IBJ3CtsEwotiKiUVk29JmDTWumCUZLTaS+BpnT8txKjllyZTbMfr+Mz3gf/l965hN+9hQPQQ0Aqnx1Ua96U6PhWZUJn3qsVr8XrxUDoz2tMMgdemi2Isn9LDUUg7sYOtLSKrDYZVPU34yYgKNHa9nL7KJKmBPAmsDoiQrjD+nxZacCbAVpzgZ98X4+EB0CnGKNIJQ9yYjinm0fUQ4VIjAGOvEnHmVRxLoqhATxZVDLWsvWJOCqzTiqAVfqoZAyueNuus40++U+CLX+PraYZItdeEraWw65KT6flc2W9Gkmcl8JwqIPqSRxN8LxFSLjvdAJ1OSEhLX8ZrpIn2RJifuKK3JQ2lbs/IqCBCGGkF5Bxr3QixxFsHEHnKyamsWI5uQUtvADSOqhVVTSgps/W03BpKBYSoSqpoTbqcFkFr9ClWzfII33wZ+LMnxnjqpYlNJY7clIFCjkTxxBJTrfdvVf5a5F4XPM2acLSopc3uS+mxCnp8F8O1EO2OeE1wJvhLA7Gi/UkZpknloyTf6M8QFFNs9Rx0+FwLBxnv3YDhgNrrar/UBkB80TiqrcSj54yRKgqjY2NNdYmqmKkjtSKLNu1Mqg6eftXFZ7+Z4bGXaXWziMLrM27lMQXhv8ZhlpgUgS7ozWagRrL6o4yLT0NLYaQBUFyqhTxG6yEbY1khVIppPSdgXgi/zCSruk/jX0VSltcmUxEWE5ygIe0KzWrZNOOhj4L8tA1J5rT0BkDqqkd7rnXmtEfU3AC8/knN4DF5+NRlF7//l7v43FdeZbzlw+/3UbaJIOKQKEtCvcwsJZckjPNmwvkmquG/BE8Do0RUPCSMHAwGqvSL0GO86hC+FhRine77Gu6T8C4niYNNmvRbo1e2dESyh64zBdmJjl9RLnWEhgs1/vRGpV9qA6AheiX9RGKMCi5CJfpchgbK3KvckgxVoYWDBE++Bvz7b5X4zFcTZNU6GVvy/DHGBP8TerNO2ENPs7BWtC9pqM91cgz6GkrtYjhsgSHq3GZoTF+GgMhMyRjrnRXdksg3K4xMZxiGOe7d7GAYlIg00iKelhpHeSsnl9oAmGNhU7GOLTIpEubnB9qTMSNcyv0AqRvi5Z0UX/zeVXzh6T28kg1QuBF8zWSjYVBNtqoHHcYJGt9fZnobx08iX0yr66ZZgBEFdXO9hc3NHrpEURrXSrXQBUmVbhrfXvoE4IKh+zb697RA30twbhTiwdMDOiOFsPyMam4lwSRJ5woBzEnMkDzaRAtJmg0si5+atsv41HOR8vNrlMmvPpXizx+/huevpvDI4BlSnlsiZjwVUPHLhPF/mloeYLlJAqcQoH51Ixm/5y0KS/S7JWF/SBSgcWyeRUNsc/vp9jXDT7a4oFdbDCUuK9UcvXUTwO95U5whL+/djHGW+D8i/K8/8a4n/pQQNJswp6U3AGKArd4rS6B3yJxMySetCcCXO1T+Z16ZMe7P8MwFRq6xh/4GsF1uI6egttBBP/XQznKGCjPMtG/bikjzPMBNSLxut12srXvodLRhR90XgqluxZh/PkYtc8wgTFey1yt6e/IZtt418PDQyQ7upvJ3tKEA1V6FQ5oBoIVDxWNPxUCWFKxpqQ3AAj2pwkw7CFudKV/nZJrYpy2Znz2/i9/7k6/g6YubQLCFwBtje/cJBGsuUYCP2Z6DztTBgCcGgrFxLbzLSvs560VCr90JMVKWykmQJYXFr75P1Sf01zVyxmBaDNUmwNSnrOgWFBCt3neyhXObPgYxGZZN2BmljXIp13V9cEo5gRsM6lJXAqo6Usl+l+bRiRIqfUalZ7xUdogAgD9/qsAfPraNLz8DjKd9wtKUB4+RVjM4fo/neQgzrUUjP1UiieXKyPycF11KIkNlQyljGuhTnb/QVamtuEqGTn6Ofi/EcK2H9aGLTluKr06Qktcz3uwqPF/TXvW3Vn6VaR034h01uClNgKqcih6cIRGPt01m+X7hOUjJorBIcTae4H2bDh6+a4BBiz6In3tasdbyWb55f8m6thJzbHRL3137/uUuBZaMadZfznjeY/xO66jdVjO3hSdfBn7nG9v4s6eBl7MBuuWYIr3s8f3+pPkUpsy0oB55qRGoIhvzvRla7RJbWy2cOjVARAOrUZZlJTNpDQyA49G1yAAUqpx0oUp0GQKBeK0KdDqe4QNrCT56ssJoQCdVF640pqUOARQiGSRqZxhrDYCkhaBsYZuQ9F984Vl88ekKk5RQNT9PRq1i+32JLNTuO0rgRZG25dbSZ1MahQxxK8DaqIfRsGfzLPYLFVZUU1b69PQuvGKGbLqnNAlKGs88qTBMX8Ojmx4ePDeA2xlSlg+uzsttAPyEbQavaiP0ydUowA+uAf/vn+zg6+djvLSb0sru2Qai9SDKivYjLeOtIh/heJX4ylfFLY+K38LGRgf9Pj81A7C83v8gpAVktYhnkaRmVOWnpjOg40zwo6ccPLpeYFPLUVJ8myCKN9NyGwBLiBDWT3J6pQjPUPn/8Ikcn/2ug71JiLZfkukVpm6f0cI74O6yEQP2MAihVZCSZEw0MCXsd+j5Y4zWYnTmNf6WeFlyA2AjG4ss9C2alqEQy7ywzXA+gAaZ2kRUD687+ODpFjbjAgHZKQf1TiR0uQ0A2VaRvTljgfPbwBefLPEnj6d4cYcRWlGiQ1cV0DCM3fAN9dMrujkpYacRFe3NV+QJPX1Oj0/ovx6j1+NnAeGrwi7L8lHAl5zEgf2ak2eE/3Q/cWjJvLab4d5ehg+eCnBa+yGGGjrV7P93Rsst1RW9FeH/Lpn7uSem+INvTvH4SwVieirfUXYwRl50kDoZO0PdsaJbkcb9DfZXKYKgRLfrY7jeMuUnMOBnFQoth66U9DIjqoV2N2hexhA1S2y9SrIOd3UrfOSUj0dPaIl5GtsgshqAMJ3CeQdGdend2m4CfPkVF//qa9fw1Gu76EQOhoEHrzXAmHZ1mqVoE9K+E+YuHZFFKQUxjF1bwnvrRAeDntawk/LnKLXNtVVcSuyW3Pc0/Kfd7BzK4PhyijNd4INnQjy8pdGVMYpSRT71eoEBY4XFBisHoaXuhcsz4KvngX/3x5XN7KuDKXp7t4sEHQEEhgApwpmqp+YnrejticIahPXuPcNR22b4aRlvOKnVASjxZysAV/WQ1or2p4ohqFaQPuVP8dEzwP3aEYmhlc1i03gg5dKMqiVXDo6qlroXvvcq8AeP8fGJF6j7mW3YOaNgXiTUKshPrRAUVkVdVCFOr+iWpCHobje2xTw7bc+U3/W1oIomTdUFLEppSegOLqrLSSm9UNzu4CPn+vjgGrDO0KooC0ytXFpV/pksAEPZlQG4gWgR2aSyi2d6NBWWxWQs+upOhS8+AfzJY7vIy6volGRpFWNcRLgwuUrYWiAsHLiZg8JdFQC9ThIyio08uGY+qopP7/Cltu8a0fN3bUmv+kgVVduS1owDtJqSlQLXpy0x0RhSicUCmkdovcPSqiHZlCAtKW98VE5F8yRO0ut//CEHWy3KZDmzZb8Lr2W81TQfXWdW6Bp28QPRMawEJAO1aKejndBj2x5JVfsaKI35PMgqTMcVfvNPS/zl8znGWjidXl670qhuWsN9Yryy2WYx1CEiCe6SUuHk5E0JreDjVJFBeJM2zemncdTMvjCq6PUdnD3bhR8wLiW7al2vxcv+8s8bK+Dqz5aOipxh5S6qzhrGZIY2mpYn3tRmp9M9pNMJ6PYxKTx8+r4An7zHR4sGVWNWIvsrY3ED/7Q/wjsR0WNoAHg7VOjc8anMurUcKeFSR9N3Sx8vXXXxz77K2P/Jbby6qwXAVyU++1Fp9egUUkerHyqdT1Es+J4N9WW2TXe/H6I/jDAa0uDKeK7obUkJZU+rT1FGczoeLTdnxVFpgdill6esZpMdnD1zEj91zsX7119X0cVkqttFxzAEoBcnY8Uy7b/nUVgjjaNmBS5fLvCnTwO/+xTwylUa4lV1byOyiT1K3lmNvwRQg/kZQRY9mZad6vhU/hb6vTnE14jJqr1tU01JGtS1Jartbzl8L9EmtUJbPqIoxD0bLXzohIuTqvI7RDp2BoAstik7WgvBRJXxVTDZRbFb4EvPZvh3305wZRvYydqWYFlRE1LmXt5fboq4qtSqPcRVUWmFPn3G/b2uY0t6iefqg1V7+6YJkFrBm4AKIVnqEkkl9PiR71niuR85+NH7R3jfGrAW6oyabrf3Fx07AyB4FZChIm30aYskUix//8kU/+a7GR67kGItvwS3HaCMDtm8HhfSDBQaUuVGtFhnUcwIWVMqvWfLea0N3Xo9PwEDE/EV3Yo0bJfPGOYTPWnRmb1ZioiIwC8mONUp8d6TAR7aBEZRSoOg9RHrBOFh0DEMAZTQ27PlkbVJTZGV+Nz5Dv7N8y08eQ2IMMM4Z5xFyxtqPHVFjUhbmxVZPa9fyj5gzD8aRVbfr0y19F6beqp4ZUW3Ju01MQxy5fswTamEYRcBZfVknOF96w7eT+WnHSCJl4ej+As6hklAuaExWwvbExffe6XEP/2Gg29dcJCOx4izMaZlQOurjDaZO0/yr+jtSbsoy2tVVcqYv8RoGGI4itHvBgi18CQFWsZWG59qh5oV3ZqUI+25JS7vZaiCGK2Wi341xQcZ87//ZIhzfXr8iijWvJhiBLZDomOHADQyOkMf5SzD8xem+J0nCvzBkxl2J/zEUtk+PZgLp6SRsAKfFe1LNnuvoCyqvj/AaK2NNXr/dkerJyXI0hkRQkE5rcVJJmDV3r5ZMpDPNA0tclKsMxR44EQLj5yKGAJQ+UvGBxRVrfiz35opCssW7Z3QsTMASrBsU6/PXw3wucdz/JtvJPCrFtrjHfjipt9Dq5jyOJVQHJ5lPU6kVZO1PXqnF1H5uxgMA7TaCrHqXXvrGnRK7DuTwaUjbXl2jQ5p2O/gRJTjLn8Pn3wYtpOPryV7NW1SGcJ94P87Vfob6dgZAA0BVFcr/N/fKPD7z/jw8gAn+WYv6qPt+AjTBEnVJUqI+e7xu/3DIC3z5fkuhoMe434iKJUCUIgtH8BQKo5b8BwP2UxhwvykFb0tCaVOnBhZkuDswMOH76JRpW/SRp4l44OCvNQQYejXG9Y2oWOPAAqqa8q/VpWvMF/r7xcTQqQJJnw5ZdNmHtfo/n/rGxN8+bkcF3eAiBbV41mqZFNhkP3T0CDDAV8hgfi2pE1KrKd6oYk6yvBr1p602Jx66UIrSI8GPs6c8hn714se67Mq114Kyk7XJb5WC3zjgvNLSJrt6JQ5FZfyReUVOiKT6toJ8kfoVHP65aVG1SXcMyrxnq0WTo/o9NkXWrNfmHTh97WT763WobhxZOCdjhIcGQOg/HJGhmrBXUcGwKaVaimPTNMhrNj34i7wrecm+JffLvDyNe2ERlvrymjkSBir2rq/ZKhKKFUBsOwBgEqfJY9yHjIAFbmpLbvqWnQZTkFSD5sMUs+cDtFvZxRwGtOcHCf7od1obXtvXkD6b3NXdeXlpMqcUmZ78fmepumKvxWdlJAReTRX0oASeX/rMj5Anp7d1CYpYqfkOTH+uuwLUU5mqjT9VrQYIjz2BkCbRfgUuHZGLXdpCrwQM79PJg/QJ5M9yuTXn03xf/3FZSQqAFjRrYkC4/kq6RWU1xZS5G3cQxBGfE00kM/4eYGNzbat4W/iJSF7h4K2DBSEIU0oUejObi2DgY+caHN3PGZ4NEEndNAjTwdBgYfvvQunN0J0iaikhI4ZXrOqEnb9NVB12Ow+MgYgJG8iVU1o0NkrkfCpZUnFN77/Z1+b4fe/vo0ndoaEWish3Z80PVc1E2QnoabnhISqEb1PvT6/duzt9x2sbdW7+NyKzNy+wxj0uJEtihq0MKNMTgWU+DqkYXAYXgXJDk61cjx6po/3nOqgR8+vVJ9t16XZgSa2r8vuD4OjR8YAmGmVgaTnTwmxKmdqIeeE2P8LjwOf/X6Kx17VEGDnh8K4I09UWO2843lEAp4qeVykM63lp4VQfQwHMYbroRX6eD4ZP3dFNzWtK+WvieGl64fwienplyzmlxfvkJ9tj3G/n+CegYdHTjoYRvUGHuK8Z7Mq+WTh8unAxNFFO0w6OgZgzgllSJUQlKrn2RTPXgT+9Ven+OqrAa7kbfLvsFl2TIhsKnIN78njuwwFCiSzKd8v0G2HWNvoYEQp9TzGpY6i0RuU/wZcuuD2X2Us+tiQkqFWEVXrspRLHl4z/LaIorRn332bEe7qUfGL0mYEupqRpqy2FfzwDBoRcdFSXD8Eduo3Himin0IECiWfvbid4o8eu4w/+O5FXHNb8NqxTapYeaRm5DI+tYw+4eeixl/z+nuDkAjAQ6vjUBC1nBf9mZR+0d5E4vaiLTM5VH7lQ5NZaWv5aYu+IB8jzvdw93oLj94zwD1rQEuAqkhQZTNU+bwYzbL9PIHnq05A13krp28/HRkDMCVWStgcGgCXwOl7F4B/+40xfpsGoL8xIpxKUCa7FnP9cFh3tEkLoPh+ZCggz2lQ3Qz9oW/bdXd7Pny5LoVdhKMytuLojW1Fb6VpWiIlzyLfRUjFdqdX0Mce7h0FeN+5DlEAEIqn5Lfn+4xmIzhaLtlKfen5qfW51lmg+/f5lozIYSvokTEAMpBKrI4nAc5vD/CHX0/wx49NcXnWQYuQ1aGVdbPEZlWtJLQJSa0DEzrHKdFuV1hnzK+4v6XglKQEq+fE/FyWl0x9c5O7Etq6sS0xDkhzDVPXyhuUUwy9Kc4p5j/VBf9DuVS/yoi6BAEE+clXNa1fwdda6kvDfho+lGKqicuHSUfGAMSqAsgzvHAtwh99F/jC9128dDFGHPUtfqUrIy6oEBmUWtF+JF0tC/KKHj4MnbrGfz2yRT2CsDQvpHX8PQqnKwPwZjKFr9X9xlb/WVKi7GkyVJlO0XJS3DWK8ODJLu7Z8EC2ytzSbrIp50LV0zb0agIFBgws+edaXqZOAyrrfbgMfRdoS32D+nuzZzXxWTlGPkvw7VeBf/a5Mc5fG2LUP41BGGJ3Z4LKixF4IYKUcPb1E1d0Az9fJ/oVvpVnNJqehvlC9Poxet0QEQNX1f3TApDnfL5w9jehm7P5sH3WD5mMfYs7nd8bX8uL142f2X8NnSqnUmG6e82G+B68awP3n4ox5HPPinvk+aly9PpS+JSQNuMTWwlI7Nb1aRxqfuui9uV6cWh0Z6cDK9VJr67dTWZz3irBJ/uY0eeLSYFgaLmHi1kXf/IM8NuffwWPvzQFWiPGTzFjrgJplsLjORGFOfRcZLSky0oSJHWo42qargROb0hg5e0Va2oatNblLylrO7aBx/pmF8MReUfon2WZbe6hXX59T7v8tnS1ukblLXQz0TlevHfJO1XmpZ6PTLdGPoREm3G+QzhfoqDTmfiM9IXkJ8DAmeLuQYUPnwnx3g1go60kH5u6wYmQeS3jGm3CdbuyMLB6raevG1zryfrpIdG7AAHwBqnpulWNnabGGokpn+UFEvJuWnTxlWeBL347w3MvXbVTZEiLqqAFLeD7PoL5qhSZyjGXmea8qdfuU5kuuaJ55TQAGu7z+L5jU3tzKn2Abj9Aq+VYfZUE0EqCJYg6TtJxSzhVf8cb2/Eig/S0qmKFJeXYtIS3JvRo1p6jRhYVM6AflDgzDHD3ZhsnRz7aRAS15rOJn2TogkN61LUMYd3w+nXlF73hxaGQfuGdI92tGEPVV62JKK1ZwSdTuGwJjcMXXwI+/70JvvfseUwIm5ywTXlW0qQuY5UB8IN6PPttXNXSkCvPz2aCJI9fBnXjcy2A4roFEWiGqFVhfaPD2D+E6oDENu3qq7F8xaDiqUeoqt6RQVhmKqjAqtbT8nwaHFECL/O7SMM+Cp+hJ/FqJx/jbK/AA1s+iPwxaPMwX1iWfaB+0PRehzzlNdTeLXRHDYD4UEhS3Yx+P6ERUPLJ3oS5/rTE1Qz4f/4iwZefvIIrE1oDMt1rdWkAghruasCUJI+ltfyVQV1mEvRXE3MF9V2GUlrLv8ppMDVGRWMbE9UPbMgvQrur4cCSXi2nAWA4Rm33ZADo2VTWqvXmeSW79rKSee6CoWmREvbLgDJUCj1MGXJm5E3Ivye9MR5er/DICeCuAdCWpSDbUip/rsVnbS8FojDK7MLZvRvojhqAkkqbyP3Ic9MzKXPao+RO9mbI3E08ud3H//VHl/DVJy5jt6Cl7W/C6wxoHzRsQjgr6B/yOWF/ydhV8NVXRdVSk5R/bkjl9S3m96jcjGO106xXYDgMsbHVRhBRGCmNWt67omGwvfsktYb91eT9l7vCTxl7L9CsxxmqZGyGQCKbkT0TRpsaKRnFBd53KsRDGw7OdBgK8DNJoZlOLyQAaxHJeiiV7XsXKb9IvXzHSLxIKVs7CT2Q5vlWGdx8Ai/q4fvbwO9qOa/vXCZkquvVNbMqYzybpFR4CmXge4hDwdu6rl1FLXNAsLyk+ye/6umhVF4ZR3p2JQRt7TnG/AMagA4hakZea0kvBlIWMmi4T/P7JRZ2mevKv+RMrVnJB0osEYCMq4oj5cl7YYG7yM/3nunhdKdC25khqogWiKjmpxk5ckxmWN9dvLyjBkAkhJkzPsqV/FOsRCW/lACfe0oGYIZXsgG62q6bXFehhSZYKFZV0CoG13JOj8d/BYVVc6+XmnT7ivVN2FSYMiVnUoSxCn3aGLF1OlrEQwnWBHmeWR6FJpa8pGuzmLVOHtqqP+KtGYHlJN255MoUmE5Ir8ssRUQZHAVU/p6De9YjGgEPLaIrMEzwaCR0ZD2WX1/DQC5DhtoqvHv4eUcNgL5cO6NEhPGOH1Fc24RVLXz5GeB3vnEF3zifYXj6JI8hw1QzTcYFHmNWMtKVJeZ7BTtD89dtVRpVUynMXWKqGGc6ijXNMmZsM/hBgv7AxYlTXcb9AYKgQmbKr1WAyFsNESpUsB6h9+dryahCgjqWWF6S8bPkqB+jClsM48lbGtWhO8a9vZyw38O9a0BHtlPOR+yiHPrkv0ZbxD/1hKWmxF49zg3Du4HuuAEgW23gb0Ze/WACfP5l4H/97W/juYszrA0HyCYVxgWFmgFrOw7QCqyA1QyArK0MADEuQwR6MJ+xmnm+5SVHvkeJJ9sRJUXcZoy67mNtIyT8p5pbxKSwgF7KiyiY7IEqEAtNfk3fFULUkqoX87asVI+oZFTqaeVb/qlNr3Xv0MH7t1w8TOXfiBcKHrEDtMOnJNolEqjgMVZwtcqPxrpVk2E2dsHbO093VFsEkbQ0shR6dw/46rMp/vc/fRUvl+tU5rAutkh3kIVdRgeUXDIznU2QzbSkt6rYtHAiwwPDV4pbtUy1XNf8C5aQHIZTVeEQMAkxpbZp59p6C4MB36cAZkJMWraKcDYK29CEIIUL8vgyAtcdPt8zEGF1AMvLUA0tB4Fvw9FjAqqM6KjXDnH3Wox7Bg62IsphpeIpOiNl+jVEIOPJ46TnvquKgQJFnlA2Mz5jSHXcDYA25lJT/MiASU9MhnTzCab8S+HM6IXIVa3zd2lc4ts/mOHL39/Dd15IaETXEDIsoPuHR6jqZoT3FGplUbVghYamFs2GaJS4kuDye/jKhPlYNbGR97Z4bUt2CZbyPfPVQj3kRZERriZas682jt1eTOgf1SW+dE4VPZGG+pRAVcgk4ZYsStFNJBfPrzdxk7y9s37iUEhKqFEoRUCSTbkPQXYt6ulRmLQar94ThzPySWXTcTnDyTjHg2s+3sNQarOl5DQ7h/y0PImYKFbpUaR+oWwuEqv2weKzdwkdSinwDpsu2i7o3bXWWUXpY9w+c1MagDHatJT+Hn1/6eHqAPjmsy7+6C/H+Munc1wpO/B6/IyeH5MJWomQQAdpRO8VLNzTcpGES0qrpbll6QTfq6Ie8gwYGil2L7ICs2m9qm8r8jCgh9rYitHte4jiEq5Hg6vU9VxKpdg3neSzJFQQxlvIQ5YEREa2mbw5K3psP4DLWEkz+2aU0Sn11x+Pca6dEvb7+PDZLk53tWQ3YYFJOn08r2VpKFnOI0SSqNtObap5i9bUzShgFQMkn8pPxU+KGSKMkI41xdRFyZj9mVdDfPlrV/Dk02OMaRQCN0Yx0+qzFcIogN9mPOsTOyh+WlKyIiflOObKqwIdE1JlpWkYClvQI+djTk/votML0OvV8/pbsc6VsGvev4wAr6AkFXkv/7as/xSSS/g1dVfhY6Y6ibxCSiRlw81EnCmb9kP0pxOc6ru47+QA5072MOws1utf+E72i8H6o6X8okMxAD52EZZjWx0pZ9Oa/aUbIKLAOjSyIYU3oSl45lKJ3/3zFN95zsHlvQ4FuGO7prrEZaq7LmlEJtkUXp9xarS83koGoK7KIzPZBCk9VerxUWGWvH5FXlGnbTWf0RphPx9bLXo3gS8aAAsTJKAUcBvqO4LCeluJCr/IySmU0nr9VmDmRSgopwllMMkLeAybTgdjPLQR4cFTLs4M6eBMFBfen3wUK+fsPWqkn337ybaTJqRy6J0oaxmV3s0DxlAhPC2FFADPXgP+9HsTfPF7e3h53ELm9+uKK1lcequFuie8TqFqP1mTJaYaWrIp78FukxFQ2KlQQEt6UWbnW3eF6I+o/Nq6i+/pNDUl+sxoCKfyGkICS01Faiv12lbdbDbdxw/hEBKINTmNqop+6Hvw8Drw0JaLsz1gQNn1LFsqA0Aic2VTZQoWeOAo0SEZgC6bh8xRNoAMIy9DreOdE3oybrpIL//lZ1P8wXfHeG47w9RnSNCiWIc81knqYRP2gs833EC1AYVBtGUnwX0lpRbj9MoFCPY7ZFbcDrC21qHyx+gwPg1CA7r8nMJNYVVJq9X3y8vJACwc2JI2W4dfCVHyz0aOLKziA+2jzf4rM3QChx4/xPtPxbh3AIyo/IEYJ5hqBkAXY3/Mnx1FOpz1AKirCZmYMRSIiUH9gpqd8n2ZSsak/+df7OAz3yb0v+Aib9EokJdqmm0V0iRlyZjGQPF/h2+08eJLV9Fhx7S1ifoSErlmkqminTrrr78aESFTnZRQ38faqIuNrRbahP2q97dOoFjWCEBXUBNqqEdJatnVcctJLkNLsaSkk8mIN10G9ZasJ0uK6TZ6VPZT6308esrBT50sEVjxGUMt8rzMc3jazkdDfjxJe0yKnTr9qEnoofzeGblRaPzUG5C1YhSZHRTYIQr4o68Cn/3ahPE/FT2mkjsZPFfDU7tIs20ylN0RBGSyg3RCD5dUiG2s39RgKUnCJS8u6dSjvJaGAjXtN4p9dJXwIzbtEnhpfT8lBEV13E9IWzrI8wp5xnPNiLBLltOWvk6UJ6EiDYd6dCzih0O2eckeutUUdxPuP3rCwYMbQOSR1/V+dPXxkSp/hKQUKoinhSnSUZTQQxED+R4xwxJ5FLyCkPVS4uLrrwD/9i+38b2XPeymZCSF1UlsFoANwwiX5oT7rheRuT6SKcOD3R10iRoi1QwvLYmjUuraCCjhpwxWEHmm/L1+aNN6XXotctsEU57efJLCBW3yKdhv79ehgag+bjmbJFRVI9J8wX7jFmF/m+jpNHn5wHqA+wn7T8wXSK35RgTFMKryQoJZ32oIzBCzP1TsUwcDR4sOxQBQDuGLF4RKeTnFtaKFb77q4fe+n+Dzz6e4VtbVZ2FK5U8DeBlxghMz5m8R1mpMVWPbNAuU82y6h8gVSjh6zL19xHuXB6LSm4KzyfsL+vf7bXT7MaLQoee3OIuen4IqpS8okloNiN2s2F+jBnY1GloNHdp1l7QJBynxZ8aATcVWgVtgve3iPVsd3L8Z43RcIFaOgMdm5GcupTfIr4U8db7CMeWqdI0FP48WHY4BIB9UwZcl51GFE1zKgM9/v8BvfeUyJsMNOAzogyJDPHOwFq2j3CUUy2LE4YCK3sGU0N9xI0LaDjqEuLPxJeSJNgFfUqKQ2Y5HZgAoqXwuyBoxDm13Asb9jE8JU2fp2GC/79VDhpkqJ3U4L6Hxbq3+q+o/KX+uoZklJnlvJf9U7KNpE5o23SLK3Bi0cd+ZDk73XETOjE5sbDG+Fv5gVCqfZM22+aYx0OIpxmBDaEJqR4uaJwErKmA55uMmEvJFe/E7YcYYVMtykQmFKstqQavyy2SSh51iiKcvA7/7lRxffnKM569oSC9gTF+Quaq+Eu9CK1BRuGrbKfO6lpRVjMbrVbTAlTapp/WtszTHhyyVpyz93BsH5I3uW/5JaxvIO8lrm/cmj5Nkl4qeotPzbdfe4ahlm3hqFV8ZCBULyeOLhzXUFRoQH01Ca37yPSvRJtUzBvenZgJSU7Mr1tT0uk2vqbuyikmFi+QHWWsoiJjdwlEtPVcWVOh8D8HgBDIiz3wvR8Qw9e4NHw+fdvDASeBMt0BfF7RUCvsoElKoebkg/XbZZFd/7JWa/GnTX/vuoAMgAB6q2VBawYNkQyZ8SxZUQ36LW6/KhLbAwXbu45nXKvzZN1J855k9XN4m4OJJXSX+5seKcg3HyGjwDXWeage0pJU8nc1Fl2WwWVbHS/lFkicpvBTX9SRkMgZs4ikZojBJn0u2yqwgRHXRaYcY9iMMBtq4k2EU4ZYW+1AxixJ89ZyBWiBredVrfj6/tgmy/tmHTRtpIeP7tZue/9Zmh7753LdrNzn/pk15Dkqihj51v1JOTRSTbMrG5nTh+twLFcPzXfJK6/kNwxx3jzSvH/T8QNfq+3mCZG5+vhZT1eOiSRrVNfV3L96xN44U6Zc3pJj3N0RaaMWeFK12iUjDcmm90KHiIE/KS4ZOnTX84FobX/3+Zfz5t57G1UmCkgfIaGjnWc3pd03jjx7Dbivx9jX85Ae+leZKgbM0p6BSAE35ZSrl1em5qjFaXRejURv9YcfWUJABloGw4h5SkpDPhdDEkhJ5JjW1CWMaqqOCh1RcS0aTpSrxLbw2vM4GyrRkGDrFqJXj3Ang7i3gRBdoSSO0YYqK2SSex8/vvIF0u41ITkX77gdtrZG2y3e2eXJJBtcGwCy1jaN4uDgFvvmCiy9+9zJeuJJjO6FnIiMrWtad7SsmtKEXkrfHnLv7kcFKdgINohJ3Gq4r5pDVcwPKc20UNI3UDxMMhgFGGx2b2uvbZBZKNUlxvQQ/Y9ggBLDMZHdv2i6Xn8FlbC+HLl3WDMCC8plqbsQsQ8dJcHa9wnvP+biPBmCdPk579zkMZzUnMKdgyw4cZ2p8e0KlM9WdeBQyaNyeLSGg0hWkx2ylEyBJW/jzx4EvPZHi/F4XTvcsyqBtzl6xfKpEleAZu6QeqlpesjF9VfPRW+lRCTztbyA0oOfK1ucFld8vsb7RwmC02K9f52aMYRlu8TzxUfP7Az80Y9CIqCkKtJr80/+mpBCjyT/9b0pNryknJYnSDlG+jCJ5k6eJoXnNLp8vH4kd+q+uW+LcMMSDp2Lcz7h/6M9sXj+F24yyQ9iQ02BoBv9xpub2jUfW48wysISlhYbyGJvrNT9LybRrCfANKv9Xvlvg6QsVJtVI8wLrcVNdwikw7FGC2QtpStZqX6QlpnqGXmZzzeW5LV4VnCd/ZGBLeX7G+J1+iPWtNjrdulxV+ZE6rtc1KPjm9YnOVMve1ACIdFqTdlC62TXe3A5KN7vGTZol5hZ8lBG1t8lbyqcCKi3k6WRTnBmEeM9mm0bAx8jVdjQTIga2eQjFU2ULqP76e3ypsbRIrrRltKHOokWHT+9OHmu2n7b1ukh08NjLwB989TK+89wu437CLL+NGQ8QehBp9Z5Bv0OBJYZQrLvscJV80HLdBtslvGSyhFUTUVIKqeMRpvZ8rK23CfvbCAT7hRpoOIQQ5PWV+Krr/YmqbNaffOByklKLlpQXyQBIYLWSlHAB9Tpg6zoptsIUD2wFNAAONjtaYo6hq7KElnzl8zkLpRxKmB5namwAanuYIk+0lISUn8InvvJhj588dr7EZ750AZ997Cpe3SU0NYkm/ymQ2SyxPEGs7KsJKz9lT72blka6MySFreN/jZCIVMabZRMagXG9e89mi/A/BFlnxmGxEtAC8qs01Wa05ZrZRuGlIWhKBq2bNPVlQ7rp+Tdrh3BNYf16qI/oknKnPSfdmDJHKde8ibDYxcloike3XDxyqt7Ao0MR1N4JKOe1/coY8ngphnqkHrM6vtTYAMgSemRGK+wQDZBJ5PeMgrfHsOm7zwKf/8YevvD9MV71uqg0Nu1MUWUzdGMKKo9V89kTO1e37Xpe5DOkOID9OYZk8/qpwL4vI1APA9Ylvg66hKjDUYQ+Iap28lGxihKCNs4vidYS6uwTIQCTff4xw3oAxTpupEE+zfKji7GFPWZ8b0qWqmhH9fwnu8BD6y5+9EyAzbiAAlirWC2UoxoQsRKdmgEgnGVf6DP7/BhTcwNAhmq5abLHlL9yE9raKc6/luAr397Gt55McSkdIhuM4MVaMWUGt5yqlhft0KfpcJHPcnouWltaZyUF1VHLTFJ6xar1kua1EvsUwHYnwtqoR+WPqPxkNj9TaGpJUyq/DIBem1GYh1GG/K/j32UlylOVWfxO1mBC50QwSmNQodMKcHIU497NEPcOSvTcPcozwyyxjE2DLzlDMFX7aW9qG9FSuaAudIzJVjWTGgpGan60pUzNpfB9NfGUjzpIPDEHQ+XX0p6vTF388Xev4EuPT/Di1QhRe92m7AZECPJPvKBBL3k4kSb6eL6Kempvp0sdN1oU5Jgz52sppgCTKSjv2O5bYZDieBpF243HtF9xvZb0cqzQZ3Ozj35H+/qVyFLNW1cvKWSwo+trKBxQ59j1ZZztSxrRYSCFQ0MfvGddub6+pvCoqRJfsio+1kU/tRHkH23HRQlUuOQUEwasOzg3qhjzBzjTD9GlkV1c0YjiWfePyC5SP73hkONKzpXpVH4FYabNDwmalDhRdp/wVNBJYWVAbdYe6dBS060UJWOlF2Yt/OkzDv7Hf/kMLk42Mej0caLN4y9fQBoGKLQ+1RJSoWm3bDJ6anVirs7aSyBvTPoFbpeIiIrryrKS//4Mw0GMza0BNjfIPx6zN86Q0YjGWtZ3Samc5zlkDBcr9sojyYgqAbpY41COJdekncjDlCz1GIKOqqu4L97GJ993GvfRqOrcSVKhRUM790tLTc42DYD4oF1PTdspnAYx5ZlUsaeDyGyUMzKbBiAc4Erm4Pe/NsE//73vY699P/ayFvK0QkgE0fMKGxIUpFpGkp1UQtkq9Ez5yT8lPOmpVeospV7UP/ja4Zg8q6qEdrfE2lrLtu4a9AJovQmD+fY5Bd+rMdUykrCP5Ucom3V5r1CVch8aMSmMr7KpmgQVBLGtRyG0EFe7uKud4FPv38SZOEefvk11FsS5i1zf0pMVm9a+WlwNGJsTOjEWUj2+zdfXKp4VkQEfU8byVxi8f/YbwB9/dYZLu+sMuQLEGkd1JwRkM+RxjGVev0/xp6r09GhKbyEBnyt/UtX776nEV03FPFWV0lCUNqtvsNa1zTtDOnvN5MvyxPrB1wyrJSaNbljxGHmqoVKVkWkJjnoRT9X1E/JLbum4NBzqEM3GxR7ODQN86N5NS/71aFBpbs2qqiZgSf3TW8h15ZUIo/RQUGq1IqpMrPJSFvRb4F8gd0PsVl18/TngD792Dd/5AU9u3Q2BAi30GVD5Ha9C5kXsjOU1AIr3JahqImOvJe4IY5W5t8aD2LQzrxfktoy3refX82wDD0mn0FY975/XksQuLYmB5AMZaYVSlM+KxlOlujICeu4E4fXckraKCymLJzvAg5stPHSirvqLKMcKxbT5h8CuLrsiypa5JxoA7YCqmL+qMSs/EpfUSLSyk7KF5y8D/9/nXsa3Xpxg220BLR1Le6yaa15DHTCRkTUB53lL2PSw+Fsn7GqlrxfyZDCl2v5C4/YasqOnartYX+9gfTO24T5B2czm6gv21yGEJfqWmKS0i5l9dc5Enp7KTn5q+pmiozB0Cev5KptiRG+v7bof2ASG5F/b0T5VyuyTj7TQRaYp5svN0wU5070dco3MpMuX2En1UdCbE376fL8Ku/Lt+B49/mf+HPjC4xdwmTZ2j0F+PktwutcGktRgWUIrfDlzMPAyWtxlZbBFrJQzZfcVXCmBRcWnwClpZct50bDKu/eGBdbX2lhb79H7812eWhf0ZFAtu4YIbQqvbCuvt5xEXhJhWmmvT7hPbbfROaUExBf+ofSS15XN7hswHP3RhzbxyGlgnSwL0m30tZC/OTXBMhnkOUSz95abaqAq76SH+Rsh487QLG2I7cTBY+eBzz9W4Cvfo9j6I4p4TgHfQ7dTIGW8pS2+KiemJY4QOgJmy0v1MGCdmKppPuAkpCW+eQXluKS3d+j5+za1Vwlsm7xmi3lSoGl468KgWsiFCpaXNMdBCizjqBJpMoSkNBOlzpxVmYyB2S6GfoFHTnXxIGH/CaKpPk/TsLSmWFvopcks5KshgRUZkRv8T35IAMXa2prymYZenAgXdoGvPDXBXzyziwuTEjPGCR5dVZendUPtn1YhVzZbFrrM0V8Mr0h6l7DdmO2vPYze03CV8ilS/gqtrmebdwzXWmhpAjoPyzKiAmq7wgbzduoFdQiN86KqYhlJLPRoAAT1MxpRGQFjrRqRkpBqVCXok6/n1lt49K4WthgCdHlQ4Obkd4DMCTCt+CgjoDPVF3aVFcnNW+yvfdHkgDxNibRNE7Q4BXCecf/Xn53hycuMo0bA5e1LiAhpB04H7pQwV7mAKKIRUFw7wSAmFLMVfWoWL1/TXwmuRJSvZRAouCV56rgFInr+4SDExlbX1vA358ZDeRQ/V8wvNMY4lfwvGWYtRg2WmbR6j2yq8idCQ2Zf9aRMbeuuQcvH3SeHeORsy+L+OEngZVrCjrKsEZe4jYTXmNHJ2RCs3ldctSIZAEJUM7PyPHqLjNEANJl4dSfFyzQAr00jXCvJQPcS1jep+KmD6aUc+a5P2N+DVgnLXS1akSHbu2ybJywrqbrPqvJMq+XFaVjpyjXJRzv4aPPO7iDG+kYdGsjLa+AloqfSBB/JpdYHUKJQ16gTX7UxWUaqFb8u+JHuavxfrNXmHMr4a+mOrWEXj9zn495TgCqnO20eoOFrKrr4a1vV0/mrNiVJZRT0OduK4Ewne1WuFVA0fupv01KO0KGwelTiVyYB/vFvO3jsB7sYy6oGHmIEqGhKBRIqQdVIkyklrPXa6J5mYkHz/48XbNVmHPLQtQDKI8kb1WW9UmR7X4k7PjcYr9S0kn8UXtu4kxB1OAwxYOsNAsSxS8QkvEB/T1m0qEn/7Jq8Iv/rexYLfFghzDEi8Uj3rftc0I2Z+RufFwr4iaIcNeOLEFGF2Elxop3jk48M8cAaMIzIRzuNvJKA0hxr/f6MX2Rv84/2ndTSdQpx9fmyE12Vkk5kDHkcODOzlokYrHFV4tPHX5ni6l6KgB3i574JbcGDSwpwpf3nKlphMtul0KrYJXci8vl4Kb+ozsazmSSRyLPr4rN4j2RGQPkTenDbugsZwojKr9l99Py9TsgQidfLyGmFBVJsXre+Pi9EN2cIQorPL5CRMUPDKx23Zi7duEgFtTdufM6P+aimrJTW468Yy0v5KxpVv0hwouvhQ/cOcR+Vfy2YUvnH80uQd9po0tXxtsOEzfyL+JlVVFpIpQNXRINJRpBfGl91YRt51VMg5eX42XR3gklSIi2XOA41QVQsr1Yrq0iKKoFSM4UV3zTERF4l4llaV1C22i762r2n49dVgmS5prMsNYlX1+kNL+Y0RwikoHb7yKi4RaC1Eiv03SneMyzxsXvrhTyzSolCSe+KDkKMSj2bmlt3gQM6qzkbNXZNWdYYP726VvdZZrKYnlySIRAc1ytV6MlwekREei1PrclAWeoQKdFvUXCV9Ov1Ffe7RAJEW+S4eOvJmy27EZjTwuO/lWQEFpN2bO6f2dcWof/77+rgR87EGPHNLj3WJC2xm7zthVb0NkR21oqu5flyxqqRbePL+EnIlO9vaePJOILjLbF1pXbX68wpuTd/j2RxrN7jP0MIhKZpWiDLchu77g3qzTu6Ax+BLTeb8jjFprqeXcGeLyctjOlblVY8XjSxKLV1KOicygztdBcfvmeAR891cKpP5GVBa444IHplW9HBSOE/Y8+6DiDVsJOGAWVr2S/qmgdPUohjDRGK0ctLmm5qG3iYERDX5mR8UkJwHh4orndKdGg46zX8Y8SxpDnjUWoyADfkElZ0E5pr/rxJLjXctx7M8PBaiQ+eBs4OiQQU2PNzVaT65Hu0AlQHJoozI/06D4XcoZe3UlUKM+Grkq8fuqeL9XiGclYv5bWMJO9jUF95khsMgFX9KUEnqGQKTbhKJ9TqOBgMIvRHke3ko2E8y+LPtV7PCRJu6v2Wi3T/i3YLKgt06Om1ks9P3NfGvT3Cfq8+S0U+kzS3cmEtB7aig5FNBgqp6IEQvsc434wujYLP2LULfOScg3OdXUTVVTthqYmKXyv/HPLL4xfy+uQXsZSm7ba62ryD8H/E5y0lV3Usz2HwWk8DrocQteqvjMeykmzfG5vU+Y0kXsupd8o93DN08IEzbTy8FSDOt+EUU5vAprX/2v0B5VXDrisDcFCiAZArqmPSUuk/K5JQEEAEwMf7RgU+el+Mh87S7C4t1cU89ShAnQSsi3vqAhXxz2d4EMX0+oMAww0XcVuVfQvB1rBowBcB0YJEWjP9VDvxVqFfHrp5/L+gRZSlbeEf7OWE/S3csxHY0Gogj8WQQMt9RZ5mCjrIqgg5+buig5EmUFvIL6ofZACUcdX4QIZhtIePPrSGR7V9ypKSxFS79Urh62FAGgJ5fj4X/Jen8gIfURSh2wnR6zsUUhpWR3XrGkxVxj/k+eSrwgVSGGpxkLmULzHVRuCNhqBmS80bnw7pw6cjPLjmocuYv3ADJBoKoHz6SBn7z9gHhQ0RZrYHwIoOQs706msV3B4yOv8x3xiCDKVdUJGlsqvRdIxJuIbPPg/8H3+U4OruBDt7CaYpu4Dxl6e16dVZ7EgVtRDw8rn+qpOOCwkBKDkqQdW98t7l+flU6/6FkY9WO0aLCGC0AbYUWUbjULjkCWG/oIByLCoHVsUkoVUUeQwDhCjsC5aPJCZ8kBGsVV1v1FN7Q/GHXj4OfQxjF//wEWDAcEpLzUkss2SKnkcEoM0mKGt52UJCOZTExnatFTUlZzqdkIvXu2D+7Eaq39XmH89Pgd/7s2384VdewOOvVJh6J9AdniT8Zb/Q4blJQj+X0TAwsrjJlY4uyY8nsnFsvDcrnGCIxPvWOH+379ka/p2+UAB5sdTQvhnJnNIcGg8VdVY538nHCBnvn+o6eM+JDh44NcC5DQcnaD/DG8SplsgbeXycZO2HSzQA00bSKkelOotXrgLPXaIxuFjhBxcLXLyaYjyeoZhN4ZUzGoASM7+N3Oq1jwsRzzDWNGyq1X3KGr5LeJU8bbUdtCi0qu8PfL4/P2tFb09OEJCVPlGRwqrCVp7ukn8bHR+nBj5OkJ8bdOdd8rdNA3Cc8OS7iRobgIrWGek2nHiEhJDrCl++eqXA5e0Z0qSOjZ2SMW+RIY9pBjSGeJzI5pLzngjptdJPPU1XoyUVERDj0ZDQ3p8v5mHHruhWpBWntTVcmuWWSNW+kZ2YkJ9QX5N6uvQfsRZMLRNaWY1OrXh6GNQcAVD5y+kF+N0R9cCyMShyh/4+hE83qDBXSzWlaQkvVuKr0WWPCCkpSgGcx+sCnIKtb0aeizs+Tnd+mKR8qCpQFVpJfjRJSlDfs1grpUBR+TWhKhqS4asqv8OgA4QAJZVAa7EqvSdNuKHn7F3NzPb5LqGwPm501SNEngqhdFM1Cqgfde/iwZwfhLJmFbT01Ir2IYVU4pc8u/jJR6uX4FPVR6iox4rSSJqHskIAh0KNDUDCPtljU1dpGDZ05RPVQRXNgfZklfLXpkGLMticl+NE3oR/eGNUei3yqcd6T78FDOBnMgBKAF5/b0VvT+SVlJwwIFfIZCFVYIVStRGojzInM69NWdHtp8YGQMuGaafVhb3WJguu9gwwJ6hQoDYAOk7LM9em4HiQZK8erlLhNGVWt8YnAj8WCszJkKuerIR1X5LEaLlvhQEa/BOCFD9vZJ3xk7xWaLCyqYdDzZOAOorNOsIUYD5r0ERePVTDuCJnsBDkdJCNLntESMof18LJ2zJWiBf6ZCGYfNRT+8zeWNF+ZKOlC/6RFrxbNBMz/tF8f/5f0SFQYwNgprogbBNEs56j9S5yZHlmLwOtvmJbf6u3tHpLfdqxIN26pHGu5CJxwIwiSUZgMeixCGNXdGvSArSqogzmC6TcSDkhlhWSSdT4Wq7lTYes6DZRcwMgabcYl/E+m7YR04nSC8m+VhFSR9WaMW/HiWQBNDnCFF13rTa/UfFGhtHEVEGSHbSiW9FCRkyzF/yc89SSqvzALIOakqp24IpuMzU3AAtBJynTr5WEFyeqayTyJvZ6s+EVjxQJi0ogTQ4loKLFjepRH8ybCe6KbklvgIhzxb+Rn2/goYzqiqe3n4D/H/9Nec2Z+ZjsAAAAAElFTkSuQmCC;" vertex="1" parent="1">
          <mxGeometry x="370" y="180" width="46.54" height="40" as="geometry" />
        </mxCell>
        <mxCell id="d-z6-dSJOa0beq1oyZxt-47" style="edgeStyle=orthogonalEdgeStyle;rounded=0;orthogonalLoop=1;jettySize=auto;html=1;" edge="1" parent="1">
          <mxGeometry relative="1" as="geometry">
            <mxPoint x="170" y="199.58" as="targetPoint" />
            <mxPoint x="50" y="199.58" as="sourcePoint" />
          </mxGeometry>
        </mxCell>
        <mxCell id="d-z6-dSJOa0beq1oyZxt-48" value="PI Planning, Tracking&amp;nbsp; &amp;amp; Collaboration&amp;nbsp;" style="text;html=1;strokeColor=none;fillColor=none;align=center;verticalAlign=middle;whiteSpace=wrap;rounded=0;fontSize=10;" vertex="1" parent="1">
          <mxGeometry x="50" y="163" width="120" height="30" as="geometry" />
        </mxCell>
        <mxCell id="d-z6-dSJOa0beq1oyZxt-49" value="" style="sketch=0;aspect=fixed;html=1;points=[];align=center;image;fontSize=12;image=img/lib/mscae/Azure_Test_Plans.svg;" vertex="1" parent="1">
          <mxGeometry x="374.99" y="430" width="30.6" height="34" as="geometry" />
        </mxCell>
        <mxCell id="d-z6-dSJOa0beq1oyZxt-50" value="" style="sketch=0;aspect=fixed;html=1;points=[];align=center;image;fontSize=12;image=img/lib/mscae/Azure_Pipelines.svg;" vertex="1" parent="1">
          <mxGeometry x="560" y="181" width="39" height="39" as="geometry" />
        </mxCell>
        <mxCell id="d-z6-dSJOa0beq1oyZxt-51" value="" style="endArrow=classic;startArrow=classic;html=1;rounded=0;" edge="1" parent="1">
          <mxGeometry width="50" height="50" relative="1" as="geometry">
            <mxPoint x="441.95" y="199.5" as="sourcePoint" />
            <mxPoint x="536.95" y="200" as="targetPoint" />
          </mxGeometry>
        </mxCell>
        <mxCell id="d-z6-dSJOa0beq1oyZxt-52" value="" style="aspect=fixed;html=1;points=[];align=center;image;fontSize=12;image=img/lib/azure2/identity/Users.svg;" vertex="1" parent="1">
          <mxGeometry y="180" width="36.57" height="40" as="geometry" />
        </mxCell>
        <mxCell id="d-z6-dSJOa0beq1oyZxt-53" value="Regulatory process team" style="text;html=1;strokeColor=none;fillColor=none;align=center;verticalAlign=middle;whiteSpace=wrap;rounded=0;fontSize=10;" vertex="1" parent="1">
          <mxGeometry x="-30" y="220" width="100" height="30" as="geometry" />
        </mxCell>
        <mxCell id="d-z6-dSJOa0beq1oyZxt-54" value="" style="aspect=fixed;html=1;points=[];align=center;image;fontSize=12;image=img/lib/azure2/identity/Users.svg;" vertex="1" parent="1">
          <mxGeometry x="374.99" y="298" width="36.57" height="40" as="geometry" />
        </mxCell>
        <mxCell id="d-z6-dSJOa0beq1oyZxt-55" value="Test/Validation Team" style="text;html=1;strokeColor=none;fillColor=none;align=center;verticalAlign=middle;whiteSpace=wrap;rounded=0;fontSize=10;" vertex="1" parent="1">
          <mxGeometry x="352.12" y="336" width="100" height="30" as="geometry" />
        </mxCell>
        <mxCell id="d-z6-dSJOa0beq1oyZxt-56" value="ADO - Boards" style="text;html=1;strokeColor=none;fillColor=none;align=center;verticalAlign=middle;whiteSpace=wrap;rounded=0;fontSize=10;" vertex="1" parent="1">
          <mxGeometry x="146.28" y="230" width="123.72" height="20" as="geometry" />
        </mxCell>
        <mxCell id="d-z6-dSJOa0beq1oyZxt-57" value="" style="endArrow=classic;startArrow=classic;html=1;rounded=0;fontSize=10;" edge="1" parent="1">
          <mxGeometry width="50" height="50" relative="1" as="geometry">
            <mxPoint x="205" y="290" as="sourcePoint" />
            <mxPoint x="205" y="260" as="targetPoint" />
          </mxGeometry>
        </mxCell>
        <mxCell id="d-z6-dSJOa0beq1oyZxt-58" value="" style="endArrow=classic;startArrow=classic;html=1;rounded=0;fontSize=6;" edge="1" parent="1">
          <mxGeometry width="50" height="50" relative="1" as="geometry">
            <mxPoint x="250" y="199.58" as="sourcePoint" />
            <mxPoint x="340" y="199.58" as="targetPoint" />
          </mxGeometry>
        </mxCell>
        <mxCell id="d-z6-dSJOa0beq1oyZxt-59" value="Process Automation" style="text;html=1;strokeColor=none;fillColor=none;align=center;verticalAlign=middle;whiteSpace=wrap;rounded=0;fontSize=10;" vertex="1" parent="1">
          <mxGeometry x="242.94" y="176" width="125.71" height="17" as="geometry" />
        </mxCell>
        <mxCell id="d-z6-dSJOa0beq1oyZxt-60" value="" style="shape=image;verticalLabelPosition=bottom;labelBackgroundColor=default;verticalAlign=top;aspect=fixed;imageAspect=0;image=data:image/png,iVBORw0KGgoAAAANSUhEUgAAASQAAABYCAYAAABcboriAAAAAXNSR0IArs4c6QAAAARnQU1BAACxjwv8YQUAAAAJcEhZcwAAFiUAABYlAUlSJPAAAA5rSURBVHhe7Z1drF1FFcenlGKB0hYQ5CMIVQgYYmiNij4YypuJMRQTjQZNC4m+SUuivpmWaHzRxKIxvtE2mhCfCg/EGB9ui28k2laBSAyUgvINvUVKW6A9rt+5e+gwXfvznMudi//fys7dZ589s2fPnvnPmrWnp0tGRhBCiAI4q/orhBALjgRJCFEMEiQhRDFIkIQQxSBBEkIUgwRJCFEMEiQhRDFIkIQQxSBBEkIUgwRJCFEMEiQhRDFIkIQQxSBBEkIUgwRJCFEMEiQhRDFIkIQQxSBBEkIUgwRJCFEMEiQhRDFIkIQQxSBBEkIUgwRJCFEMEiQhRDFIkIQQxSBBamHPnj1hyZIl79vWr19ffSvE/PD/2u4kSEKIYpAgCSGKQYIkhCgGCZIQohgkSEKIYpAgCSGKQYIkhCgGCZIQohiWjIxqf2JOvBXC0cMhHPtvCG8fD+HkO6Z4JnnnnBfCuStCOG+V/V1ZnTyA4++G8NiL1YcJWXFOCDdcWn1ogAVqt956a/VpjltuuWV8vAvPPPNMeOihh8L+/fvH+7B69eqwdu3acNttt43/ToKX/zXXXDNeREf+XCsSF9ul3HTTTe+dMzs7Gw4cODDej6xatep9ZeSceD024HuuyfX4W8fevXurvdOk128iTzs0HVx99dWN5aSeSMf9cb/A+fGZNaVNaatv8t+1a9d79Ui+W7duHf8d0u7I58iRI9Wn0+TPsCsHzB4x4+9zZm+YXWB2vdk6s5vNbjSbKgjSpBydHY3+8+Ro9MQjo9GBP9dvj+8djZ59fDR645UqYQ+eem00+s4D093uf7TKvIGZmRkE+32bNYzq23pIZ6JwRtp8s8Y32rlzZ5WqOwcPHuyU/6ZNm0aHDx8ep/G+p5wR717ZgDzIy/s+3TZs2DAum4cJwRnnb968ufq2nn379g1KRznydGzpPaeYGIxMLNw06cYzq8sjxUtLOuqSeqr7Hrxn0dTuduzYccb5bCZG4/rrwx/N7jJbaWa51NonzO42e8RsWkw8ZXvt3yE8+1gIrz4bwjsnqoM1vPt2CIefD+G5J0J4+aB5UObxdOUPc4PIVJl5KoR/vFB9mBKMqHfeeed4dGsazSJ4NdbRx+fH0bgNE7CwZs2aTvnHc+MoPATSkgd5tfHggw+GdevWuedaJ6z2ToO31YaXV5d0lCUH7yj/Jxjx/u69995Oz4BnxvO6/fbbOz+zCOeT1ivbUCg/bS4Hz4g20tU7OmH2U7Nvmd1vhkfUxNNmvzL7ntlvzabBRIKEqLzwL5ueHasOdARhetHE4KWn56Z1XXi95zW6MmtTy2kRG1uXjpsTXfS2Bk7eXuNrIpZrKF3KlcK5lDGvhy1btlR7p6Fzx6lmHZ74kKZNZJkO5eSiGOu9rQweiErfuqFeJhkccsir7tlS/13F6AWzH5n92GzWrA//NLvb7CdmkzJYkPCIEJVTJ6sDAyCPVw5VHz4E0Ni9xsZIReyB+AAb+xzLaWpcQOfpK0aRPp0mZ2haypp6ccRGiKHkNHkLpK8Ti+3bt1d7Z1InWKko8v0QLyel7ZnltF2LOupKvLaXp03hXI+0jl+b4e0M5V2zbWb3mU3CIEF68/W5qdo0eMVE6fCUp00LwbZt29wAKgJE56DTcQ4b+xzbuHFjddZpaGReR6PR0Xk8ELfNmzeH3bt3h4MHD463mZmZ8TFP+IYSr0Pe8Tpck2N15ALK9DTH82QiTd5m07TNEznEMO3wlMXrzGl97tu3b3y/dHCCyh48M8/7a4Jr0Daow9FoNN64TldBiu2hToy8eq7jd2a/MZuUU2bbzf5kNpRBgoSA8EZtGoxOzeU3iae10NAo7rvvzJGBhoEAeW+DOEZn80TJi2UgUl7jo5NFEWNEpEGzESfhGMKHRzYp5EFe5Ene8Tpck2N0LM/7IU0qKt6oTfk5z6NJdKiPOu/KE7m0k1Km/I0i5PXJlIf7JS3eGqLhiTzPv+4ecrgGedE2UgHKY1t1cN94Rt71+orRq2Zd4kUeG8x+aTZjtskMbAIeHjAbSm9Bwjuafan6MCXI88jL1YdFCI07FwtG0y4Ng7R5AyevdKoDaaeOxIadNuochI9O6wlfV0hLHp6wRigDZfFECYGNcJ4nkJ6wcMwT4RSvXkiDqOSkYojg5HSpT0SDczxR8vLMIR3ph7yGhyhG3v31FSN42GyPWR/Wm5l/HHabbTHjsw1P1bc2iJj1zTPSW5COWvvAq5k2iNJixetMjH5d8byGNE8a36FDZwbb6IxNIpHSpbPU4XV6D8riXYeRPB3Nvfv1PJou18WDykXLex6IYBQayuJ5R5S9S30iJt4Urcubv67X8GCNUV1QfIgYwV6zPuw0wyNKBQjwjCIExfvmG+ktSCx6nA/eMo9xsU7bvNjRPffcMx7Jumxe+rQDM6Lm4IH1GWWHdoK+4EF4XlIqEl2mbYhM3sHJl7hLTi5AniCl1/S+J++uUyaoe2PoiUVKk/fVBnl7ZceDHSJGBKL/atYVxGijWWSXGQskl5jxXcqjZkPoLUjH36x2psyJo1ZBHZcAlETaiVJoPAhJl83LI11x601b+nSeDxpPcNJ7QBy9KWTa2byOR6fzOl7qXXlCBmmZvPr0ytwE9+AFub285xvuH8+pri3W8ZrZ381SVpt5EKyOYnTEzIbScdxov5nH38yG0FuQuq4bGsKpD5EgTQpB4og36g6NQXwQeF5AXk+eACDOEW8KRxryzj2wVNTrPIjUQ/REY4gH6d3nQggSML1lQar3cqWOw2Y5HMN2mMVpGTGizWaAGPHZhtLx5zpeNxtCb0Ey72z+mM+8Fxmp4HidZaEafhe6dHjEJQ8Mx3gQ4pKKE6QxIG+6FIXIE6Qu3s+Q+iztGVAe6mboWrUIXhLezz4zgtaIU6TJK0o522wIvQXp7HOqnXlg6bJqZxHhTZ3ofHFtydAt7ZDeSNwWq1hIPK/RE1Vv+oWgtImKJzB4BnTIfLqG6OXnT0vgu97ntOCfvRBDY6rIfh14S11E6VKzXDhY2HjIDBAmXutHT4lAtT2d8X4bHzMbQm9BOveCamfK8CsA8yl284n32t5rrEPxBMkLhJdC7t2Adw918SBv2pGKCp0+XzpAffMiIce7hleWLm/IUrie96bOy3takDdvb+MUlTVRdYs1EaW2N6sXmX3OLAWPCAEiYJ3DSuyufNZsCP0FaYKfD2nifOvT2S81LBq8EXuS1+w5nhdW98aljkmmF33S0hG8jurdA9PSfKRP40GRPAYEXp17ywQ8QfLSck0vfR3esg5iW/MpSDnUKfXFK38PBDqvy5xckCJMzaKnBMSO2uJGKV80G0JvQTrf2sWyj1QfpgRCtOKi6sMixGv0jPJdp1Wcxz8DqGs8NHLvVXrdmpQcBIXlBUMhbRdRoiyel9LUUb26y/EEhHTe4sQUxM4L/iNunmdB2bvUJ8JVF3RfCKiLOlFqm7rxtqyO9FV+l7hRZI0Zge8h9Bak88xDWj1seljLKstv5SXVh0UII5XXwOnI3vQlhe85D2+n6S2JF8iNQtN0jZh/V3H0IC1l63IdT7i8skfaBMmLAUXaBKApb8/D6VKfpPM6OeVsus/5hnv11mhxL03P/qtm3zDzYIrGGiOsj8B8zYz1SUPoLUiw+vI5T2kanLM8hAsvqz4sYpoaOA2YGEVsGDQSRli8orQT85dG7XVsGpznJcVrIBj8Ew2uw8Y+x/huEjGK4L2l16H8+XXyMgNlbhKGOu8v0pS26Tto+r5uEMnrM8a08J7ibyZ58NzmM6DdBdqgF+xuCh8sNbvL7DqzafAFs2+aDWXwT9jy79mef3Lut42GssTk8Aqrh4uvqg408MOHQ3hpHlaJf/fmEL60pvrgEEf+FBqyN4riynd5u9EGMRMvnoEoMAXxfqZ0KARGY3zHu9dJwGtADNviKnQYb6oH/Gv7pjVX5O39sxpErk2IER/y9tL3oe555T9fC2l9N9Gn3aV4bZA6Ste1efDzI/ym0SR83OwXZl83G8ogDwmYtl1+bQjLz68O9GTp2SFc9sluYrRYYET23OY+0JHqRjQaFg2yLXbi0eSFtDEkLWWkrG1iBHWeTF0MKKVu2tbmPQEeDVPlSeqGt33TfIExKZ7YMZC1Bbe/b/Zzs6Gv668122o2iRjBYEGCC68wUTEP54KLqwMdYbp35Q0hXFK/lOIMrvtotTNlrurftxvBbeZ3dIaIBmJGJ25y/emgnNO0DiWHDtc2sjZB2j6dlrKRpk1MItyv9wsAXWIyded0ESSI9elN39rgN5MQtIWeqqUwAHhto02Q4AdmeDifN+vDV8zwsJj6TcpEggQrTSiuutGmXtfPvSlrenWPEF1mXtWVn7JG2DNudMe6ED495VjTHZ+xBzgPb/cYtWkACEybcCBcuPxMTRCzLo2bTtQlf77j7QtTl0k6DWnJg7zarkeZKFtXMYp4nk5b0BrogLlYIm597pdzESWmU54wpsTnxRSoJM8opYtXWse3zX5v9jMz4kFNfNkMIeL3tNmfBoNjSHW8dSSE40dDeOdYCCdPmuKZ5C1bblO7FXOLKs9aWp04kNkp/bb28mW2DVvd3hs6Mw0+DfrSYekIXeIJbeT5x3z7igJ5eDGkvIlM63qlwn1xf9xnhHvk/qbxvBYL/BrAX8yeNOO/QTpmtsKMWNFaM96kERSfJlMXJLF46SpIQswXE0/ZhBBiWkiQhBDFIEESQhSDBEkIUQwSJCFEMUiQxHvwajtnyAJPIYai1/5CiGKQhySEKAYJkhCiGCRIQohikCAJIYpBgiSEKAYJkhCiGCRIQohikCAJIYpBgiSEKAYJkhCiGCRIQohikCAJIYpBgiSEKAYJkhCiGCRIQohikCAJIYpBgiSEKAYJkhCiGCRIQohikCAJIYpBgiSEKAYJkhCiEEL4H6WMGvzO39ZDAAAAAElFTkSuQmCC;" vertex="1" parent="1">
          <mxGeometry x="536.95" y="300" width="126.09" height="38" as="geometry" />
        </mxCell>
        <mxCell id="d-z6-dSJOa0beq1oyZxt-61" value="Test Automation" style="text;html=1;strokeColor=none;fillColor=none;align=center;verticalAlign=middle;whiteSpace=wrap;rounded=0;fontSize=10;" vertex="1" parent="1">
          <mxGeometry x="510.00000000000006" y="332" width="160" height="34" as="geometry" />
        </mxCell>
        <mxCell id="d-z6-dSJOa0beq1oyZxt-62" value="ADO - Test Plans" style="text;html=1;strokeColor=none;fillColor=none;align=center;verticalAlign=middle;whiteSpace=wrap;rounded=0;fontSize=10;" vertex="1" parent="1">
          <mxGeometry x="323.42" y="470" width="133.74" height="22" as="geometry" />
        </mxCell>
        <mxCell id="d-z6-dSJOa0beq1oyZxt-63" value="Power Automate" style="text;html=1;strokeColor=none;fillColor=none;align=center;verticalAlign=middle;whiteSpace=wrap;rounded=0;fontSize=10;" vertex="1" parent="1">
          <mxGeometry x="330.40999999999997" y="226.5" width="125.71" height="17" as="geometry" />
        </mxCell>
        <mxCell id="d-z6-dSJOa0beq1oyZxt-64" value="" style="endArrow=classic;startArrow=classic;html=1;rounded=0;" edge="1" parent="1">
          <mxGeometry width="50" height="50" relative="1" as="geometry">
            <mxPoint x="435" y="322.5" as="sourcePoint" />
            <mxPoint x="530" y="323" as="targetPoint" />
          </mxGeometry>
        </mxCell>
        <mxCell id="d-z6-dSJOa0beq1oyZxt-65" value="" style="endArrow=classic;startArrow=classic;html=1;rounded=0;" edge="1" parent="1">
          <mxGeometry width="50" height="50" relative="1" as="geometry">
            <mxPoint x="260" y="320" as="sourcePoint" />
            <mxPoint x="355" y="320.5" as="targetPoint" />
          </mxGeometry>
        </mxCell>
        <mxCell id="d-z6-dSJOa0beq1oyZxt-66" value="" style="endArrow=classic;startArrow=classic;html=1;rounded=0;" edge="1" parent="1">
          <mxGeometry width="50" height="50" relative="1" as="geometry">
            <mxPoint x="570" y="249" as="sourcePoint" />
            <mxPoint x="570" y="299" as="targetPoint" />
          </mxGeometry>
        </mxCell>
        <mxCell id="d-z6-dSJOa0beq1oyZxt-67" value="ADO Pipelines" style="text;html=1;strokeColor=none;fillColor=none;align=center;verticalAlign=middle;whiteSpace=wrap;rounded=0;fontSize=10;" vertex="1" parent="1">
          <mxGeometry x="499.50000000000006" y="218" width="160" height="34" as="geometry" />
        </mxCell>
        <mxCell id="d-z6-dSJOa0beq1oyZxt-68" value="" style="endArrow=classic;startArrow=classic;html=1;rounded=0;" edge="1" parent="1">
          <mxGeometry width="50" height="50" relative="1" as="geometry">
            <mxPoint x="390" y="370" as="sourcePoint" />
            <mxPoint x="390" y="410" as="targetPoint" />
          </mxGeometry>
        </mxCell>
        <mxCell id="d-z6-dSJOa0beq1oyZxt-69" value="" style="endArrow=none;dashed=1;html=1;dashPattern=1 3;strokeWidth=2;rounded=0;fontSize=10;" edge="1" parent="1">
          <mxGeometry width="50" height="50" relative="1" as="geometry">
            <mxPoint x="10" y="260" as="sourcePoint" />
            <mxPoint x="10" y="320" as="targetPoint" />
          </mxGeometry>
        </mxCell>
        <mxCell id="d-z6-dSJOa0beq1oyZxt-70" value="" style="html=1;verticalAlign=bottom;endArrow=open;dashed=1;endSize=8;edgeStyle=elbowEdgeStyle;elbow=vertical;curved=0;rounded=0;" edge="1" parent="1">
          <mxGeometry x="-0.1983" y="-10" relative="1" as="geometry">
            <mxPoint x="10" y="320" as="sourcePoint" />
            <mxPoint x="160" y="320" as="targetPoint" />
            <mxPoint x="-1" as="offset" />
          </mxGeometry>
        </mxCell>
        <mxCell id="d-z6-dSJOa0beq1oyZxt-71" value="Impact Assessment" style="text;html=1;strokeColor=none;fillColor=none;align=center;verticalAlign=middle;whiteSpace=wrap;rounded=0;fontSize=9;" vertex="1" parent="1">
          <mxGeometry x="-3.719999999999999" y="296" width="150" height="20" as="geometry" />
        </mxCell>
        <mxCell id="d-z6-dSJOa0beq1oyZxt-72" value="Reviews, Trace Analysis" style="text;html=1;strokeColor=none;fillColor=none;align=center;verticalAlign=middle;whiteSpace=wrap;rounded=0;fontSize=9;" vertex="1" parent="1">
          <mxGeometry x="229.28" y="290" width="145.71" height="20" as="geometry" />
        </mxCell>
        <mxCell id="d-z6-dSJOa0beq1oyZxt-73" value="Automated Validation" style="text;html=1;strokeColor=none;fillColor=none;align=center;verticalAlign=middle;whiteSpace=wrap;rounded=0;fontSize=10;" vertex="1" parent="1">
          <mxGeometry x="434.28999999999996" y="176" width="125.71" height="17" as="geometry" />
        </mxCell>
        <mxCell id="d-z6-dSJOa0beq1oyZxt-74" value="Test Planning" style="text;html=1;strokeColor=none;fillColor=none;align=center;verticalAlign=middle;whiteSpace=wrap;rounded=0;fontSize=9;" vertex="1" parent="1">
          <mxGeometry x="280" y="380" width="145.71" height="20" as="geometry" />
        </mxCell>
        <mxCell id="d-z6-dSJOa0beq1oyZxt-75" value="Test Implementation" style="text;html=1;strokeColor=none;fillColor=none;align=center;verticalAlign=middle;whiteSpace=wrap;rounded=0;fontSize=9;" vertex="1" parent="1">
          <mxGeometry x="411.56" y="296" width="145.71" height="20" as="geometry" />
        </mxCell>
        <mxCell id="d-z6-dSJOa0beq1oyZxt-76" value="" style="endArrow=classic;html=1;rounded=0;fontSize=9;" edge="1" parent="1">
          <mxGeometry width="50" height="50" relative="1" as="geometry">
            <mxPoint x="570" y="450" as="sourcePoint" />
            <mxPoint x="570" y="370" as="targetPoint" />
          </mxGeometry>
        </mxCell>
        <mxCell id="d-z6-dSJOa0beq1oyZxt-77" value="Test Plan - Leapwork Mapping" style="text;html=1;strokeColor=none;fillColor=none;align=center;verticalAlign=middle;whiteSpace=wrap;rounded=0;fontSize=9;" vertex="1" parent="1">
          <mxGeometry x="432" y="410" width="145.71" height="20" as="geometry" />
        </mxCell>
        <mxCell id="d-z6-dSJOa0beq1oyZxt-78" value="" style="endArrow=none;html=1;rounded=0;fontSize=9;" edge="1" parent="1">
          <mxGeometry width="50" height="50" relative="1" as="geometry">
            <mxPoint x="431" y="450" as="sourcePoint" />
            <mxPoint x="570" y="450" as="targetPoint" />
          </mxGeometry>
        </mxCell>
      </root>
    </mxGraphModel>
  </diagram>
</mxfile>
